%TF.GenerationSoftware,KiCad,Pcbnew,(6.0.7)*%
%TF.CreationDate,2023-04-19T22:26:27+02:00*%
%TF.ProjectId,mainboard,6d61696e-626f-4617-9264-2e6b69636164,rev?*%
%TF.SameCoordinates,Original*%
%TF.FileFunction,Legend,Top*%
%TF.FilePolarity,Positive*%
%FSLAX46Y46*%
G04 Gerber Fmt 4.6, Leading zero omitted, Abs format (unit mm)*
G04 Created by KiCad (PCBNEW (6.0.7)) date 2023-04-19 22:26:27*
%MOMM*%
%LPD*%
G01*
G04 APERTURE LIST*
G04 Aperture macros list*
%AMRoundRect*
0 Rectangle with rounded corners*
0 $1 Rounding radius*
0 $2 $3 $4 $5 $6 $7 $8 $9 X,Y pos of 4 corners*
0 Add a 4 corners polygon primitive as box body*
4,1,4,$2,$3,$4,$5,$6,$7,$8,$9,$2,$3,0*
0 Add four circle primitives for the rounded corners*
1,1,$1+$1,$2,$3*
1,1,$1+$1,$4,$5*
1,1,$1+$1,$6,$7*
1,1,$1+$1,$8,$9*
0 Add four rect primitives between the rounded corners*
20,1,$1+$1,$2,$3,$4,$5,0*
20,1,$1+$1,$4,$5,$6,$7,0*
20,1,$1+$1,$6,$7,$8,$9,0*
20,1,$1+$1,$8,$9,$2,$3,0*%
%AMFreePoly0*
4,1,9,3.862500,-0.866500,0.737500,-0.866500,0.737500,-0.450000,-0.737500,-0.450000,-0.737500,0.450000,0.737500,0.450000,0.737500,0.866500,3.862500,0.866500,3.862500,-0.866500,3.862500,-0.866500,$1*%
G04 Aperture macros list end*
%ADD10C,0.150000*%
%ADD11C,0.100000*%
%ADD12C,0.120000*%
%ADD13C,0.200000*%
%ADD14C,0.127000*%
%ADD15RoundRect,0.250000X-0.650000X-1.550000X0.650000X-1.550000X0.650000X1.550000X-0.650000X1.550000X0*%
%ADD16O,1.800000X3.600000*%
%ADD17C,1.000000*%
%ADD18RoundRect,0.160000X-0.197500X-0.160000X0.197500X-0.160000X0.197500X0.160000X-0.197500X0.160000X0*%
%ADD19RoundRect,0.160000X-0.160000X0.197500X-0.160000X-0.197500X0.160000X-0.197500X0.160000X0.197500X0*%
%ADD20RoundRect,0.150000X-0.150000X0.587500X-0.150000X-0.587500X0.150000X-0.587500X0.150000X0.587500X0*%
%ADD21RoundRect,0.237500X-0.250000X-0.237500X0.250000X-0.237500X0.250000X0.237500X-0.250000X0.237500X0*%
%ADD22RoundRect,0.250000X-0.650000X0.412500X-0.650000X-0.412500X0.650000X-0.412500X0.650000X0.412500X0*%
%ADD23RoundRect,0.250000X-0.450000X0.325000X-0.450000X-0.325000X0.450000X-0.325000X0.450000X0.325000X0*%
%ADD24RoundRect,0.249999X-1.550001X0.790001X-1.550001X-0.790001X1.550001X-0.790001X1.550001X0.790001X0*%
%ADD25O,3.600000X2.080000*%
%ADD26RoundRect,0.250000X0.450000X-0.325000X0.450000X0.325000X-0.450000X0.325000X-0.450000X-0.325000X0*%
%ADD27RoundRect,0.225000X0.225000X0.250000X-0.225000X0.250000X-0.225000X-0.250000X0.225000X-0.250000X0*%
%ADD28RoundRect,0.150000X-0.587500X-0.150000X0.587500X-0.150000X0.587500X0.150000X-0.587500X0.150000X0*%
%ADD29R,1.520000X1.520000*%
%ADD30C,2.000000*%
%ADD31C,1.520000*%
%ADD32RoundRect,0.250000X-0.475000X0.250000X-0.475000X-0.250000X0.475000X-0.250000X0.475000X0.250000X0*%
%ADD33RoundRect,0.225000X0.250000X-0.225000X0.250000X0.225000X-0.250000X0.225000X-0.250000X-0.225000X0*%
%ADD34RoundRect,0.237500X0.237500X-0.250000X0.237500X0.250000X-0.237500X0.250000X-0.237500X-0.250000X0*%
%ADD35RoundRect,0.250000X-0.600000X-0.750000X0.600000X-0.750000X0.600000X0.750000X-0.600000X0.750000X0*%
%ADD36O,1.700000X2.000000*%
%ADD37C,6.400000*%
%ADD38RoundRect,0.250000X-0.350000X-0.625000X0.350000X-0.625000X0.350000X0.625000X-0.350000X0.625000X0*%
%ADD39O,1.200000X1.750000*%
%ADD40RoundRect,0.250000X0.250000X0.475000X-0.250000X0.475000X-0.250000X-0.475000X0.250000X-0.475000X0*%
%ADD41RoundRect,0.250000X1.500000X0.550000X-1.500000X0.550000X-1.500000X-0.550000X1.500000X-0.550000X0*%
%ADD42R,1.000000X1.000000*%
%ADD43O,1.000000X1.000000*%
%ADD44RoundRect,0.250000X-0.250000X-0.475000X0.250000X-0.475000X0.250000X0.475000X-0.250000X0.475000X0*%
%ADD45R,0.450000X1.400000*%
%ADD46RoundRect,0.150000X0.150000X-0.587500X0.150000X0.587500X-0.150000X0.587500X-0.150000X-0.587500X0*%
%ADD47RoundRect,0.218750X-0.256250X0.218750X-0.256250X-0.218750X0.256250X-0.218750X0.256250X0.218750X0*%
%ADD48R,1.200000X2.200000*%
%ADD49R,5.800000X6.400000*%
%ADD50RoundRect,0.150000X0.150000X-0.825000X0.150000X0.825000X-0.150000X0.825000X-0.150000X-0.825000X0*%
%ADD51R,0.700000X1.000000*%
%ADD52C,3.000000*%
%ADD53C,9.000000*%
%ADD54R,0.800000X1.500000*%
%ADD55R,0.600000X0.300000*%
%ADD56R,0.400000X1.730000*%
%ADD57RoundRect,0.237500X-0.237500X0.250000X-0.237500X-0.250000X0.237500X-0.250000X0.237500X0.250000X0*%
%ADD58RoundRect,0.250000X0.625000X-0.375000X0.625000X0.375000X-0.625000X0.375000X-0.625000X-0.375000X0*%
%ADD59R,1.500000X3.600000*%
%ADD60RoundRect,0.250000X-1.500000X-0.550000X1.500000X-0.550000X1.500000X0.550000X-1.500000X0.550000X0*%
%ADD61RoundRect,0.225000X-0.225000X-0.250000X0.225000X-0.250000X0.225000X0.250000X-0.225000X0.250000X0*%
%ADD62RoundRect,0.237500X0.250000X0.237500X-0.250000X0.237500X-0.250000X-0.237500X0.250000X-0.237500X0*%
%ADD63R,0.900000X1.300000*%
%ADD64FreePoly0,270.000000*%
%ADD65RoundRect,0.250000X-0.650000X0.325000X-0.650000X-0.325000X0.650000X-0.325000X0.650000X0.325000X0*%
%ADD66R,2.150000X2.800000*%
%ADD67R,0.600000X1.100000*%
%ADD68R,1.500000X2.400000*%
%ADD69RoundRect,0.237500X0.237500X-0.300000X0.237500X0.300000X-0.237500X0.300000X-0.237500X-0.300000X0*%
%ADD70R,2.000000X0.900000*%
%ADD71R,0.900000X2.000000*%
%ADD72R,5.000000X5.000000*%
%ADD73RoundRect,0.237500X-0.300000X-0.237500X0.300000X-0.237500X0.300000X0.237500X-0.300000X0.237500X0*%
%ADD74C,1.350000*%
%ADD75C,2.350000*%
G04 APERTURE END LIST*
D10*
X106338571Y-116152380D02*
X106338571Y-115152380D01*
X106576666Y-115152380D01*
X106719523Y-115200000D01*
X106814761Y-115295238D01*
X106862380Y-115390476D01*
X106910000Y-115580952D01*
X106910000Y-115723809D01*
X106862380Y-115914285D01*
X106814761Y-116009523D01*
X106719523Y-116104761D01*
X106576666Y-116152380D01*
X106338571Y-116152380D01*
X107338571Y-116152380D02*
X107338571Y-115152380D01*
X107719523Y-115152380D01*
X107814761Y-115200000D01*
X107862380Y-115247619D01*
X107910000Y-115342857D01*
X107910000Y-115485714D01*
X107862380Y-115580952D01*
X107814761Y-115628571D01*
X107719523Y-115676190D01*
X107338571Y-115676190D01*
X108529047Y-115152380D02*
X108624285Y-115152380D01*
X108719523Y-115200000D01*
X108767142Y-115247619D01*
X108814761Y-115342857D01*
X108862380Y-115533333D01*
X108862380Y-115771428D01*
X108814761Y-115961904D01*
X108767142Y-116057142D01*
X108719523Y-116104761D01*
X108624285Y-116152380D01*
X108529047Y-116152380D01*
X108433809Y-116104761D01*
X108386190Y-116057142D01*
X108338571Y-115961904D01*
X108290952Y-115771428D01*
X108290952Y-115533333D01*
X108338571Y-115342857D01*
X108386190Y-115247619D01*
X108433809Y-115200000D01*
X108529047Y-115152380D01*
X109719523Y-115485714D02*
X109719523Y-116152380D01*
X109481428Y-115104761D02*
X109243333Y-115819047D01*
X109862380Y-115819047D01*
X110767142Y-116152380D02*
X110195714Y-116152380D01*
X110481428Y-116152380D02*
X110481428Y-115152380D01*
X110386190Y-115295238D01*
X110290952Y-115390476D01*
X110195714Y-115438095D01*
X111243333Y-116152380D02*
X111433809Y-116152380D01*
X111529047Y-116104761D01*
X111576666Y-116057142D01*
X111671904Y-115914285D01*
X111719523Y-115723809D01*
X111719523Y-115342857D01*
X111671904Y-115247619D01*
X111624285Y-115200000D01*
X111529047Y-115152380D01*
X111338571Y-115152380D01*
X111243333Y-115200000D01*
X111195714Y-115247619D01*
X111148095Y-115342857D01*
X111148095Y-115580952D01*
X111195714Y-115676190D01*
X111243333Y-115723809D01*
X111338571Y-115771428D01*
X111529047Y-115771428D01*
X111624285Y-115723809D01*
X111671904Y-115676190D01*
X111719523Y-115580952D01*
X112100476Y-115866666D02*
X112576666Y-115866666D01*
X112005238Y-116152380D02*
X112338571Y-115152380D01*
X112671904Y-116152380D01*
X113195714Y-115152380D02*
X113290952Y-115152380D01*
X113386190Y-115200000D01*
X113433809Y-115247619D01*
X113481428Y-115342857D01*
X113529047Y-115533333D01*
X113529047Y-115771428D01*
X113481428Y-115961904D01*
X113433809Y-116057142D01*
X113386190Y-116104761D01*
X113290952Y-116152380D01*
X113195714Y-116152380D01*
X113100476Y-116104761D01*
X113052857Y-116057142D01*
X113005238Y-115961904D01*
X112957619Y-115771428D01*
X112957619Y-115533333D01*
X113005238Y-115342857D01*
X113052857Y-115247619D01*
X113100476Y-115200000D01*
X113195714Y-115152380D01*
D11*
X92680952Y-115525000D02*
X92604761Y-115486904D01*
X92490476Y-115486904D01*
X92376190Y-115525000D01*
X92300000Y-115601190D01*
X92261904Y-115677380D01*
X92223809Y-115829761D01*
X92223809Y-115944047D01*
X92261904Y-116096428D01*
X92300000Y-116172619D01*
X92376190Y-116248809D01*
X92490476Y-116286904D01*
X92566666Y-116286904D01*
X92680952Y-116248809D01*
X92719047Y-116210714D01*
X92719047Y-115944047D01*
X92566666Y-115944047D01*
X93061904Y-116286904D02*
X93061904Y-115486904D01*
X93519047Y-116286904D01*
X93519047Y-115486904D01*
X93900000Y-116286904D02*
X93900000Y-115486904D01*
X94090476Y-115486904D01*
X94204761Y-115525000D01*
X94280952Y-115601190D01*
X94319047Y-115677380D01*
X94357142Y-115829761D01*
X94357142Y-115944047D01*
X94319047Y-116096428D01*
X94280952Y-116172619D01*
X94204761Y-116248809D01*
X94090476Y-116286904D01*
X93900000Y-116286904D01*
X95195238Y-115486904D02*
X95461904Y-116286904D01*
X95728571Y-115486904D01*
X96338095Y-116286904D02*
X96338095Y-115486904D01*
X96338095Y-116248809D02*
X96261904Y-116286904D01*
X96109523Y-116286904D01*
X96033333Y-116248809D01*
X95995238Y-116210714D01*
X95957142Y-116134523D01*
X95957142Y-115905952D01*
X95995238Y-115829761D01*
X96033333Y-115791666D01*
X96109523Y-115753571D01*
X96261904Y-115753571D01*
X96338095Y-115791666D01*
X97061904Y-116286904D02*
X97061904Y-115486904D01*
X97061904Y-116248809D02*
X96985714Y-116286904D01*
X96833333Y-116286904D01*
X96757142Y-116248809D01*
X96719047Y-116210714D01*
X96680952Y-116134523D01*
X96680952Y-115905952D01*
X96719047Y-115829761D01*
X96757142Y-115791666D01*
X96833333Y-115753571D01*
X96985714Y-115753571D01*
X97061904Y-115791666D01*
X98433333Y-115486904D02*
X98052380Y-115486904D01*
X98014285Y-115867857D01*
X98052380Y-115829761D01*
X98128571Y-115791666D01*
X98319047Y-115791666D01*
X98395238Y-115829761D01*
X98433333Y-115867857D01*
X98471428Y-115944047D01*
X98471428Y-116134523D01*
X98433333Y-116210714D01*
X98395238Y-116248809D01*
X98319047Y-116286904D01*
X98128571Y-116286904D01*
X98052380Y-116248809D01*
X98014285Y-116210714D01*
X98700000Y-115486904D02*
X98966666Y-116286904D01*
X99233333Y-115486904D01*
X100033333Y-115486904D02*
X100528571Y-115486904D01*
X100261904Y-115791666D01*
X100376190Y-115791666D01*
X100452380Y-115829761D01*
X100490476Y-115867857D01*
X100528571Y-115944047D01*
X100528571Y-116134523D01*
X100490476Y-116210714D01*
X100452380Y-116248809D01*
X100376190Y-116286904D01*
X100147619Y-116286904D01*
X100071428Y-116248809D01*
X100033333Y-116210714D01*
X100757142Y-115486904D02*
X101023809Y-116286904D01*
X101290476Y-115486904D01*
X101480952Y-115486904D02*
X101976190Y-115486904D01*
X101709523Y-115791666D01*
X101823809Y-115791666D01*
X101900000Y-115829761D01*
X101938095Y-115867857D01*
X101976190Y-115944047D01*
X101976190Y-116134523D01*
X101938095Y-116210714D01*
X101900000Y-116248809D01*
X101823809Y-116286904D01*
X101595238Y-116286904D01*
X101519047Y-116248809D01*
X101480952Y-116210714D01*
D10*
X132128095Y-116412380D02*
X131556666Y-116412380D01*
X131842380Y-116412380D02*
X131842380Y-115412380D01*
X131747142Y-115555238D01*
X131651904Y-115650476D01*
X131556666Y-115698095D01*
X132461428Y-115412380D02*
X132699523Y-116412380D01*
X132890000Y-115698095D01*
X133080476Y-116412380D01*
X133318571Y-115412380D01*
X133699523Y-116412380D02*
X133699523Y-115745714D01*
X133699523Y-115412380D02*
X133651904Y-115460000D01*
X133699523Y-115507619D01*
X133747142Y-115460000D01*
X133699523Y-115412380D01*
X133699523Y-115507619D01*
X134175714Y-116412380D02*
X134175714Y-115745714D01*
X134175714Y-115936190D02*
X134223333Y-115840952D01*
X134270952Y-115793333D01*
X134366190Y-115745714D01*
X134461428Y-115745714D01*
X135175714Y-116364761D02*
X135080476Y-116412380D01*
X134890000Y-116412380D01*
X134794761Y-116364761D01*
X134747142Y-116269523D01*
X134747142Y-115888571D01*
X134794761Y-115793333D01*
X134890000Y-115745714D01*
X135080476Y-115745714D01*
X135175714Y-115793333D01*
X135223333Y-115888571D01*
X135223333Y-115983809D01*
X134747142Y-116079047D01*
D11*
%TO.C,J3*%
X99223333Y-68941904D02*
X99223333Y-69513333D01*
X99185238Y-69627619D01*
X99109047Y-69703809D01*
X98994761Y-69741904D01*
X98918571Y-69741904D01*
X99528095Y-68941904D02*
X100023333Y-68941904D01*
X99756666Y-69246666D01*
X99870952Y-69246666D01*
X99947142Y-69284761D01*
X99985238Y-69322857D01*
X100023333Y-69399047D01*
X100023333Y-69589523D01*
X99985238Y-69665714D01*
X99947142Y-69703809D01*
X99870952Y-69741904D01*
X99642380Y-69741904D01*
X99566190Y-69703809D01*
X99528095Y-69665714D01*
%TO.C,R29*%
X186290714Y-107461904D02*
X186024047Y-107080952D01*
X185833571Y-107461904D02*
X185833571Y-106661904D01*
X186138333Y-106661904D01*
X186214523Y-106700000D01*
X186252619Y-106738095D01*
X186290714Y-106814285D01*
X186290714Y-106928571D01*
X186252619Y-107004761D01*
X186214523Y-107042857D01*
X186138333Y-107080952D01*
X185833571Y-107080952D01*
X186595476Y-106738095D02*
X186633571Y-106700000D01*
X186709761Y-106661904D01*
X186900238Y-106661904D01*
X186976428Y-106700000D01*
X187014523Y-106738095D01*
X187052619Y-106814285D01*
X187052619Y-106890476D01*
X187014523Y-107004761D01*
X186557380Y-107461904D01*
X187052619Y-107461904D01*
X187433571Y-107461904D02*
X187585952Y-107461904D01*
X187662142Y-107423809D01*
X187700238Y-107385714D01*
X187776428Y-107271428D01*
X187814523Y-107119047D01*
X187814523Y-106814285D01*
X187776428Y-106738095D01*
X187738333Y-106700000D01*
X187662142Y-106661904D01*
X187509761Y-106661904D01*
X187433571Y-106700000D01*
X187395476Y-106738095D01*
X187357380Y-106814285D01*
X187357380Y-107004761D01*
X187395476Y-107080952D01*
X187433571Y-107119047D01*
X187509761Y-107157142D01*
X187662142Y-107157142D01*
X187738333Y-107119047D01*
X187776428Y-107080952D01*
X187814523Y-107004761D01*
%TO.C,R30*%
X185136904Y-98339285D02*
X184755952Y-98605952D01*
X185136904Y-98796428D02*
X184336904Y-98796428D01*
X184336904Y-98491666D01*
X184375000Y-98415476D01*
X184413095Y-98377380D01*
X184489285Y-98339285D01*
X184603571Y-98339285D01*
X184679761Y-98377380D01*
X184717857Y-98415476D01*
X184755952Y-98491666D01*
X184755952Y-98796428D01*
X184336904Y-98072619D02*
X184336904Y-97577380D01*
X184641666Y-97844047D01*
X184641666Y-97729761D01*
X184679761Y-97653571D01*
X184717857Y-97615476D01*
X184794047Y-97577380D01*
X184984523Y-97577380D01*
X185060714Y-97615476D01*
X185098809Y-97653571D01*
X185136904Y-97729761D01*
X185136904Y-97958333D01*
X185098809Y-98034523D01*
X185060714Y-98072619D01*
X184336904Y-97082142D02*
X184336904Y-97005952D01*
X184375000Y-96929761D01*
X184413095Y-96891666D01*
X184489285Y-96853571D01*
X184641666Y-96815476D01*
X184832142Y-96815476D01*
X184984523Y-96853571D01*
X185060714Y-96891666D01*
X185098809Y-96929761D01*
X185136904Y-97005952D01*
X185136904Y-97082142D01*
X185098809Y-97158333D01*
X185060714Y-97196428D01*
X184984523Y-97234523D01*
X184832142Y-97272619D01*
X184641666Y-97272619D01*
X184489285Y-97234523D01*
X184413095Y-97196428D01*
X184375000Y-97158333D01*
X184336904Y-97082142D01*
%TO.C,D13*%
X218678571Y-82661904D02*
X218678571Y-81861904D01*
X218869047Y-81861904D01*
X218983333Y-81900000D01*
X219059523Y-81976190D01*
X219097619Y-82052380D01*
X219135714Y-82204761D01*
X219135714Y-82319047D01*
X219097619Y-82471428D01*
X219059523Y-82547619D01*
X218983333Y-82623809D01*
X218869047Y-82661904D01*
X218678571Y-82661904D01*
X219897619Y-82661904D02*
X219440476Y-82661904D01*
X219669047Y-82661904D02*
X219669047Y-81861904D01*
X219592857Y-81976190D01*
X219516666Y-82052380D01*
X219440476Y-82090476D01*
X220164285Y-81861904D02*
X220659523Y-81861904D01*
X220392857Y-82166666D01*
X220507142Y-82166666D01*
X220583333Y-82204761D01*
X220621428Y-82242857D01*
X220659523Y-82319047D01*
X220659523Y-82509523D01*
X220621428Y-82585714D01*
X220583333Y-82623809D01*
X220507142Y-82661904D01*
X220278571Y-82661904D01*
X220202380Y-82623809D01*
X220164285Y-82585714D01*
%TO.C,R2*%
X99416666Y-86236904D02*
X99150000Y-85855952D01*
X98959523Y-86236904D02*
X98959523Y-85436904D01*
X99264285Y-85436904D01*
X99340476Y-85475000D01*
X99378571Y-85513095D01*
X99416666Y-85589285D01*
X99416666Y-85703571D01*
X99378571Y-85779761D01*
X99340476Y-85817857D01*
X99264285Y-85855952D01*
X98959523Y-85855952D01*
X99721428Y-85513095D02*
X99759523Y-85475000D01*
X99835714Y-85436904D01*
X100026190Y-85436904D01*
X100102380Y-85475000D01*
X100140476Y-85513095D01*
X100178571Y-85589285D01*
X100178571Y-85665476D01*
X100140476Y-85779761D01*
X99683333Y-86236904D01*
X100178571Y-86236904D01*
%TO.C,J10*%
X160385880Y-68954404D02*
X160385880Y-69525833D01*
X160347785Y-69640119D01*
X160271595Y-69716309D01*
X160157309Y-69754404D01*
X160081119Y-69754404D01*
X161185880Y-69754404D02*
X160728738Y-69754404D01*
X160957309Y-69754404D02*
X160957309Y-68954404D01*
X160881119Y-69068690D01*
X160804928Y-69144880D01*
X160728738Y-69182976D01*
X161681119Y-68954404D02*
X161757309Y-68954404D01*
X161833500Y-68992500D01*
X161871595Y-69030595D01*
X161909690Y-69106785D01*
X161947785Y-69259166D01*
X161947785Y-69449642D01*
X161909690Y-69602023D01*
X161871595Y-69678214D01*
X161833500Y-69716309D01*
X161757309Y-69754404D01*
X161681119Y-69754404D01*
X161604928Y-69716309D01*
X161566833Y-69678214D01*
X161528738Y-69602023D01*
X161490642Y-69449642D01*
X161490642Y-69259166D01*
X161528738Y-69106785D01*
X161566833Y-69030595D01*
X161604928Y-68992500D01*
X161681119Y-68954404D01*
%TO.C,C17*%
X126585714Y-96410714D02*
X126547619Y-96448809D01*
X126433333Y-96486904D01*
X126357142Y-96486904D01*
X126242857Y-96448809D01*
X126166666Y-96372619D01*
X126128571Y-96296428D01*
X126090476Y-96144047D01*
X126090476Y-96029761D01*
X126128571Y-95877380D01*
X126166666Y-95801190D01*
X126242857Y-95725000D01*
X126357142Y-95686904D01*
X126433333Y-95686904D01*
X126547619Y-95725000D01*
X126585714Y-95763095D01*
X127347619Y-96486904D02*
X126890476Y-96486904D01*
X127119047Y-96486904D02*
X127119047Y-95686904D01*
X127042857Y-95801190D01*
X126966666Y-95877380D01*
X126890476Y-95915476D01*
X127614285Y-95686904D02*
X128147619Y-95686904D01*
X127804761Y-96486904D01*
%TO.C,D10*%
X160971904Y-99506428D02*
X160171904Y-99506428D01*
X160171904Y-99315952D01*
X160210000Y-99201666D01*
X160286190Y-99125476D01*
X160362380Y-99087380D01*
X160514761Y-99049285D01*
X160629047Y-99049285D01*
X160781428Y-99087380D01*
X160857619Y-99125476D01*
X160933809Y-99201666D01*
X160971904Y-99315952D01*
X160971904Y-99506428D01*
X160971904Y-98287380D02*
X160971904Y-98744523D01*
X160971904Y-98515952D02*
X160171904Y-98515952D01*
X160286190Y-98592142D01*
X160362380Y-98668333D01*
X160400476Y-98744523D01*
X160171904Y-97792142D02*
X160171904Y-97715952D01*
X160210000Y-97639761D01*
X160248095Y-97601666D01*
X160324285Y-97563571D01*
X160476666Y-97525476D01*
X160667142Y-97525476D01*
X160819523Y-97563571D01*
X160895714Y-97601666D01*
X160933809Y-97639761D01*
X160971904Y-97715952D01*
X160971904Y-97792142D01*
X160933809Y-97868333D01*
X160895714Y-97906428D01*
X160819523Y-97944523D01*
X160667142Y-97982619D01*
X160476666Y-97982619D01*
X160324285Y-97944523D01*
X160248095Y-97906428D01*
X160210000Y-97868333D01*
X160171904Y-97792142D01*
%TO.C,R28*%
X184261904Y-93514285D02*
X183880952Y-93780952D01*
X184261904Y-93971428D02*
X183461904Y-93971428D01*
X183461904Y-93666666D01*
X183500000Y-93590476D01*
X183538095Y-93552380D01*
X183614285Y-93514285D01*
X183728571Y-93514285D01*
X183804761Y-93552380D01*
X183842857Y-93590476D01*
X183880952Y-93666666D01*
X183880952Y-93971428D01*
X183538095Y-93209523D02*
X183500000Y-93171428D01*
X183461904Y-93095238D01*
X183461904Y-92904761D01*
X183500000Y-92828571D01*
X183538095Y-92790476D01*
X183614285Y-92752380D01*
X183690476Y-92752380D01*
X183804761Y-92790476D01*
X184261904Y-93247619D01*
X184261904Y-92752380D01*
X183804761Y-92295238D02*
X183766666Y-92371428D01*
X183728571Y-92409523D01*
X183652380Y-92447619D01*
X183614285Y-92447619D01*
X183538095Y-92409523D01*
X183500000Y-92371428D01*
X183461904Y-92295238D01*
X183461904Y-92142857D01*
X183500000Y-92066666D01*
X183538095Y-92028571D01*
X183614285Y-91990476D01*
X183652380Y-91990476D01*
X183728571Y-92028571D01*
X183766666Y-92066666D01*
X183804761Y-92142857D01*
X183804761Y-92295238D01*
X183842857Y-92371428D01*
X183880952Y-92409523D01*
X183957142Y-92447619D01*
X184109523Y-92447619D01*
X184185714Y-92409523D01*
X184223809Y-92371428D01*
X184261904Y-92295238D01*
X184261904Y-92142857D01*
X184223809Y-92066666D01*
X184185714Y-92028571D01*
X184109523Y-91990476D01*
X183957142Y-91990476D01*
X183880952Y-92028571D01*
X183842857Y-92066666D01*
X183804761Y-92142857D01*
%TO.C,J1*%
X90316904Y-85326666D02*
X90888333Y-85326666D01*
X91002619Y-85364761D01*
X91078809Y-85440952D01*
X91116904Y-85555238D01*
X91116904Y-85631428D01*
X91116904Y-84526666D02*
X91116904Y-84983809D01*
X91116904Y-84755238D02*
X90316904Y-84755238D01*
X90431190Y-84831428D01*
X90507380Y-84907619D01*
X90545476Y-84983809D01*
%TO.C,D6*%
X132486904Y-93640476D02*
X131686904Y-93640476D01*
X131686904Y-93450000D01*
X131725000Y-93335714D01*
X131801190Y-93259523D01*
X131877380Y-93221428D01*
X132029761Y-93183333D01*
X132144047Y-93183333D01*
X132296428Y-93221428D01*
X132372619Y-93259523D01*
X132448809Y-93335714D01*
X132486904Y-93450000D01*
X132486904Y-93640476D01*
X131686904Y-92497619D02*
X131686904Y-92650000D01*
X131725000Y-92726190D01*
X131763095Y-92764285D01*
X131877380Y-92840476D01*
X132029761Y-92878571D01*
X132334523Y-92878571D01*
X132410714Y-92840476D01*
X132448809Y-92802380D01*
X132486904Y-92726190D01*
X132486904Y-92573809D01*
X132448809Y-92497619D01*
X132410714Y-92459523D01*
X132334523Y-92421428D01*
X132144047Y-92421428D01*
X132067857Y-92459523D01*
X132029761Y-92497619D01*
X131991666Y-92573809D01*
X131991666Y-92726190D01*
X132029761Y-92802380D01*
X132067857Y-92840476D01*
X132144047Y-92878571D01*
%TO.C,C11*%
X100660714Y-101835714D02*
X100622619Y-101873809D01*
X100508333Y-101911904D01*
X100432142Y-101911904D01*
X100317857Y-101873809D01*
X100241666Y-101797619D01*
X100203571Y-101721428D01*
X100165476Y-101569047D01*
X100165476Y-101454761D01*
X100203571Y-101302380D01*
X100241666Y-101226190D01*
X100317857Y-101150000D01*
X100432142Y-101111904D01*
X100508333Y-101111904D01*
X100622619Y-101150000D01*
X100660714Y-101188095D01*
X101422619Y-101911904D02*
X100965476Y-101911904D01*
X101194047Y-101911904D02*
X101194047Y-101111904D01*
X101117857Y-101226190D01*
X101041666Y-101302380D01*
X100965476Y-101340476D01*
X102184523Y-101911904D02*
X101727380Y-101911904D01*
X101955952Y-101911904D02*
X101955952Y-101111904D01*
X101879761Y-101226190D01*
X101803571Y-101302380D01*
X101727380Y-101340476D01*
%TO.C,Q12*%
X194413095Y-92457142D02*
X194375000Y-92533333D01*
X194298809Y-92609523D01*
X194184523Y-92723809D01*
X194146428Y-92800000D01*
X194146428Y-92876190D01*
X194336904Y-92838095D02*
X194298809Y-92914285D01*
X194222619Y-92990476D01*
X194070238Y-93028571D01*
X193803571Y-93028571D01*
X193651190Y-92990476D01*
X193575000Y-92914285D01*
X193536904Y-92838095D01*
X193536904Y-92685714D01*
X193575000Y-92609523D01*
X193651190Y-92533333D01*
X193803571Y-92495238D01*
X194070238Y-92495238D01*
X194222619Y-92533333D01*
X194298809Y-92609523D01*
X194336904Y-92685714D01*
X194336904Y-92838095D01*
X194336904Y-91733333D02*
X194336904Y-92190476D01*
X194336904Y-91961904D02*
X193536904Y-91961904D01*
X193651190Y-92038095D01*
X193727380Y-92114285D01*
X193765476Y-92190476D01*
X193613095Y-91428571D02*
X193575000Y-91390476D01*
X193536904Y-91314285D01*
X193536904Y-91123809D01*
X193575000Y-91047619D01*
X193613095Y-91009523D01*
X193689285Y-90971428D01*
X193765476Y-90971428D01*
X193879761Y-91009523D01*
X194336904Y-91466666D01*
X194336904Y-90971428D01*
%TO.C,R46*%
X210261904Y-104514285D02*
X209880952Y-104780952D01*
X210261904Y-104971428D02*
X209461904Y-104971428D01*
X209461904Y-104666666D01*
X209500000Y-104590476D01*
X209538095Y-104552380D01*
X209614285Y-104514285D01*
X209728571Y-104514285D01*
X209804761Y-104552380D01*
X209842857Y-104590476D01*
X209880952Y-104666666D01*
X209880952Y-104971428D01*
X209728571Y-103828571D02*
X210261904Y-103828571D01*
X209423809Y-104019047D02*
X209995238Y-104209523D01*
X209995238Y-103714285D01*
X209461904Y-103066666D02*
X209461904Y-103219047D01*
X209500000Y-103295238D01*
X209538095Y-103333333D01*
X209652380Y-103409523D01*
X209804761Y-103447619D01*
X210109523Y-103447619D01*
X210185714Y-103409523D01*
X210223809Y-103371428D01*
X210261904Y-103295238D01*
X210261904Y-103142857D01*
X210223809Y-103066666D01*
X210185714Y-103028571D01*
X210109523Y-102990476D01*
X209919047Y-102990476D01*
X209842857Y-103028571D01*
X209804761Y-103066666D01*
X209766666Y-103142857D01*
X209766666Y-103295238D01*
X209804761Y-103371428D01*
X209842857Y-103409523D01*
X209919047Y-103447619D01*
%TO.C,J13*%
X180585880Y-68954404D02*
X180585880Y-69525833D01*
X180547785Y-69640119D01*
X180471595Y-69716309D01*
X180357309Y-69754404D01*
X180281119Y-69754404D01*
X181385880Y-69754404D02*
X180928738Y-69754404D01*
X181157309Y-69754404D02*
X181157309Y-68954404D01*
X181081119Y-69068690D01*
X181004928Y-69144880D01*
X180928738Y-69182976D01*
X181652547Y-68954404D02*
X182147785Y-68954404D01*
X181881119Y-69259166D01*
X181995404Y-69259166D01*
X182071595Y-69297261D01*
X182109690Y-69335357D01*
X182147785Y-69411547D01*
X182147785Y-69602023D01*
X182109690Y-69678214D01*
X182071595Y-69716309D01*
X181995404Y-69754404D01*
X181766833Y-69754404D01*
X181690642Y-69716309D01*
X181652547Y-69678214D01*
%TO.C,K2*%
X136041904Y-82620476D02*
X135241904Y-82620476D01*
X136041904Y-82163333D02*
X135584761Y-82506190D01*
X135241904Y-82163333D02*
X135699047Y-82620476D01*
X135318095Y-81858571D02*
X135280000Y-81820476D01*
X135241904Y-81744285D01*
X135241904Y-81553809D01*
X135280000Y-81477619D01*
X135318095Y-81439523D01*
X135394285Y-81401428D01*
X135470476Y-81401428D01*
X135584761Y-81439523D01*
X136041904Y-81896666D01*
X136041904Y-81401428D01*
%TO.C,K4*%
X177261904Y-82580476D02*
X176461904Y-82580476D01*
X177261904Y-82123333D02*
X176804761Y-82466190D01*
X176461904Y-82123333D02*
X176919047Y-82580476D01*
X176728571Y-81437619D02*
X177261904Y-81437619D01*
X176423809Y-81628095D02*
X176995238Y-81818571D01*
X176995238Y-81323333D01*
%TO.C,C15*%
X113310714Y-98414285D02*
X113348809Y-98452380D01*
X113386904Y-98566666D01*
X113386904Y-98642857D01*
X113348809Y-98757142D01*
X113272619Y-98833333D01*
X113196428Y-98871428D01*
X113044047Y-98909523D01*
X112929761Y-98909523D01*
X112777380Y-98871428D01*
X112701190Y-98833333D01*
X112625000Y-98757142D01*
X112586904Y-98642857D01*
X112586904Y-98566666D01*
X112625000Y-98452380D01*
X112663095Y-98414285D01*
X113386904Y-97652380D02*
X113386904Y-98109523D01*
X113386904Y-97880952D02*
X112586904Y-97880952D01*
X112701190Y-97957142D01*
X112777380Y-98033333D01*
X112815476Y-98109523D01*
X112586904Y-96928571D02*
X112586904Y-97309523D01*
X112967857Y-97347619D01*
X112929761Y-97309523D01*
X112891666Y-97233333D01*
X112891666Y-97042857D01*
X112929761Y-96966666D01*
X112967857Y-96928571D01*
X113044047Y-96890476D01*
X113234523Y-96890476D01*
X113310714Y-96928571D01*
X113348809Y-96966666D01*
X113386904Y-97042857D01*
X113386904Y-97233333D01*
X113348809Y-97309523D01*
X113310714Y-97347619D01*
%TO.C,C4*%
X94610714Y-103558333D02*
X94648809Y-103596428D01*
X94686904Y-103710714D01*
X94686904Y-103786904D01*
X94648809Y-103901190D01*
X94572619Y-103977380D01*
X94496428Y-104015476D01*
X94344047Y-104053571D01*
X94229761Y-104053571D01*
X94077380Y-104015476D01*
X94001190Y-103977380D01*
X93925000Y-103901190D01*
X93886904Y-103786904D01*
X93886904Y-103710714D01*
X93925000Y-103596428D01*
X93963095Y-103558333D01*
X94153571Y-102872619D02*
X94686904Y-102872619D01*
X93848809Y-103063095D02*
X94420238Y-103253571D01*
X94420238Y-102758333D01*
%TO.C,R20*%
X168061904Y-92504285D02*
X167680952Y-92770952D01*
X168061904Y-92961428D02*
X167261904Y-92961428D01*
X167261904Y-92656666D01*
X167300000Y-92580476D01*
X167338095Y-92542380D01*
X167414285Y-92504285D01*
X167528571Y-92504285D01*
X167604761Y-92542380D01*
X167642857Y-92580476D01*
X167680952Y-92656666D01*
X167680952Y-92961428D01*
X167338095Y-92199523D02*
X167300000Y-92161428D01*
X167261904Y-92085238D01*
X167261904Y-91894761D01*
X167300000Y-91818571D01*
X167338095Y-91780476D01*
X167414285Y-91742380D01*
X167490476Y-91742380D01*
X167604761Y-91780476D01*
X168061904Y-92237619D01*
X168061904Y-91742380D01*
X167261904Y-91247142D02*
X167261904Y-91170952D01*
X167300000Y-91094761D01*
X167338095Y-91056666D01*
X167414285Y-91018571D01*
X167566666Y-90980476D01*
X167757142Y-90980476D01*
X167909523Y-91018571D01*
X167985714Y-91056666D01*
X168023809Y-91094761D01*
X168061904Y-91170952D01*
X168061904Y-91247142D01*
X168023809Y-91323333D01*
X167985714Y-91361428D01*
X167909523Y-91399523D01*
X167757142Y-91437619D01*
X167566666Y-91437619D01*
X167414285Y-91399523D01*
X167338095Y-91361428D01*
X167300000Y-91323333D01*
X167261904Y-91247142D01*
%TO.C,J12*%
X181032380Y-108441904D02*
X181032380Y-109013333D01*
X180994285Y-109127619D01*
X180918095Y-109203809D01*
X180803809Y-109241904D01*
X180727619Y-109241904D01*
X181832380Y-109241904D02*
X181375238Y-109241904D01*
X181603809Y-109241904D02*
X181603809Y-108441904D01*
X181527619Y-108556190D01*
X181451428Y-108632380D01*
X181375238Y-108670476D01*
X182137142Y-108518095D02*
X182175238Y-108480000D01*
X182251428Y-108441904D01*
X182441904Y-108441904D01*
X182518095Y-108480000D01*
X182556190Y-108518095D01*
X182594285Y-108594285D01*
X182594285Y-108670476D01*
X182556190Y-108784761D01*
X182099047Y-109241904D01*
X182594285Y-109241904D01*
%TO.C,K6*%
X218561904Y-77488476D02*
X217761904Y-77488476D01*
X218561904Y-77031333D02*
X218104761Y-77374190D01*
X217761904Y-77031333D02*
X218219047Y-77488476D01*
X217761904Y-76345619D02*
X217761904Y-76498000D01*
X217800000Y-76574190D01*
X217838095Y-76612285D01*
X217952380Y-76688476D01*
X218104761Y-76726571D01*
X218409523Y-76726571D01*
X218485714Y-76688476D01*
X218523809Y-76650380D01*
X218561904Y-76574190D01*
X218561904Y-76421809D01*
X218523809Y-76345619D01*
X218485714Y-76307523D01*
X218409523Y-76269428D01*
X218219047Y-76269428D01*
X218142857Y-76307523D01*
X218104761Y-76345619D01*
X218066666Y-76421809D01*
X218066666Y-76574190D01*
X218104761Y-76650380D01*
X218142857Y-76688476D01*
X218219047Y-76726571D01*
%TO.C,R37*%
X197461904Y-92514285D02*
X197080952Y-92780952D01*
X197461904Y-92971428D02*
X196661904Y-92971428D01*
X196661904Y-92666666D01*
X196700000Y-92590476D01*
X196738095Y-92552380D01*
X196814285Y-92514285D01*
X196928571Y-92514285D01*
X197004761Y-92552380D01*
X197042857Y-92590476D01*
X197080952Y-92666666D01*
X197080952Y-92971428D01*
X196661904Y-92247619D02*
X196661904Y-91752380D01*
X196966666Y-92019047D01*
X196966666Y-91904761D01*
X197004761Y-91828571D01*
X197042857Y-91790476D01*
X197119047Y-91752380D01*
X197309523Y-91752380D01*
X197385714Y-91790476D01*
X197423809Y-91828571D01*
X197461904Y-91904761D01*
X197461904Y-92133333D01*
X197423809Y-92209523D01*
X197385714Y-92247619D01*
X196661904Y-91485714D02*
X196661904Y-90952380D01*
X197461904Y-91295238D01*
%TO.C,J7*%
X138008333Y-111861904D02*
X138008333Y-112433333D01*
X137970238Y-112547619D01*
X137894047Y-112623809D01*
X137779761Y-112661904D01*
X137703571Y-112661904D01*
X138313095Y-111861904D02*
X138846428Y-111861904D01*
X138503571Y-112661904D01*
%TO.C,R34*%
X189536904Y-92414285D02*
X189155952Y-92680952D01*
X189536904Y-92871428D02*
X188736904Y-92871428D01*
X188736904Y-92566666D01*
X188775000Y-92490476D01*
X188813095Y-92452380D01*
X188889285Y-92414285D01*
X189003571Y-92414285D01*
X189079761Y-92452380D01*
X189117857Y-92490476D01*
X189155952Y-92566666D01*
X189155952Y-92871428D01*
X188736904Y-92147619D02*
X188736904Y-91652380D01*
X189041666Y-91919047D01*
X189041666Y-91804761D01*
X189079761Y-91728571D01*
X189117857Y-91690476D01*
X189194047Y-91652380D01*
X189384523Y-91652380D01*
X189460714Y-91690476D01*
X189498809Y-91728571D01*
X189536904Y-91804761D01*
X189536904Y-92033333D01*
X189498809Y-92109523D01*
X189460714Y-92147619D01*
X189003571Y-90966666D02*
X189536904Y-90966666D01*
X188698809Y-91157142D02*
X189270238Y-91347619D01*
X189270238Y-90852380D01*
%TO.C,C2*%
X92891666Y-108490714D02*
X92853571Y-108528809D01*
X92739285Y-108566904D01*
X92663095Y-108566904D01*
X92548809Y-108528809D01*
X92472619Y-108452619D01*
X92434523Y-108376428D01*
X92396428Y-108224047D01*
X92396428Y-108109761D01*
X92434523Y-107957380D01*
X92472619Y-107881190D01*
X92548809Y-107805000D01*
X92663095Y-107766904D01*
X92739285Y-107766904D01*
X92853571Y-107805000D01*
X92891666Y-107843095D01*
X93196428Y-107843095D02*
X93234523Y-107805000D01*
X93310714Y-107766904D01*
X93501190Y-107766904D01*
X93577380Y-107805000D01*
X93615476Y-107843095D01*
X93653571Y-107919285D01*
X93653571Y-107995476D01*
X93615476Y-108109761D01*
X93158333Y-108566904D01*
X93653571Y-108566904D01*
%TO.C,C1*%
X84675714Y-108963333D02*
X84713809Y-109001428D01*
X84751904Y-109115714D01*
X84751904Y-109191904D01*
X84713809Y-109306190D01*
X84637619Y-109382380D01*
X84561428Y-109420476D01*
X84409047Y-109458571D01*
X84294761Y-109458571D01*
X84142380Y-109420476D01*
X84066190Y-109382380D01*
X83990000Y-109306190D01*
X83951904Y-109191904D01*
X83951904Y-109115714D01*
X83990000Y-109001428D01*
X84028095Y-108963333D01*
X84751904Y-108201428D02*
X84751904Y-108658571D01*
X84751904Y-108430000D02*
X83951904Y-108430000D01*
X84066190Y-108506190D01*
X84142380Y-108582380D01*
X84180476Y-108658571D01*
%TO.C,Q9*%
X180788095Y-92276190D02*
X180750000Y-92352380D01*
X180673809Y-92428571D01*
X180559523Y-92542857D01*
X180521428Y-92619047D01*
X180521428Y-92695238D01*
X180711904Y-92657142D02*
X180673809Y-92733333D01*
X180597619Y-92809523D01*
X180445238Y-92847619D01*
X180178571Y-92847619D01*
X180026190Y-92809523D01*
X179950000Y-92733333D01*
X179911904Y-92657142D01*
X179911904Y-92504761D01*
X179950000Y-92428571D01*
X180026190Y-92352380D01*
X180178571Y-92314285D01*
X180445238Y-92314285D01*
X180597619Y-92352380D01*
X180673809Y-92428571D01*
X180711904Y-92504761D01*
X180711904Y-92657142D01*
X180711904Y-91933333D02*
X180711904Y-91780952D01*
X180673809Y-91704761D01*
X180635714Y-91666666D01*
X180521428Y-91590476D01*
X180369047Y-91552380D01*
X180064285Y-91552380D01*
X179988095Y-91590476D01*
X179950000Y-91628571D01*
X179911904Y-91704761D01*
X179911904Y-91857142D01*
X179950000Y-91933333D01*
X179988095Y-91971428D01*
X180064285Y-92009523D01*
X180254761Y-92009523D01*
X180330952Y-91971428D01*
X180369047Y-91933333D01*
X180407142Y-91857142D01*
X180407142Y-91704761D01*
X180369047Y-91628571D01*
X180330952Y-91590476D01*
X180254761Y-91552380D01*
%TO.C,R51*%
X219961904Y-92614285D02*
X219580952Y-92880952D01*
X219961904Y-93071428D02*
X219161904Y-93071428D01*
X219161904Y-92766666D01*
X219200000Y-92690476D01*
X219238095Y-92652380D01*
X219314285Y-92614285D01*
X219428571Y-92614285D01*
X219504761Y-92652380D01*
X219542857Y-92690476D01*
X219580952Y-92766666D01*
X219580952Y-93071428D01*
X219161904Y-91890476D02*
X219161904Y-92271428D01*
X219542857Y-92309523D01*
X219504761Y-92271428D01*
X219466666Y-92195238D01*
X219466666Y-92004761D01*
X219504761Y-91928571D01*
X219542857Y-91890476D01*
X219619047Y-91852380D01*
X219809523Y-91852380D01*
X219885714Y-91890476D01*
X219923809Y-91928571D01*
X219961904Y-92004761D01*
X219961904Y-92195238D01*
X219923809Y-92271428D01*
X219885714Y-92309523D01*
X219961904Y-91090476D02*
X219961904Y-91547619D01*
X219961904Y-91319047D02*
X219161904Y-91319047D01*
X219276190Y-91395238D01*
X219352380Y-91471428D01*
X219390476Y-91547619D01*
%TO.C,R47*%
X210361904Y-97141785D02*
X209980952Y-97408452D01*
X210361904Y-97598928D02*
X209561904Y-97598928D01*
X209561904Y-97294166D01*
X209600000Y-97217976D01*
X209638095Y-97179880D01*
X209714285Y-97141785D01*
X209828571Y-97141785D01*
X209904761Y-97179880D01*
X209942857Y-97217976D01*
X209980952Y-97294166D01*
X209980952Y-97598928D01*
X209828571Y-96456071D02*
X210361904Y-96456071D01*
X209523809Y-96646547D02*
X210095238Y-96837023D01*
X210095238Y-96341785D01*
X209561904Y-96113214D02*
X209561904Y-95579880D01*
X210361904Y-95922738D01*
%TO.C,J6*%
X136671904Y-97966666D02*
X137243333Y-97966666D01*
X137357619Y-98004761D01*
X137433809Y-98080952D01*
X137471904Y-98195238D01*
X137471904Y-98271428D01*
X136671904Y-97242857D02*
X136671904Y-97395238D01*
X136710000Y-97471428D01*
X136748095Y-97509523D01*
X136862380Y-97585714D01*
X137014761Y-97623809D01*
X137319523Y-97623809D01*
X137395714Y-97585714D01*
X137433809Y-97547619D01*
X137471904Y-97471428D01*
X137471904Y-97319047D01*
X137433809Y-97242857D01*
X137395714Y-97204761D01*
X137319523Y-97166666D01*
X137129047Y-97166666D01*
X137052857Y-97204761D01*
X137014761Y-97242857D01*
X136976666Y-97319047D01*
X136976666Y-97471428D01*
X137014761Y-97547619D01*
X137052857Y-97585714D01*
X137129047Y-97623809D01*
%TO.C,K3*%
X156241904Y-82740476D02*
X155441904Y-82740476D01*
X156241904Y-82283333D02*
X155784761Y-82626190D01*
X155441904Y-82283333D02*
X155899047Y-82740476D01*
X155441904Y-82016666D02*
X155441904Y-81521428D01*
X155746666Y-81788095D01*
X155746666Y-81673809D01*
X155784761Y-81597619D01*
X155822857Y-81559523D01*
X155899047Y-81521428D01*
X156089523Y-81521428D01*
X156165714Y-81559523D01*
X156203809Y-81597619D01*
X156241904Y-81673809D01*
X156241904Y-81902380D01*
X156203809Y-81978571D01*
X156165714Y-82016666D01*
%TO.C,C14*%
X108510714Y-98835714D02*
X108472619Y-98873809D01*
X108358333Y-98911904D01*
X108282142Y-98911904D01*
X108167857Y-98873809D01*
X108091666Y-98797619D01*
X108053571Y-98721428D01*
X108015476Y-98569047D01*
X108015476Y-98454761D01*
X108053571Y-98302380D01*
X108091666Y-98226190D01*
X108167857Y-98150000D01*
X108282142Y-98111904D01*
X108358333Y-98111904D01*
X108472619Y-98150000D01*
X108510714Y-98188095D01*
X109272619Y-98911904D02*
X108815476Y-98911904D01*
X109044047Y-98911904D02*
X109044047Y-98111904D01*
X108967857Y-98226190D01*
X108891666Y-98302380D01*
X108815476Y-98340476D01*
X109958333Y-98378571D02*
X109958333Y-98911904D01*
X109767857Y-98073809D02*
X109577380Y-98645238D01*
X110072619Y-98645238D01*
%TO.C,R23*%
X176011904Y-92414285D02*
X175630952Y-92680952D01*
X176011904Y-92871428D02*
X175211904Y-92871428D01*
X175211904Y-92566666D01*
X175250000Y-92490476D01*
X175288095Y-92452380D01*
X175364285Y-92414285D01*
X175478571Y-92414285D01*
X175554761Y-92452380D01*
X175592857Y-92490476D01*
X175630952Y-92566666D01*
X175630952Y-92871428D01*
X175288095Y-92109523D02*
X175250000Y-92071428D01*
X175211904Y-91995238D01*
X175211904Y-91804761D01*
X175250000Y-91728571D01*
X175288095Y-91690476D01*
X175364285Y-91652380D01*
X175440476Y-91652380D01*
X175554761Y-91690476D01*
X176011904Y-92147619D01*
X176011904Y-91652380D01*
X175211904Y-91385714D02*
X175211904Y-90890476D01*
X175516666Y-91157142D01*
X175516666Y-91042857D01*
X175554761Y-90966666D01*
X175592857Y-90928571D01*
X175669047Y-90890476D01*
X175859523Y-90890476D01*
X175935714Y-90928571D01*
X175973809Y-90966666D01*
X176011904Y-91042857D01*
X176011904Y-91271428D01*
X175973809Y-91347619D01*
X175935714Y-91385714D01*
%TO.C,U6*%
X206061904Y-103209523D02*
X206709523Y-103209523D01*
X206785714Y-103171428D01*
X206823809Y-103133333D01*
X206861904Y-103057142D01*
X206861904Y-102904761D01*
X206823809Y-102828571D01*
X206785714Y-102790476D01*
X206709523Y-102752380D01*
X206061904Y-102752380D01*
X206061904Y-102028571D02*
X206061904Y-102180952D01*
X206100000Y-102257142D01*
X206138095Y-102295238D01*
X206252380Y-102371428D01*
X206404761Y-102409523D01*
X206709523Y-102409523D01*
X206785714Y-102371428D01*
X206823809Y-102333333D01*
X206861904Y-102257142D01*
X206861904Y-102104761D01*
X206823809Y-102028571D01*
X206785714Y-101990476D01*
X206709523Y-101952380D01*
X206519047Y-101952380D01*
X206442857Y-101990476D01*
X206404761Y-102028571D01*
X206366666Y-102104761D01*
X206366666Y-102257142D01*
X206404761Y-102333333D01*
X206442857Y-102371428D01*
X206519047Y-102409523D01*
%TO.C,Q5*%
X162823809Y-82838095D02*
X162747619Y-82800000D01*
X162671428Y-82723809D01*
X162557142Y-82609523D01*
X162480952Y-82571428D01*
X162404761Y-82571428D01*
X162442857Y-82761904D02*
X162366666Y-82723809D01*
X162290476Y-82647619D01*
X162252380Y-82495238D01*
X162252380Y-82228571D01*
X162290476Y-82076190D01*
X162366666Y-82000000D01*
X162442857Y-81961904D01*
X162595238Y-81961904D01*
X162671428Y-82000000D01*
X162747619Y-82076190D01*
X162785714Y-82228571D01*
X162785714Y-82495238D01*
X162747619Y-82647619D01*
X162671428Y-82723809D01*
X162595238Y-82761904D01*
X162442857Y-82761904D01*
X163509523Y-81961904D02*
X163128571Y-81961904D01*
X163090476Y-82342857D01*
X163128571Y-82304761D01*
X163204761Y-82266666D01*
X163395238Y-82266666D01*
X163471428Y-82304761D01*
X163509523Y-82342857D01*
X163547619Y-82419047D01*
X163547619Y-82609523D01*
X163509523Y-82685714D01*
X163471428Y-82723809D01*
X163395238Y-82761904D01*
X163204761Y-82761904D01*
X163128571Y-82723809D01*
X163090476Y-82685714D01*
%TO.C,FB1*%
X94517857Y-92566666D02*
X94517857Y-92833333D01*
X94936904Y-92833333D02*
X94136904Y-92833333D01*
X94136904Y-92452380D01*
X94517857Y-91880952D02*
X94555952Y-91766666D01*
X94594047Y-91728571D01*
X94670238Y-91690476D01*
X94784523Y-91690476D01*
X94860714Y-91728571D01*
X94898809Y-91766666D01*
X94936904Y-91842857D01*
X94936904Y-92147619D01*
X94136904Y-92147619D01*
X94136904Y-91880952D01*
X94175000Y-91804761D01*
X94213095Y-91766666D01*
X94289285Y-91728571D01*
X94365476Y-91728571D01*
X94441666Y-91766666D01*
X94479761Y-91804761D01*
X94517857Y-91880952D01*
X94517857Y-92147619D01*
X94936904Y-90928571D02*
X94936904Y-91385714D01*
X94936904Y-91157142D02*
X94136904Y-91157142D01*
X94251190Y-91233333D01*
X94327380Y-91309523D01*
X94365476Y-91385714D01*
%TO.C,R25*%
X181911904Y-92514285D02*
X181530952Y-92780952D01*
X181911904Y-92971428D02*
X181111904Y-92971428D01*
X181111904Y-92666666D01*
X181150000Y-92590476D01*
X181188095Y-92552380D01*
X181264285Y-92514285D01*
X181378571Y-92514285D01*
X181454761Y-92552380D01*
X181492857Y-92590476D01*
X181530952Y-92666666D01*
X181530952Y-92971428D01*
X181188095Y-92209523D02*
X181150000Y-92171428D01*
X181111904Y-92095238D01*
X181111904Y-91904761D01*
X181150000Y-91828571D01*
X181188095Y-91790476D01*
X181264285Y-91752380D01*
X181340476Y-91752380D01*
X181454761Y-91790476D01*
X181911904Y-92247619D01*
X181911904Y-91752380D01*
X181111904Y-91028571D02*
X181111904Y-91409523D01*
X181492857Y-91447619D01*
X181454761Y-91409523D01*
X181416666Y-91333333D01*
X181416666Y-91142857D01*
X181454761Y-91066666D01*
X181492857Y-91028571D01*
X181569047Y-90990476D01*
X181759523Y-90990476D01*
X181835714Y-91028571D01*
X181873809Y-91066666D01*
X181911904Y-91142857D01*
X181911904Y-91333333D01*
X181873809Y-91409523D01*
X181835714Y-91447619D01*
%TO.C,Q2*%
X103563809Y-90928095D02*
X103487619Y-90890000D01*
X103411428Y-90813809D01*
X103297142Y-90699523D01*
X103220952Y-90661428D01*
X103144761Y-90661428D01*
X103182857Y-90851904D02*
X103106666Y-90813809D01*
X103030476Y-90737619D01*
X102992380Y-90585238D01*
X102992380Y-90318571D01*
X103030476Y-90166190D01*
X103106666Y-90090000D01*
X103182857Y-90051904D01*
X103335238Y-90051904D01*
X103411428Y-90090000D01*
X103487619Y-90166190D01*
X103525714Y-90318571D01*
X103525714Y-90585238D01*
X103487619Y-90737619D01*
X103411428Y-90813809D01*
X103335238Y-90851904D01*
X103182857Y-90851904D01*
X103830476Y-90128095D02*
X103868571Y-90090000D01*
X103944761Y-90051904D01*
X104135238Y-90051904D01*
X104211428Y-90090000D01*
X104249523Y-90128095D01*
X104287619Y-90204285D01*
X104287619Y-90280476D01*
X104249523Y-90394761D01*
X103792380Y-90851904D01*
X104287619Y-90851904D01*
%TO.C,R16*%
X159604714Y-88261904D02*
X159338047Y-87880952D01*
X159147571Y-88261904D02*
X159147571Y-87461904D01*
X159452333Y-87461904D01*
X159528523Y-87500000D01*
X159566619Y-87538095D01*
X159604714Y-87614285D01*
X159604714Y-87728571D01*
X159566619Y-87804761D01*
X159528523Y-87842857D01*
X159452333Y-87880952D01*
X159147571Y-87880952D01*
X160366619Y-88261904D02*
X159909476Y-88261904D01*
X160138047Y-88261904D02*
X160138047Y-87461904D01*
X160061857Y-87576190D01*
X159985666Y-87652380D01*
X159909476Y-87690476D01*
X161052333Y-87461904D02*
X160899952Y-87461904D01*
X160823761Y-87500000D01*
X160785666Y-87538095D01*
X160709476Y-87652380D01*
X160671380Y-87804761D01*
X160671380Y-88109523D01*
X160709476Y-88185714D01*
X160747571Y-88223809D01*
X160823761Y-88261904D01*
X160976142Y-88261904D01*
X161052333Y-88223809D01*
X161090428Y-88185714D01*
X161128523Y-88109523D01*
X161128523Y-87919047D01*
X161090428Y-87842857D01*
X161052333Y-87804761D01*
X160976142Y-87766666D01*
X160823761Y-87766666D01*
X160747571Y-87804761D01*
X160709476Y-87842857D01*
X160671380Y-87919047D01*
%TO.C,Q14*%
X202238095Y-92457142D02*
X202200000Y-92533333D01*
X202123809Y-92609523D01*
X202009523Y-92723809D01*
X201971428Y-92800000D01*
X201971428Y-92876190D01*
X202161904Y-92838095D02*
X202123809Y-92914285D01*
X202047619Y-92990476D01*
X201895238Y-93028571D01*
X201628571Y-93028571D01*
X201476190Y-92990476D01*
X201400000Y-92914285D01*
X201361904Y-92838095D01*
X201361904Y-92685714D01*
X201400000Y-92609523D01*
X201476190Y-92533333D01*
X201628571Y-92495238D01*
X201895238Y-92495238D01*
X202047619Y-92533333D01*
X202123809Y-92609523D01*
X202161904Y-92685714D01*
X202161904Y-92838095D01*
X202161904Y-91733333D02*
X202161904Y-92190476D01*
X202161904Y-91961904D02*
X201361904Y-91961904D01*
X201476190Y-92038095D01*
X201552380Y-92114285D01*
X201590476Y-92190476D01*
X201628571Y-91047619D02*
X202161904Y-91047619D01*
X201323809Y-91238095D02*
X201895238Y-91428571D01*
X201895238Y-90933333D01*
%TO.C,R36*%
X195436904Y-92514285D02*
X195055952Y-92780952D01*
X195436904Y-92971428D02*
X194636904Y-92971428D01*
X194636904Y-92666666D01*
X194675000Y-92590476D01*
X194713095Y-92552380D01*
X194789285Y-92514285D01*
X194903571Y-92514285D01*
X194979761Y-92552380D01*
X195017857Y-92590476D01*
X195055952Y-92666666D01*
X195055952Y-92971428D01*
X194636904Y-92247619D02*
X194636904Y-91752380D01*
X194941666Y-92019047D01*
X194941666Y-91904761D01*
X194979761Y-91828571D01*
X195017857Y-91790476D01*
X195094047Y-91752380D01*
X195284523Y-91752380D01*
X195360714Y-91790476D01*
X195398809Y-91828571D01*
X195436904Y-91904761D01*
X195436904Y-92133333D01*
X195398809Y-92209523D01*
X195360714Y-92247619D01*
X194636904Y-91066666D02*
X194636904Y-91219047D01*
X194675000Y-91295238D01*
X194713095Y-91333333D01*
X194827380Y-91409523D01*
X194979761Y-91447619D01*
X195284523Y-91447619D01*
X195360714Y-91409523D01*
X195398809Y-91371428D01*
X195436904Y-91295238D01*
X195436904Y-91142857D01*
X195398809Y-91066666D01*
X195360714Y-91028571D01*
X195284523Y-90990476D01*
X195094047Y-90990476D01*
X195017857Y-91028571D01*
X194979761Y-91066666D01*
X194941666Y-91142857D01*
X194941666Y-91295238D01*
X194979761Y-91371428D01*
X195017857Y-91409523D01*
X195094047Y-91447619D01*
%TO.C,Q8*%
X175883809Y-109098095D02*
X175807619Y-109060000D01*
X175731428Y-108983809D01*
X175617142Y-108869523D01*
X175540952Y-108831428D01*
X175464761Y-108831428D01*
X175502857Y-109021904D02*
X175426666Y-108983809D01*
X175350476Y-108907619D01*
X175312380Y-108755238D01*
X175312380Y-108488571D01*
X175350476Y-108336190D01*
X175426666Y-108260000D01*
X175502857Y-108221904D01*
X175655238Y-108221904D01*
X175731428Y-108260000D01*
X175807619Y-108336190D01*
X175845714Y-108488571D01*
X175845714Y-108755238D01*
X175807619Y-108907619D01*
X175731428Y-108983809D01*
X175655238Y-109021904D01*
X175502857Y-109021904D01*
X176302857Y-108564761D02*
X176226666Y-108526666D01*
X176188571Y-108488571D01*
X176150476Y-108412380D01*
X176150476Y-108374285D01*
X176188571Y-108298095D01*
X176226666Y-108260000D01*
X176302857Y-108221904D01*
X176455238Y-108221904D01*
X176531428Y-108260000D01*
X176569523Y-108298095D01*
X176607619Y-108374285D01*
X176607619Y-108412380D01*
X176569523Y-108488571D01*
X176531428Y-108526666D01*
X176455238Y-108564761D01*
X176302857Y-108564761D01*
X176226666Y-108602857D01*
X176188571Y-108640952D01*
X176150476Y-108717142D01*
X176150476Y-108869523D01*
X176188571Y-108945714D01*
X176226666Y-108983809D01*
X176302857Y-109021904D01*
X176455238Y-109021904D01*
X176531428Y-108983809D01*
X176569523Y-108945714D01*
X176607619Y-108869523D01*
X176607619Y-108717142D01*
X176569523Y-108640952D01*
X176531428Y-108602857D01*
X176455238Y-108564761D01*
%TO.C,D12*%
X198228571Y-82761904D02*
X198228571Y-81961904D01*
X198419047Y-81961904D01*
X198533333Y-82000000D01*
X198609523Y-82076190D01*
X198647619Y-82152380D01*
X198685714Y-82304761D01*
X198685714Y-82419047D01*
X198647619Y-82571428D01*
X198609523Y-82647619D01*
X198533333Y-82723809D01*
X198419047Y-82761904D01*
X198228571Y-82761904D01*
X199447619Y-82761904D02*
X198990476Y-82761904D01*
X199219047Y-82761904D02*
X199219047Y-81961904D01*
X199142857Y-82076190D01*
X199066666Y-82152380D01*
X198990476Y-82190476D01*
X199752380Y-82038095D02*
X199790476Y-82000000D01*
X199866666Y-81961904D01*
X200057142Y-81961904D01*
X200133333Y-82000000D01*
X200171428Y-82038095D01*
X200209523Y-82114285D01*
X200209523Y-82190476D01*
X200171428Y-82304761D01*
X199714285Y-82761904D01*
X200209523Y-82761904D01*
%TO.C,D1*%
X98009523Y-92236904D02*
X98009523Y-91436904D01*
X98200000Y-91436904D01*
X98314285Y-91475000D01*
X98390476Y-91551190D01*
X98428571Y-91627380D01*
X98466666Y-91779761D01*
X98466666Y-91894047D01*
X98428571Y-92046428D01*
X98390476Y-92122619D01*
X98314285Y-92198809D01*
X98200000Y-92236904D01*
X98009523Y-92236904D01*
X99228571Y-92236904D02*
X98771428Y-92236904D01*
X99000000Y-92236904D02*
X99000000Y-91436904D01*
X98923809Y-91551190D01*
X98847619Y-91627380D01*
X98771428Y-91665476D01*
%TO.C,U3*%
X123215476Y-106836904D02*
X123215476Y-107484523D01*
X123253571Y-107560714D01*
X123291666Y-107598809D01*
X123367857Y-107636904D01*
X123520238Y-107636904D01*
X123596428Y-107598809D01*
X123634523Y-107560714D01*
X123672619Y-107484523D01*
X123672619Y-106836904D01*
X123977380Y-106836904D02*
X124472619Y-106836904D01*
X124205952Y-107141666D01*
X124320238Y-107141666D01*
X124396428Y-107179761D01*
X124434523Y-107217857D01*
X124472619Y-107294047D01*
X124472619Y-107484523D01*
X124434523Y-107560714D01*
X124396428Y-107598809D01*
X124320238Y-107636904D01*
X124091666Y-107636904D01*
X124015476Y-107598809D01*
X123977380Y-107560714D01*
%TO.C,R44*%
X209261904Y-98414285D02*
X208880952Y-98680952D01*
X209261904Y-98871428D02*
X208461904Y-98871428D01*
X208461904Y-98566666D01*
X208500000Y-98490476D01*
X208538095Y-98452380D01*
X208614285Y-98414285D01*
X208728571Y-98414285D01*
X208804761Y-98452380D01*
X208842857Y-98490476D01*
X208880952Y-98566666D01*
X208880952Y-98871428D01*
X208728571Y-97728571D02*
X209261904Y-97728571D01*
X208423809Y-97919047D02*
X208995238Y-98109523D01*
X208995238Y-97614285D01*
X208728571Y-96966666D02*
X209261904Y-96966666D01*
X208423809Y-97157142D02*
X208995238Y-97347619D01*
X208995238Y-96852380D01*
%TO.C,SW1*%
X163228809Y-94241666D02*
X163266904Y-94127380D01*
X163266904Y-93936904D01*
X163228809Y-93860714D01*
X163190714Y-93822619D01*
X163114523Y-93784523D01*
X163038333Y-93784523D01*
X162962142Y-93822619D01*
X162924047Y-93860714D01*
X162885952Y-93936904D01*
X162847857Y-94089285D01*
X162809761Y-94165476D01*
X162771666Y-94203571D01*
X162695476Y-94241666D01*
X162619285Y-94241666D01*
X162543095Y-94203571D01*
X162505000Y-94165476D01*
X162466904Y-94089285D01*
X162466904Y-93898809D01*
X162505000Y-93784523D01*
X162466904Y-93517857D02*
X163266904Y-93327380D01*
X162695476Y-93175000D01*
X163266904Y-93022619D01*
X162466904Y-92832142D01*
X163266904Y-92108333D02*
X163266904Y-92565476D01*
X163266904Y-92336904D02*
X162466904Y-92336904D01*
X162581190Y-92413095D01*
X162657380Y-92489285D01*
X162695476Y-92565476D01*
%TO.C,D7*%
X137309523Y-82761904D02*
X137309523Y-81961904D01*
X137500000Y-81961904D01*
X137614285Y-82000000D01*
X137690476Y-82076190D01*
X137728571Y-82152380D01*
X137766666Y-82304761D01*
X137766666Y-82419047D01*
X137728571Y-82571428D01*
X137690476Y-82647619D01*
X137614285Y-82723809D01*
X137500000Y-82761904D01*
X137309523Y-82761904D01*
X138033333Y-81961904D02*
X138566666Y-81961904D01*
X138223809Y-82761904D01*
D10*
%TO.C,BT1*%
X107689285Y-99953571D02*
X107832142Y-100001190D01*
X107879761Y-100048809D01*
X107927380Y-100144047D01*
X107927380Y-100286904D01*
X107879761Y-100382142D01*
X107832142Y-100429761D01*
X107736904Y-100477380D01*
X107355952Y-100477380D01*
X107355952Y-99477380D01*
X107689285Y-99477380D01*
X107784523Y-99525000D01*
X107832142Y-99572619D01*
X107879761Y-99667857D01*
X107879761Y-99763095D01*
X107832142Y-99858333D01*
X107784523Y-99905952D01*
X107689285Y-99953571D01*
X107355952Y-99953571D01*
X108213095Y-99477380D02*
X108784523Y-99477380D01*
X108498809Y-100477380D02*
X108498809Y-99477380D01*
X109641666Y-100477380D02*
X109070238Y-100477380D01*
X109355952Y-100477380D02*
X109355952Y-99477380D01*
X109260714Y-99620238D01*
X109165476Y-99715476D01*
X109070238Y-99763095D01*
D11*
%TO.C,U5*%
X184361904Y-103209523D02*
X185009523Y-103209523D01*
X185085714Y-103171428D01*
X185123809Y-103133333D01*
X185161904Y-103057142D01*
X185161904Y-102904761D01*
X185123809Y-102828571D01*
X185085714Y-102790476D01*
X185009523Y-102752380D01*
X184361904Y-102752380D01*
X184361904Y-101990476D02*
X184361904Y-102371428D01*
X184742857Y-102409523D01*
X184704761Y-102371428D01*
X184666666Y-102295238D01*
X184666666Y-102104761D01*
X184704761Y-102028571D01*
X184742857Y-101990476D01*
X184819047Y-101952380D01*
X185009523Y-101952380D01*
X185085714Y-101990476D01*
X185123809Y-102028571D01*
X185161904Y-102104761D01*
X185161904Y-102295238D01*
X185123809Y-102371428D01*
X185085714Y-102409523D01*
%TO.C,D8*%
X157609523Y-82761904D02*
X157609523Y-81961904D01*
X157800000Y-81961904D01*
X157914285Y-82000000D01*
X157990476Y-82076190D01*
X158028571Y-82152380D01*
X158066666Y-82304761D01*
X158066666Y-82419047D01*
X158028571Y-82571428D01*
X157990476Y-82647619D01*
X157914285Y-82723809D01*
X157800000Y-82761904D01*
X157609523Y-82761904D01*
X158523809Y-82304761D02*
X158447619Y-82266666D01*
X158409523Y-82228571D01*
X158371428Y-82152380D01*
X158371428Y-82114285D01*
X158409523Y-82038095D01*
X158447619Y-82000000D01*
X158523809Y-81961904D01*
X158676190Y-81961904D01*
X158752380Y-82000000D01*
X158790476Y-82038095D01*
X158828571Y-82114285D01*
X158828571Y-82152380D01*
X158790476Y-82228571D01*
X158752380Y-82266666D01*
X158676190Y-82304761D01*
X158523809Y-82304761D01*
X158447619Y-82342857D01*
X158409523Y-82380952D01*
X158371428Y-82457142D01*
X158371428Y-82609523D01*
X158409523Y-82685714D01*
X158447619Y-82723809D01*
X158523809Y-82761904D01*
X158676190Y-82761904D01*
X158752380Y-82723809D01*
X158790476Y-82685714D01*
X158828571Y-82609523D01*
X158828571Y-82457142D01*
X158790476Y-82380952D01*
X158752380Y-82342857D01*
X158676190Y-82304761D01*
%TO.C,R49*%
X213510714Y-91356904D02*
X213244047Y-90975952D01*
X213053571Y-91356904D02*
X213053571Y-90556904D01*
X213358333Y-90556904D01*
X213434523Y-90595000D01*
X213472619Y-90633095D01*
X213510714Y-90709285D01*
X213510714Y-90823571D01*
X213472619Y-90899761D01*
X213434523Y-90937857D01*
X213358333Y-90975952D01*
X213053571Y-90975952D01*
X214196428Y-90823571D02*
X214196428Y-91356904D01*
X214005952Y-90518809D02*
X213815476Y-91090238D01*
X214310714Y-91090238D01*
X214653571Y-91356904D02*
X214805952Y-91356904D01*
X214882142Y-91318809D01*
X214920238Y-91280714D01*
X214996428Y-91166428D01*
X215034523Y-91014047D01*
X215034523Y-90709285D01*
X214996428Y-90633095D01*
X214958333Y-90595000D01*
X214882142Y-90556904D01*
X214729761Y-90556904D01*
X214653571Y-90595000D01*
X214615476Y-90633095D01*
X214577380Y-90709285D01*
X214577380Y-90899761D01*
X214615476Y-90975952D01*
X214653571Y-91014047D01*
X214729761Y-91052142D01*
X214882142Y-91052142D01*
X214958333Y-91014047D01*
X214996428Y-90975952D01*
X215034523Y-90899761D01*
%TO.C,J16*%
X200869880Y-68954404D02*
X200869880Y-69525833D01*
X200831785Y-69640119D01*
X200755595Y-69716309D01*
X200641309Y-69754404D01*
X200565119Y-69754404D01*
X201669880Y-69754404D02*
X201212738Y-69754404D01*
X201441309Y-69754404D02*
X201441309Y-68954404D01*
X201365119Y-69068690D01*
X201288928Y-69144880D01*
X201212738Y-69182976D01*
X202355595Y-68954404D02*
X202203214Y-68954404D01*
X202127023Y-68992500D01*
X202088928Y-69030595D01*
X202012738Y-69144880D01*
X201974642Y-69297261D01*
X201974642Y-69602023D01*
X202012738Y-69678214D01*
X202050833Y-69716309D01*
X202127023Y-69754404D01*
X202279404Y-69754404D01*
X202355595Y-69716309D01*
X202393690Y-69678214D01*
X202431785Y-69602023D01*
X202431785Y-69411547D01*
X202393690Y-69335357D01*
X202355595Y-69297261D01*
X202279404Y-69259166D01*
X202127023Y-69259166D01*
X202050833Y-69297261D01*
X202012738Y-69335357D01*
X201974642Y-69411547D01*
%TO.C,R14*%
X138804714Y-88261904D02*
X138538047Y-87880952D01*
X138347571Y-88261904D02*
X138347571Y-87461904D01*
X138652333Y-87461904D01*
X138728523Y-87500000D01*
X138766619Y-87538095D01*
X138804714Y-87614285D01*
X138804714Y-87728571D01*
X138766619Y-87804761D01*
X138728523Y-87842857D01*
X138652333Y-87880952D01*
X138347571Y-87880952D01*
X139566619Y-88261904D02*
X139109476Y-88261904D01*
X139338047Y-88261904D02*
X139338047Y-87461904D01*
X139261857Y-87576190D01*
X139185666Y-87652380D01*
X139109476Y-87690476D01*
X140252333Y-87728571D02*
X140252333Y-88261904D01*
X140061857Y-87423809D02*
X139871380Y-87995238D01*
X140366619Y-87995238D01*
%TO.C,U2*%
X106990476Y-90261904D02*
X106990476Y-90909523D01*
X107028571Y-90985714D01*
X107066666Y-91023809D01*
X107142857Y-91061904D01*
X107295238Y-91061904D01*
X107371428Y-91023809D01*
X107409523Y-90985714D01*
X107447619Y-90909523D01*
X107447619Y-90261904D01*
X107790476Y-90338095D02*
X107828571Y-90300000D01*
X107904761Y-90261904D01*
X108095238Y-90261904D01*
X108171428Y-90300000D01*
X108209523Y-90338095D01*
X108247619Y-90414285D01*
X108247619Y-90490476D01*
X108209523Y-90604761D01*
X107752380Y-91061904D01*
X108247619Y-91061904D01*
%TO.C,R39*%
X203461904Y-92514285D02*
X203080952Y-92780952D01*
X203461904Y-92971428D02*
X202661904Y-92971428D01*
X202661904Y-92666666D01*
X202700000Y-92590476D01*
X202738095Y-92552380D01*
X202814285Y-92514285D01*
X202928571Y-92514285D01*
X203004761Y-92552380D01*
X203042857Y-92590476D01*
X203080952Y-92666666D01*
X203080952Y-92971428D01*
X202661904Y-92247619D02*
X202661904Y-91752380D01*
X202966666Y-92019047D01*
X202966666Y-91904761D01*
X203004761Y-91828571D01*
X203042857Y-91790476D01*
X203119047Y-91752380D01*
X203309523Y-91752380D01*
X203385714Y-91790476D01*
X203423809Y-91828571D01*
X203461904Y-91904761D01*
X203461904Y-92133333D01*
X203423809Y-92209523D01*
X203385714Y-92247619D01*
X203461904Y-91371428D02*
X203461904Y-91219047D01*
X203423809Y-91142857D01*
X203385714Y-91104761D01*
X203271428Y-91028571D01*
X203119047Y-90990476D01*
X202814285Y-90990476D01*
X202738095Y-91028571D01*
X202700000Y-91066666D01*
X202661904Y-91142857D01*
X202661904Y-91295238D01*
X202700000Y-91371428D01*
X202738095Y-91409523D01*
X202814285Y-91447619D01*
X203004761Y-91447619D01*
X203080952Y-91409523D01*
X203119047Y-91371428D01*
X203157142Y-91295238D01*
X203157142Y-91142857D01*
X203119047Y-91066666D01*
X203080952Y-91028571D01*
X203004761Y-90990476D01*
%TO.C,R53*%
X220585714Y-88161904D02*
X220319047Y-87780952D01*
X220128571Y-88161904D02*
X220128571Y-87361904D01*
X220433333Y-87361904D01*
X220509523Y-87400000D01*
X220547619Y-87438095D01*
X220585714Y-87514285D01*
X220585714Y-87628571D01*
X220547619Y-87704761D01*
X220509523Y-87742857D01*
X220433333Y-87780952D01*
X220128571Y-87780952D01*
X221309523Y-87361904D02*
X220928571Y-87361904D01*
X220890476Y-87742857D01*
X220928571Y-87704761D01*
X221004761Y-87666666D01*
X221195238Y-87666666D01*
X221271428Y-87704761D01*
X221309523Y-87742857D01*
X221347619Y-87819047D01*
X221347619Y-88009523D01*
X221309523Y-88085714D01*
X221271428Y-88123809D01*
X221195238Y-88161904D01*
X221004761Y-88161904D01*
X220928571Y-88123809D01*
X220890476Y-88085714D01*
X221614285Y-87361904D02*
X222109523Y-87361904D01*
X221842857Y-87666666D01*
X221957142Y-87666666D01*
X222033333Y-87704761D01*
X222071428Y-87742857D01*
X222109523Y-87819047D01*
X222109523Y-88009523D01*
X222071428Y-88085714D01*
X222033333Y-88123809D01*
X221957142Y-88161904D01*
X221728571Y-88161904D01*
X221652380Y-88123809D01*
X221614285Y-88085714D01*
%TO.C,R15*%
X164111904Y-99921785D02*
X163730952Y-100188452D01*
X164111904Y-100378928D02*
X163311904Y-100378928D01*
X163311904Y-100074166D01*
X163350000Y-99997976D01*
X163388095Y-99959880D01*
X163464285Y-99921785D01*
X163578571Y-99921785D01*
X163654761Y-99959880D01*
X163692857Y-99997976D01*
X163730952Y-100074166D01*
X163730952Y-100378928D01*
X164111904Y-99159880D02*
X164111904Y-99617023D01*
X164111904Y-99388452D02*
X163311904Y-99388452D01*
X163426190Y-99464642D01*
X163502380Y-99540833D01*
X163540476Y-99617023D01*
X163311904Y-98436071D02*
X163311904Y-98817023D01*
X163692857Y-98855119D01*
X163654761Y-98817023D01*
X163616666Y-98740833D01*
X163616666Y-98550357D01*
X163654761Y-98474166D01*
X163692857Y-98436071D01*
X163769047Y-98397976D01*
X163959523Y-98397976D01*
X164035714Y-98436071D01*
X164073809Y-98474166D01*
X164111904Y-98550357D01*
X164111904Y-98740833D01*
X164073809Y-98817023D01*
X164035714Y-98855119D01*
%TO.C,R3*%
X100636904Y-93408333D02*
X100255952Y-93675000D01*
X100636904Y-93865476D02*
X99836904Y-93865476D01*
X99836904Y-93560714D01*
X99875000Y-93484523D01*
X99913095Y-93446428D01*
X99989285Y-93408333D01*
X100103571Y-93408333D01*
X100179761Y-93446428D01*
X100217857Y-93484523D01*
X100255952Y-93560714D01*
X100255952Y-93865476D01*
X99836904Y-93141666D02*
X99836904Y-92646428D01*
X100141666Y-92913095D01*
X100141666Y-92798809D01*
X100179761Y-92722619D01*
X100217857Y-92684523D01*
X100294047Y-92646428D01*
X100484523Y-92646428D01*
X100560714Y-92684523D01*
X100598809Y-92722619D01*
X100636904Y-92798809D01*
X100636904Y-93027380D01*
X100598809Y-93103571D01*
X100560714Y-93141666D01*
%TO.C,R27*%
X183161904Y-98339285D02*
X182780952Y-98605952D01*
X183161904Y-98796428D02*
X182361904Y-98796428D01*
X182361904Y-98491666D01*
X182400000Y-98415476D01*
X182438095Y-98377380D01*
X182514285Y-98339285D01*
X182628571Y-98339285D01*
X182704761Y-98377380D01*
X182742857Y-98415476D01*
X182780952Y-98491666D01*
X182780952Y-98796428D01*
X182438095Y-98034523D02*
X182400000Y-97996428D01*
X182361904Y-97920238D01*
X182361904Y-97729761D01*
X182400000Y-97653571D01*
X182438095Y-97615476D01*
X182514285Y-97577380D01*
X182590476Y-97577380D01*
X182704761Y-97615476D01*
X183161904Y-98072619D01*
X183161904Y-97577380D01*
X182361904Y-97310714D02*
X182361904Y-96777380D01*
X183161904Y-97120238D01*
%TO.C,F2*%
X92342857Y-93666666D02*
X92342857Y-93933333D01*
X92761904Y-93933333D02*
X91961904Y-93933333D01*
X91961904Y-93552380D01*
X92038095Y-93285714D02*
X92000000Y-93247619D01*
X91961904Y-93171428D01*
X91961904Y-92980952D01*
X92000000Y-92904761D01*
X92038095Y-92866666D01*
X92114285Y-92828571D01*
X92190476Y-92828571D01*
X92304761Y-92866666D01*
X92761904Y-93323809D01*
X92761904Y-92828571D01*
%TO.C,R54*%
X226161904Y-92614285D02*
X225780952Y-92880952D01*
X226161904Y-93071428D02*
X225361904Y-93071428D01*
X225361904Y-92766666D01*
X225400000Y-92690476D01*
X225438095Y-92652380D01*
X225514285Y-92614285D01*
X225628571Y-92614285D01*
X225704761Y-92652380D01*
X225742857Y-92690476D01*
X225780952Y-92766666D01*
X225780952Y-93071428D01*
X225361904Y-91890476D02*
X225361904Y-92271428D01*
X225742857Y-92309523D01*
X225704761Y-92271428D01*
X225666666Y-92195238D01*
X225666666Y-92004761D01*
X225704761Y-91928571D01*
X225742857Y-91890476D01*
X225819047Y-91852380D01*
X226009523Y-91852380D01*
X226085714Y-91890476D01*
X226123809Y-91928571D01*
X226161904Y-92004761D01*
X226161904Y-92195238D01*
X226123809Y-92271428D01*
X226085714Y-92309523D01*
X225628571Y-91166666D02*
X226161904Y-91166666D01*
X225323809Y-91357142D02*
X225895238Y-91547619D01*
X225895238Y-91052380D01*
%TO.C,R9*%
X128236904Y-114133333D02*
X127855952Y-114400000D01*
X128236904Y-114590476D02*
X127436904Y-114590476D01*
X127436904Y-114285714D01*
X127475000Y-114209523D01*
X127513095Y-114171428D01*
X127589285Y-114133333D01*
X127703571Y-114133333D01*
X127779761Y-114171428D01*
X127817857Y-114209523D01*
X127855952Y-114285714D01*
X127855952Y-114590476D01*
X128236904Y-113752380D02*
X128236904Y-113600000D01*
X128198809Y-113523809D01*
X128160714Y-113485714D01*
X128046428Y-113409523D01*
X127894047Y-113371428D01*
X127589285Y-113371428D01*
X127513095Y-113409523D01*
X127475000Y-113447619D01*
X127436904Y-113523809D01*
X127436904Y-113676190D01*
X127475000Y-113752380D01*
X127513095Y-113790476D01*
X127589285Y-113828571D01*
X127779761Y-113828571D01*
X127855952Y-113790476D01*
X127894047Y-113752380D01*
X127932142Y-113676190D01*
X127932142Y-113523809D01*
X127894047Y-113447619D01*
X127855952Y-113409523D01*
X127779761Y-113371428D01*
%TO.C,R6*%
X122916666Y-104211904D02*
X122650000Y-103830952D01*
X122459523Y-104211904D02*
X122459523Y-103411904D01*
X122764285Y-103411904D01*
X122840476Y-103450000D01*
X122878571Y-103488095D01*
X122916666Y-103564285D01*
X122916666Y-103678571D01*
X122878571Y-103754761D01*
X122840476Y-103792857D01*
X122764285Y-103830952D01*
X122459523Y-103830952D01*
X123602380Y-103411904D02*
X123450000Y-103411904D01*
X123373809Y-103450000D01*
X123335714Y-103488095D01*
X123259523Y-103602380D01*
X123221428Y-103754761D01*
X123221428Y-104059523D01*
X123259523Y-104135714D01*
X123297619Y-104173809D01*
X123373809Y-104211904D01*
X123526190Y-104211904D01*
X123602380Y-104173809D01*
X123640476Y-104135714D01*
X123678571Y-104059523D01*
X123678571Y-103869047D01*
X123640476Y-103792857D01*
X123602380Y-103754761D01*
X123526190Y-103716666D01*
X123373809Y-103716666D01*
X123297619Y-103754761D01*
X123259523Y-103792857D01*
X123221428Y-103869047D01*
%TO.C,Q19*%
X224738095Y-92457142D02*
X224700000Y-92533333D01*
X224623809Y-92609523D01*
X224509523Y-92723809D01*
X224471428Y-92800000D01*
X224471428Y-92876190D01*
X224661904Y-92838095D02*
X224623809Y-92914285D01*
X224547619Y-92990476D01*
X224395238Y-93028571D01*
X224128571Y-93028571D01*
X223976190Y-92990476D01*
X223900000Y-92914285D01*
X223861904Y-92838095D01*
X223861904Y-92685714D01*
X223900000Y-92609523D01*
X223976190Y-92533333D01*
X224128571Y-92495238D01*
X224395238Y-92495238D01*
X224547619Y-92533333D01*
X224623809Y-92609523D01*
X224661904Y-92685714D01*
X224661904Y-92838095D01*
X224661904Y-91733333D02*
X224661904Y-92190476D01*
X224661904Y-91961904D02*
X223861904Y-91961904D01*
X223976190Y-92038095D01*
X224052380Y-92114285D01*
X224090476Y-92190476D01*
X224661904Y-91352380D02*
X224661904Y-91200000D01*
X224623809Y-91123809D01*
X224585714Y-91085714D01*
X224471428Y-91009523D01*
X224319047Y-90971428D01*
X224014285Y-90971428D01*
X223938095Y-91009523D01*
X223900000Y-91047619D01*
X223861904Y-91123809D01*
X223861904Y-91276190D01*
X223900000Y-91352380D01*
X223938095Y-91390476D01*
X224014285Y-91428571D01*
X224204761Y-91428571D01*
X224280952Y-91390476D01*
X224319047Y-91352380D01*
X224357142Y-91276190D01*
X224357142Y-91123809D01*
X224319047Y-91047619D01*
X224280952Y-91009523D01*
X224204761Y-90971428D01*
%TO.C,K1*%
X115681904Y-82390476D02*
X114881904Y-82390476D01*
X115681904Y-81933333D02*
X115224761Y-82276190D01*
X114881904Y-81933333D02*
X115339047Y-82390476D01*
X115681904Y-81171428D02*
X115681904Y-81628571D01*
X115681904Y-81400000D02*
X114881904Y-81400000D01*
X114996190Y-81476190D01*
X115072380Y-81552380D01*
X115110476Y-81628571D01*
%TO.C,R22*%
X174036904Y-92614285D02*
X173655952Y-92880952D01*
X174036904Y-93071428D02*
X173236904Y-93071428D01*
X173236904Y-92766666D01*
X173275000Y-92690476D01*
X173313095Y-92652380D01*
X173389285Y-92614285D01*
X173503571Y-92614285D01*
X173579761Y-92652380D01*
X173617857Y-92690476D01*
X173655952Y-92766666D01*
X173655952Y-93071428D01*
X173313095Y-92309523D02*
X173275000Y-92271428D01*
X173236904Y-92195238D01*
X173236904Y-92004761D01*
X173275000Y-91928571D01*
X173313095Y-91890476D01*
X173389285Y-91852380D01*
X173465476Y-91852380D01*
X173579761Y-91890476D01*
X174036904Y-92347619D01*
X174036904Y-91852380D01*
X173313095Y-91547619D02*
X173275000Y-91509523D01*
X173236904Y-91433333D01*
X173236904Y-91242857D01*
X173275000Y-91166666D01*
X173313095Y-91128571D01*
X173389285Y-91090476D01*
X173465476Y-91090476D01*
X173579761Y-91128571D01*
X174036904Y-91585714D01*
X174036904Y-91090476D01*
%TO.C,D2*%
X97009523Y-86636904D02*
X97009523Y-85836904D01*
X97200000Y-85836904D01*
X97314285Y-85875000D01*
X97390476Y-85951190D01*
X97428571Y-86027380D01*
X97466666Y-86179761D01*
X97466666Y-86294047D01*
X97428571Y-86446428D01*
X97390476Y-86522619D01*
X97314285Y-86598809D01*
X97200000Y-86636904D01*
X97009523Y-86636904D01*
X97771428Y-85913095D02*
X97809523Y-85875000D01*
X97885714Y-85836904D01*
X98076190Y-85836904D01*
X98152380Y-85875000D01*
X98190476Y-85913095D01*
X98228571Y-85989285D01*
X98228571Y-86065476D01*
X98190476Y-86179761D01*
X97733333Y-86636904D01*
X98228571Y-86636904D01*
%TO.C,Q11*%
X188782857Y-108938095D02*
X188706666Y-108900000D01*
X188630476Y-108823809D01*
X188516190Y-108709523D01*
X188440000Y-108671428D01*
X188363809Y-108671428D01*
X188401904Y-108861904D02*
X188325714Y-108823809D01*
X188249523Y-108747619D01*
X188211428Y-108595238D01*
X188211428Y-108328571D01*
X188249523Y-108176190D01*
X188325714Y-108100000D01*
X188401904Y-108061904D01*
X188554285Y-108061904D01*
X188630476Y-108100000D01*
X188706666Y-108176190D01*
X188744761Y-108328571D01*
X188744761Y-108595238D01*
X188706666Y-108747619D01*
X188630476Y-108823809D01*
X188554285Y-108861904D01*
X188401904Y-108861904D01*
X189506666Y-108861904D02*
X189049523Y-108861904D01*
X189278095Y-108861904D02*
X189278095Y-108061904D01*
X189201904Y-108176190D01*
X189125714Y-108252380D01*
X189049523Y-108290476D01*
X190268571Y-108861904D02*
X189811428Y-108861904D01*
X190040000Y-108861904D02*
X190040000Y-108061904D01*
X189963809Y-108176190D01*
X189887619Y-108252380D01*
X189811428Y-108290476D01*
%TO.C,Q10*%
X182942857Y-82838095D02*
X182866666Y-82800000D01*
X182790476Y-82723809D01*
X182676190Y-82609523D01*
X182600000Y-82571428D01*
X182523809Y-82571428D01*
X182561904Y-82761904D02*
X182485714Y-82723809D01*
X182409523Y-82647619D01*
X182371428Y-82495238D01*
X182371428Y-82228571D01*
X182409523Y-82076190D01*
X182485714Y-82000000D01*
X182561904Y-81961904D01*
X182714285Y-81961904D01*
X182790476Y-82000000D01*
X182866666Y-82076190D01*
X182904761Y-82228571D01*
X182904761Y-82495238D01*
X182866666Y-82647619D01*
X182790476Y-82723809D01*
X182714285Y-82761904D01*
X182561904Y-82761904D01*
X183666666Y-82761904D02*
X183209523Y-82761904D01*
X183438095Y-82761904D02*
X183438095Y-81961904D01*
X183361904Y-82076190D01*
X183285714Y-82152380D01*
X183209523Y-82190476D01*
X184161904Y-81961904D02*
X184238095Y-81961904D01*
X184314285Y-82000000D01*
X184352380Y-82038095D01*
X184390476Y-82114285D01*
X184428571Y-82266666D01*
X184428571Y-82457142D01*
X184390476Y-82609523D01*
X184352380Y-82685714D01*
X184314285Y-82723809D01*
X184238095Y-82761904D01*
X184161904Y-82761904D01*
X184085714Y-82723809D01*
X184047619Y-82685714D01*
X184009523Y-82609523D01*
X183971428Y-82457142D01*
X183971428Y-82266666D01*
X184009523Y-82114285D01*
X184047619Y-82038095D01*
X184085714Y-82000000D01*
X184161904Y-81961904D01*
%TO.C,L1*%
X112666666Y-90961904D02*
X112285714Y-90961904D01*
X112285714Y-90161904D01*
X113352380Y-90961904D02*
X112895238Y-90961904D01*
X113123809Y-90961904D02*
X113123809Y-90161904D01*
X113047619Y-90276190D01*
X112971428Y-90352380D01*
X112895238Y-90390476D01*
%TO.C,C16*%
X115935714Y-89960714D02*
X115897619Y-89998809D01*
X115783333Y-90036904D01*
X115707142Y-90036904D01*
X115592857Y-89998809D01*
X115516666Y-89922619D01*
X115478571Y-89846428D01*
X115440476Y-89694047D01*
X115440476Y-89579761D01*
X115478571Y-89427380D01*
X115516666Y-89351190D01*
X115592857Y-89275000D01*
X115707142Y-89236904D01*
X115783333Y-89236904D01*
X115897619Y-89275000D01*
X115935714Y-89313095D01*
X116697619Y-90036904D02*
X116240476Y-90036904D01*
X116469047Y-90036904D02*
X116469047Y-89236904D01*
X116392857Y-89351190D01*
X116316666Y-89427380D01*
X116240476Y-89465476D01*
X117383333Y-89236904D02*
X117230952Y-89236904D01*
X117154761Y-89275000D01*
X117116666Y-89313095D01*
X117040476Y-89427380D01*
X117002380Y-89579761D01*
X117002380Y-89884523D01*
X117040476Y-89960714D01*
X117078571Y-89998809D01*
X117154761Y-90036904D01*
X117307142Y-90036904D01*
X117383333Y-89998809D01*
X117421428Y-89960714D01*
X117459523Y-89884523D01*
X117459523Y-89694047D01*
X117421428Y-89617857D01*
X117383333Y-89579761D01*
X117307142Y-89541666D01*
X117154761Y-89541666D01*
X117078571Y-89579761D01*
X117040476Y-89617857D01*
X117002380Y-89694047D01*
%TO.C,R38*%
X199035714Y-91331904D02*
X198769047Y-90950952D01*
X198578571Y-91331904D02*
X198578571Y-90531904D01*
X198883333Y-90531904D01*
X198959523Y-90570000D01*
X198997619Y-90608095D01*
X199035714Y-90684285D01*
X199035714Y-90798571D01*
X198997619Y-90874761D01*
X198959523Y-90912857D01*
X198883333Y-90950952D01*
X198578571Y-90950952D01*
X199302380Y-90531904D02*
X199797619Y-90531904D01*
X199530952Y-90836666D01*
X199645238Y-90836666D01*
X199721428Y-90874761D01*
X199759523Y-90912857D01*
X199797619Y-90989047D01*
X199797619Y-91179523D01*
X199759523Y-91255714D01*
X199721428Y-91293809D01*
X199645238Y-91331904D01*
X199416666Y-91331904D01*
X199340476Y-91293809D01*
X199302380Y-91255714D01*
X200254761Y-90874761D02*
X200178571Y-90836666D01*
X200140476Y-90798571D01*
X200102380Y-90722380D01*
X200102380Y-90684285D01*
X200140476Y-90608095D01*
X200178571Y-90570000D01*
X200254761Y-90531904D01*
X200407142Y-90531904D01*
X200483333Y-90570000D01*
X200521428Y-90608095D01*
X200559523Y-90684285D01*
X200559523Y-90722380D01*
X200521428Y-90798571D01*
X200483333Y-90836666D01*
X200407142Y-90874761D01*
X200254761Y-90874761D01*
X200178571Y-90912857D01*
X200140476Y-90950952D01*
X200102380Y-91027142D01*
X200102380Y-91179523D01*
X200140476Y-91255714D01*
X200178571Y-91293809D01*
X200254761Y-91331904D01*
X200407142Y-91331904D01*
X200483333Y-91293809D01*
X200521428Y-91255714D01*
X200559523Y-91179523D01*
X200559523Y-91027142D01*
X200521428Y-90950952D01*
X200483333Y-90912857D01*
X200407142Y-90874761D01*
%TO.C,J17*%
X202672380Y-108451904D02*
X202672380Y-109023333D01*
X202634285Y-109137619D01*
X202558095Y-109213809D01*
X202443809Y-109251904D01*
X202367619Y-109251904D01*
X203472380Y-109251904D02*
X203015238Y-109251904D01*
X203243809Y-109251904D02*
X203243809Y-108451904D01*
X203167619Y-108566190D01*
X203091428Y-108642380D01*
X203015238Y-108680476D01*
X203739047Y-108451904D02*
X204272380Y-108451904D01*
X203929523Y-109251904D01*
%TO.C,C10*%
X102385714Y-92185714D02*
X102347619Y-92223809D01*
X102233333Y-92261904D01*
X102157142Y-92261904D01*
X102042857Y-92223809D01*
X101966666Y-92147619D01*
X101928571Y-92071428D01*
X101890476Y-91919047D01*
X101890476Y-91804761D01*
X101928571Y-91652380D01*
X101966666Y-91576190D01*
X102042857Y-91500000D01*
X102157142Y-91461904D01*
X102233333Y-91461904D01*
X102347619Y-91500000D01*
X102385714Y-91538095D01*
X103147619Y-92261904D02*
X102690476Y-92261904D01*
X102919047Y-92261904D02*
X102919047Y-91461904D01*
X102842857Y-91576190D01*
X102766666Y-91652380D01*
X102690476Y-91690476D01*
X103642857Y-91461904D02*
X103719047Y-91461904D01*
X103795238Y-91500000D01*
X103833333Y-91538095D01*
X103871428Y-91614285D01*
X103909523Y-91766666D01*
X103909523Y-91957142D01*
X103871428Y-92109523D01*
X103833333Y-92185714D01*
X103795238Y-92223809D01*
X103719047Y-92261904D01*
X103642857Y-92261904D01*
X103566666Y-92223809D01*
X103528571Y-92185714D01*
X103490476Y-92109523D01*
X103452380Y-91957142D01*
X103452380Y-91766666D01*
X103490476Y-91614285D01*
X103528571Y-91538095D01*
X103566666Y-91500000D01*
X103642857Y-91461904D01*
%TO.C,C12*%
X108110714Y-97410714D02*
X108072619Y-97448809D01*
X107958333Y-97486904D01*
X107882142Y-97486904D01*
X107767857Y-97448809D01*
X107691666Y-97372619D01*
X107653571Y-97296428D01*
X107615476Y-97144047D01*
X107615476Y-97029761D01*
X107653571Y-96877380D01*
X107691666Y-96801190D01*
X107767857Y-96725000D01*
X107882142Y-96686904D01*
X107958333Y-96686904D01*
X108072619Y-96725000D01*
X108110714Y-96763095D01*
X108872619Y-97486904D02*
X108415476Y-97486904D01*
X108644047Y-97486904D02*
X108644047Y-96686904D01*
X108567857Y-96801190D01*
X108491666Y-96877380D01*
X108415476Y-96915476D01*
X109177380Y-96763095D02*
X109215476Y-96725000D01*
X109291666Y-96686904D01*
X109482142Y-96686904D01*
X109558333Y-96725000D01*
X109596428Y-96763095D01*
X109634523Y-96839285D01*
X109634523Y-96915476D01*
X109596428Y-97029761D01*
X109139285Y-97486904D01*
X109634523Y-97486904D01*
%TO.C,R7*%
X125666666Y-105786904D02*
X125400000Y-105405952D01*
X125209523Y-105786904D02*
X125209523Y-104986904D01*
X125514285Y-104986904D01*
X125590476Y-105025000D01*
X125628571Y-105063095D01*
X125666666Y-105139285D01*
X125666666Y-105253571D01*
X125628571Y-105329761D01*
X125590476Y-105367857D01*
X125514285Y-105405952D01*
X125209523Y-105405952D01*
X125933333Y-104986904D02*
X126466666Y-104986904D01*
X126123809Y-105786904D01*
%TO.C,R17*%
X162215714Y-106161904D02*
X161949047Y-105780952D01*
X161758571Y-106161904D02*
X161758571Y-105361904D01*
X162063333Y-105361904D01*
X162139523Y-105400000D01*
X162177619Y-105438095D01*
X162215714Y-105514285D01*
X162215714Y-105628571D01*
X162177619Y-105704761D01*
X162139523Y-105742857D01*
X162063333Y-105780952D01*
X161758571Y-105780952D01*
X162977619Y-106161904D02*
X162520476Y-106161904D01*
X162749047Y-106161904D02*
X162749047Y-105361904D01*
X162672857Y-105476190D01*
X162596666Y-105552380D01*
X162520476Y-105590476D01*
X163244285Y-105361904D02*
X163777619Y-105361904D01*
X163434761Y-106161904D01*
%TO.C,R43*%
X207885714Y-107461904D02*
X207619047Y-107080952D01*
X207428571Y-107461904D02*
X207428571Y-106661904D01*
X207733333Y-106661904D01*
X207809523Y-106700000D01*
X207847619Y-106738095D01*
X207885714Y-106814285D01*
X207885714Y-106928571D01*
X207847619Y-107004761D01*
X207809523Y-107042857D01*
X207733333Y-107080952D01*
X207428571Y-107080952D01*
X208571428Y-106928571D02*
X208571428Y-107461904D01*
X208380952Y-106623809D02*
X208190476Y-107195238D01*
X208685714Y-107195238D01*
X208914285Y-106661904D02*
X209409523Y-106661904D01*
X209142857Y-106966666D01*
X209257142Y-106966666D01*
X209333333Y-107004761D01*
X209371428Y-107042857D01*
X209409523Y-107119047D01*
X209409523Y-107309523D01*
X209371428Y-107385714D01*
X209333333Y-107423809D01*
X209257142Y-107461904D01*
X209028571Y-107461904D01*
X208952380Y-107423809D01*
X208914285Y-107385714D01*
%TO.C,R12*%
X134475714Y-103661904D02*
X134209047Y-103280952D01*
X134018571Y-103661904D02*
X134018571Y-102861904D01*
X134323333Y-102861904D01*
X134399523Y-102900000D01*
X134437619Y-102938095D01*
X134475714Y-103014285D01*
X134475714Y-103128571D01*
X134437619Y-103204761D01*
X134399523Y-103242857D01*
X134323333Y-103280952D01*
X134018571Y-103280952D01*
X135237619Y-103661904D02*
X134780476Y-103661904D01*
X135009047Y-103661904D02*
X135009047Y-102861904D01*
X134932857Y-102976190D01*
X134856666Y-103052380D01*
X134780476Y-103090476D01*
X135542380Y-102938095D02*
X135580476Y-102900000D01*
X135656666Y-102861904D01*
X135847142Y-102861904D01*
X135923333Y-102900000D01*
X135961428Y-102938095D01*
X135999523Y-103014285D01*
X135999523Y-103090476D01*
X135961428Y-103204761D01*
X135504285Y-103661904D01*
X135999523Y-103661904D01*
%TO.C,Q18*%
X221642857Y-109008095D02*
X221566666Y-108970000D01*
X221490476Y-108893809D01*
X221376190Y-108779523D01*
X221300000Y-108741428D01*
X221223809Y-108741428D01*
X221261904Y-108931904D02*
X221185714Y-108893809D01*
X221109523Y-108817619D01*
X221071428Y-108665238D01*
X221071428Y-108398571D01*
X221109523Y-108246190D01*
X221185714Y-108170000D01*
X221261904Y-108131904D01*
X221414285Y-108131904D01*
X221490476Y-108170000D01*
X221566666Y-108246190D01*
X221604761Y-108398571D01*
X221604761Y-108665238D01*
X221566666Y-108817619D01*
X221490476Y-108893809D01*
X221414285Y-108931904D01*
X221261904Y-108931904D01*
X222366666Y-108931904D02*
X221909523Y-108931904D01*
X222138095Y-108931904D02*
X222138095Y-108131904D01*
X222061904Y-108246190D01*
X221985714Y-108322380D01*
X221909523Y-108360476D01*
X222823809Y-108474761D02*
X222747619Y-108436666D01*
X222709523Y-108398571D01*
X222671428Y-108322380D01*
X222671428Y-108284285D01*
X222709523Y-108208095D01*
X222747619Y-108170000D01*
X222823809Y-108131904D01*
X222976190Y-108131904D01*
X223052380Y-108170000D01*
X223090476Y-108208095D01*
X223128571Y-108284285D01*
X223128571Y-108322380D01*
X223090476Y-108398571D01*
X223052380Y-108436666D01*
X222976190Y-108474761D01*
X222823809Y-108474761D01*
X222747619Y-108512857D01*
X222709523Y-108550952D01*
X222671428Y-108627142D01*
X222671428Y-108779523D01*
X222709523Y-108855714D01*
X222747619Y-108893809D01*
X222823809Y-108931904D01*
X222976190Y-108931904D01*
X223052380Y-108893809D01*
X223090476Y-108855714D01*
X223128571Y-108779523D01*
X223128571Y-108627142D01*
X223090476Y-108550952D01*
X223052380Y-108512857D01*
X222976190Y-108474761D01*
%TO.C,R33*%
X188061904Y-97764285D02*
X187680952Y-98030952D01*
X188061904Y-98221428D02*
X187261904Y-98221428D01*
X187261904Y-97916666D01*
X187300000Y-97840476D01*
X187338095Y-97802380D01*
X187414285Y-97764285D01*
X187528571Y-97764285D01*
X187604761Y-97802380D01*
X187642857Y-97840476D01*
X187680952Y-97916666D01*
X187680952Y-98221428D01*
X187261904Y-97497619D02*
X187261904Y-97002380D01*
X187566666Y-97269047D01*
X187566666Y-97154761D01*
X187604761Y-97078571D01*
X187642857Y-97040476D01*
X187719047Y-97002380D01*
X187909523Y-97002380D01*
X187985714Y-97040476D01*
X188023809Y-97078571D01*
X188061904Y-97154761D01*
X188061904Y-97383333D01*
X188023809Y-97459523D01*
X187985714Y-97497619D01*
X187261904Y-96735714D02*
X187261904Y-96240476D01*
X187566666Y-96507142D01*
X187566666Y-96392857D01*
X187604761Y-96316666D01*
X187642857Y-96278571D01*
X187719047Y-96240476D01*
X187909523Y-96240476D01*
X187985714Y-96278571D01*
X188023809Y-96316666D01*
X188061904Y-96392857D01*
X188061904Y-96621428D01*
X188023809Y-96697619D01*
X187985714Y-96735714D01*
%TO.C,R19*%
X162225714Y-105231904D02*
X161959047Y-104850952D01*
X161768571Y-105231904D02*
X161768571Y-104431904D01*
X162073333Y-104431904D01*
X162149523Y-104470000D01*
X162187619Y-104508095D01*
X162225714Y-104584285D01*
X162225714Y-104698571D01*
X162187619Y-104774761D01*
X162149523Y-104812857D01*
X162073333Y-104850952D01*
X161768571Y-104850952D01*
X162987619Y-105231904D02*
X162530476Y-105231904D01*
X162759047Y-105231904D02*
X162759047Y-104431904D01*
X162682857Y-104546190D01*
X162606666Y-104622380D01*
X162530476Y-104660476D01*
X163368571Y-105231904D02*
X163520952Y-105231904D01*
X163597142Y-105193809D01*
X163635238Y-105155714D01*
X163711428Y-105041428D01*
X163749523Y-104889047D01*
X163749523Y-104584285D01*
X163711428Y-104508095D01*
X163673333Y-104470000D01*
X163597142Y-104431904D01*
X163444761Y-104431904D01*
X163368571Y-104470000D01*
X163330476Y-104508095D01*
X163292380Y-104584285D01*
X163292380Y-104774761D01*
X163330476Y-104850952D01*
X163368571Y-104889047D01*
X163444761Y-104927142D01*
X163597142Y-104927142D01*
X163673333Y-104889047D01*
X163711428Y-104850952D01*
X163749523Y-104774761D01*
%TO.C,U1*%
X94425476Y-111291904D02*
X94425476Y-111939523D01*
X94463571Y-112015714D01*
X94501666Y-112053809D01*
X94577857Y-112091904D01*
X94730238Y-112091904D01*
X94806428Y-112053809D01*
X94844523Y-112015714D01*
X94882619Y-111939523D01*
X94882619Y-111291904D01*
X95682619Y-112091904D02*
X95225476Y-112091904D01*
X95454047Y-112091904D02*
X95454047Y-111291904D01*
X95377857Y-111406190D01*
X95301666Y-111482380D01*
X95225476Y-111520476D01*
%TO.C,J4*%
X119566833Y-68962404D02*
X119566833Y-69533833D01*
X119528738Y-69648119D01*
X119452547Y-69724309D01*
X119338261Y-69762404D01*
X119262071Y-69762404D01*
X120290642Y-69229071D02*
X120290642Y-69762404D01*
X120100166Y-68924309D02*
X119909690Y-69495738D01*
X120404928Y-69495738D01*
%TO.C,R31*%
X186261904Y-93514285D02*
X185880952Y-93780952D01*
X186261904Y-93971428D02*
X185461904Y-93971428D01*
X185461904Y-93666666D01*
X185500000Y-93590476D01*
X185538095Y-93552380D01*
X185614285Y-93514285D01*
X185728571Y-93514285D01*
X185804761Y-93552380D01*
X185842857Y-93590476D01*
X185880952Y-93666666D01*
X185880952Y-93971428D01*
X185461904Y-93247619D02*
X185461904Y-92752380D01*
X185766666Y-93019047D01*
X185766666Y-92904761D01*
X185804761Y-92828571D01*
X185842857Y-92790476D01*
X185919047Y-92752380D01*
X186109523Y-92752380D01*
X186185714Y-92790476D01*
X186223809Y-92828571D01*
X186261904Y-92904761D01*
X186261904Y-93133333D01*
X186223809Y-93209523D01*
X186185714Y-93247619D01*
X186261904Y-91990476D02*
X186261904Y-92447619D01*
X186261904Y-92219047D02*
X185461904Y-92219047D01*
X185576190Y-92295238D01*
X185652380Y-92371428D01*
X185690476Y-92447619D01*
%TO.C,Q13*%
X196982857Y-108958095D02*
X196906666Y-108920000D01*
X196830476Y-108843809D01*
X196716190Y-108729523D01*
X196640000Y-108691428D01*
X196563809Y-108691428D01*
X196601904Y-108881904D02*
X196525714Y-108843809D01*
X196449523Y-108767619D01*
X196411428Y-108615238D01*
X196411428Y-108348571D01*
X196449523Y-108196190D01*
X196525714Y-108120000D01*
X196601904Y-108081904D01*
X196754285Y-108081904D01*
X196830476Y-108120000D01*
X196906666Y-108196190D01*
X196944761Y-108348571D01*
X196944761Y-108615238D01*
X196906666Y-108767619D01*
X196830476Y-108843809D01*
X196754285Y-108881904D01*
X196601904Y-108881904D01*
X197706666Y-108881904D02*
X197249523Y-108881904D01*
X197478095Y-108881904D02*
X197478095Y-108081904D01*
X197401904Y-108196190D01*
X197325714Y-108272380D01*
X197249523Y-108310476D01*
X197973333Y-108081904D02*
X198468571Y-108081904D01*
X198201904Y-108386666D01*
X198316190Y-108386666D01*
X198392380Y-108424761D01*
X198430476Y-108462857D01*
X198468571Y-108539047D01*
X198468571Y-108729523D01*
X198430476Y-108805714D01*
X198392380Y-108843809D01*
X198316190Y-108881904D01*
X198087619Y-108881904D01*
X198011428Y-108843809D01*
X197973333Y-108805714D01*
%TO.C,R24*%
X177635714Y-91231904D02*
X177369047Y-90850952D01*
X177178571Y-91231904D02*
X177178571Y-90431904D01*
X177483333Y-90431904D01*
X177559523Y-90470000D01*
X177597619Y-90508095D01*
X177635714Y-90584285D01*
X177635714Y-90698571D01*
X177597619Y-90774761D01*
X177559523Y-90812857D01*
X177483333Y-90850952D01*
X177178571Y-90850952D01*
X177940476Y-90508095D02*
X177978571Y-90470000D01*
X178054761Y-90431904D01*
X178245238Y-90431904D01*
X178321428Y-90470000D01*
X178359523Y-90508095D01*
X178397619Y-90584285D01*
X178397619Y-90660476D01*
X178359523Y-90774761D01*
X177902380Y-91231904D01*
X178397619Y-91231904D01*
X179083333Y-90698571D02*
X179083333Y-91231904D01*
X178892857Y-90393809D02*
X178702380Y-90965238D01*
X179197619Y-90965238D01*
%TO.C,R40*%
X200185714Y-88161904D02*
X199919047Y-87780952D01*
X199728571Y-88161904D02*
X199728571Y-87361904D01*
X200033333Y-87361904D01*
X200109523Y-87400000D01*
X200147619Y-87438095D01*
X200185714Y-87514285D01*
X200185714Y-87628571D01*
X200147619Y-87704761D01*
X200109523Y-87742857D01*
X200033333Y-87780952D01*
X199728571Y-87780952D01*
X200871428Y-87628571D02*
X200871428Y-88161904D01*
X200680952Y-87323809D02*
X200490476Y-87895238D01*
X200985714Y-87895238D01*
X201442857Y-87361904D02*
X201519047Y-87361904D01*
X201595238Y-87400000D01*
X201633333Y-87438095D01*
X201671428Y-87514285D01*
X201709523Y-87666666D01*
X201709523Y-87857142D01*
X201671428Y-88009523D01*
X201633333Y-88085714D01*
X201595238Y-88123809D01*
X201519047Y-88161904D01*
X201442857Y-88161904D01*
X201366666Y-88123809D01*
X201328571Y-88085714D01*
X201290476Y-88009523D01*
X201252380Y-87857142D01*
X201252380Y-87666666D01*
X201290476Y-87514285D01*
X201328571Y-87438095D01*
X201366666Y-87400000D01*
X201442857Y-87361904D01*
%TO.C,J15*%
X193592380Y-108421904D02*
X193592380Y-108993333D01*
X193554285Y-109107619D01*
X193478095Y-109183809D01*
X193363809Y-109221904D01*
X193287619Y-109221904D01*
X194392380Y-109221904D02*
X193935238Y-109221904D01*
X194163809Y-109221904D02*
X194163809Y-108421904D01*
X194087619Y-108536190D01*
X194011428Y-108612380D01*
X193935238Y-108650476D01*
X195116190Y-108421904D02*
X194735238Y-108421904D01*
X194697142Y-108802857D01*
X194735238Y-108764761D01*
X194811428Y-108726666D01*
X195001904Y-108726666D01*
X195078095Y-108764761D01*
X195116190Y-108802857D01*
X195154285Y-108879047D01*
X195154285Y-109069523D01*
X195116190Y-109145714D01*
X195078095Y-109183809D01*
X195001904Y-109221904D01*
X194811428Y-109221904D01*
X194735238Y-109183809D01*
X194697142Y-109145714D01*
%TO.C,Q7*%
X172613095Y-92376190D02*
X172575000Y-92452380D01*
X172498809Y-92528571D01*
X172384523Y-92642857D01*
X172346428Y-92719047D01*
X172346428Y-92795238D01*
X172536904Y-92757142D02*
X172498809Y-92833333D01*
X172422619Y-92909523D01*
X172270238Y-92947619D01*
X172003571Y-92947619D01*
X171851190Y-92909523D01*
X171775000Y-92833333D01*
X171736904Y-92757142D01*
X171736904Y-92604761D01*
X171775000Y-92528571D01*
X171851190Y-92452380D01*
X172003571Y-92414285D01*
X172270238Y-92414285D01*
X172422619Y-92452380D01*
X172498809Y-92528571D01*
X172536904Y-92604761D01*
X172536904Y-92757142D01*
X171736904Y-92147619D02*
X171736904Y-91614285D01*
X172536904Y-91957142D01*
%TO.C,R35*%
X191160714Y-91231904D02*
X190894047Y-90850952D01*
X190703571Y-91231904D02*
X190703571Y-90431904D01*
X191008333Y-90431904D01*
X191084523Y-90470000D01*
X191122619Y-90508095D01*
X191160714Y-90584285D01*
X191160714Y-90698571D01*
X191122619Y-90774761D01*
X191084523Y-90812857D01*
X191008333Y-90850952D01*
X190703571Y-90850952D01*
X191427380Y-90431904D02*
X191922619Y-90431904D01*
X191655952Y-90736666D01*
X191770238Y-90736666D01*
X191846428Y-90774761D01*
X191884523Y-90812857D01*
X191922619Y-90889047D01*
X191922619Y-91079523D01*
X191884523Y-91155714D01*
X191846428Y-91193809D01*
X191770238Y-91231904D01*
X191541666Y-91231904D01*
X191465476Y-91193809D01*
X191427380Y-91155714D01*
X192646428Y-90431904D02*
X192265476Y-90431904D01*
X192227380Y-90812857D01*
X192265476Y-90774761D01*
X192341666Y-90736666D01*
X192532142Y-90736666D01*
X192608333Y-90774761D01*
X192646428Y-90812857D01*
X192684523Y-90889047D01*
X192684523Y-91079523D01*
X192646428Y-91155714D01*
X192608333Y-91193809D01*
X192532142Y-91231904D01*
X192341666Y-91231904D01*
X192265476Y-91193809D01*
X192227380Y-91155714D01*
%TO.C,R45*%
X208261904Y-93314285D02*
X207880952Y-93580952D01*
X208261904Y-93771428D02*
X207461904Y-93771428D01*
X207461904Y-93466666D01*
X207500000Y-93390476D01*
X207538095Y-93352380D01*
X207614285Y-93314285D01*
X207728571Y-93314285D01*
X207804761Y-93352380D01*
X207842857Y-93390476D01*
X207880952Y-93466666D01*
X207880952Y-93771428D01*
X207728571Y-92628571D02*
X208261904Y-92628571D01*
X207423809Y-92819047D02*
X207995238Y-93009523D01*
X207995238Y-92514285D01*
X207461904Y-91828571D02*
X207461904Y-92209523D01*
X207842857Y-92247619D01*
X207804761Y-92209523D01*
X207766666Y-92133333D01*
X207766666Y-91942857D01*
X207804761Y-91866666D01*
X207842857Y-91828571D01*
X207919047Y-91790476D01*
X208109523Y-91790476D01*
X208185714Y-91828571D01*
X208223809Y-91866666D01*
X208261904Y-91942857D01*
X208261904Y-92133333D01*
X208223809Y-92209523D01*
X208185714Y-92247619D01*
%TO.C,C9*%
X105135714Y-96308333D02*
X105173809Y-96346428D01*
X105211904Y-96460714D01*
X105211904Y-96536904D01*
X105173809Y-96651190D01*
X105097619Y-96727380D01*
X105021428Y-96765476D01*
X104869047Y-96803571D01*
X104754761Y-96803571D01*
X104602380Y-96765476D01*
X104526190Y-96727380D01*
X104450000Y-96651190D01*
X104411904Y-96536904D01*
X104411904Y-96460714D01*
X104450000Y-96346428D01*
X104488095Y-96308333D01*
X105211904Y-95927380D02*
X105211904Y-95775000D01*
X105173809Y-95698809D01*
X105135714Y-95660714D01*
X105021428Y-95584523D01*
X104869047Y-95546428D01*
X104564285Y-95546428D01*
X104488095Y-95584523D01*
X104450000Y-95622619D01*
X104411904Y-95698809D01*
X104411904Y-95851190D01*
X104450000Y-95927380D01*
X104488095Y-95965476D01*
X104564285Y-96003571D01*
X104754761Y-96003571D01*
X104830952Y-95965476D01*
X104869047Y-95927380D01*
X104907142Y-95851190D01*
X104907142Y-95698809D01*
X104869047Y-95622619D01*
X104830952Y-95584523D01*
X104754761Y-95546428D01*
%TO.C,C7*%
X98391666Y-97335714D02*
X98353571Y-97373809D01*
X98239285Y-97411904D01*
X98163095Y-97411904D01*
X98048809Y-97373809D01*
X97972619Y-97297619D01*
X97934523Y-97221428D01*
X97896428Y-97069047D01*
X97896428Y-96954761D01*
X97934523Y-96802380D01*
X97972619Y-96726190D01*
X98048809Y-96650000D01*
X98163095Y-96611904D01*
X98239285Y-96611904D01*
X98353571Y-96650000D01*
X98391666Y-96688095D01*
X98658333Y-96611904D02*
X99191666Y-96611904D01*
X98848809Y-97411904D01*
%TO.C,D5*%
X116809523Y-82761904D02*
X116809523Y-81961904D01*
X117000000Y-81961904D01*
X117114285Y-82000000D01*
X117190476Y-82076190D01*
X117228571Y-82152380D01*
X117266666Y-82304761D01*
X117266666Y-82419047D01*
X117228571Y-82571428D01*
X117190476Y-82647619D01*
X117114285Y-82723809D01*
X117000000Y-82761904D01*
X116809523Y-82761904D01*
X117990476Y-81961904D02*
X117609523Y-81961904D01*
X117571428Y-82342857D01*
X117609523Y-82304761D01*
X117685714Y-82266666D01*
X117876190Y-82266666D01*
X117952380Y-82304761D01*
X117990476Y-82342857D01*
X118028571Y-82419047D01*
X118028571Y-82609523D01*
X117990476Y-82685714D01*
X117952380Y-82723809D01*
X117876190Y-82761904D01*
X117685714Y-82761904D01*
X117609523Y-82723809D01*
X117571428Y-82685714D01*
%TO.C,D3*%
X94634523Y-86661904D02*
X94634523Y-85861904D01*
X94825000Y-85861904D01*
X94939285Y-85900000D01*
X95015476Y-85976190D01*
X95053571Y-86052380D01*
X95091666Y-86204761D01*
X95091666Y-86319047D01*
X95053571Y-86471428D01*
X95015476Y-86547619D01*
X94939285Y-86623809D01*
X94825000Y-86661904D01*
X94634523Y-86661904D01*
X95358333Y-85861904D02*
X95853571Y-85861904D01*
X95586904Y-86166666D01*
X95701190Y-86166666D01*
X95777380Y-86204761D01*
X95815476Y-86242857D01*
X95853571Y-86319047D01*
X95853571Y-86509523D01*
X95815476Y-86585714D01*
X95777380Y-86623809D01*
X95701190Y-86661904D01*
X95472619Y-86661904D01*
X95396428Y-86623809D01*
X95358333Y-86585714D01*
%TO.C,R10*%
X128291904Y-105854285D02*
X127910952Y-106120952D01*
X128291904Y-106311428D02*
X127491904Y-106311428D01*
X127491904Y-106006666D01*
X127530000Y-105930476D01*
X127568095Y-105892380D01*
X127644285Y-105854285D01*
X127758571Y-105854285D01*
X127834761Y-105892380D01*
X127872857Y-105930476D01*
X127910952Y-106006666D01*
X127910952Y-106311428D01*
X128291904Y-105092380D02*
X128291904Y-105549523D01*
X128291904Y-105320952D02*
X127491904Y-105320952D01*
X127606190Y-105397142D01*
X127682380Y-105473333D01*
X127720476Y-105549523D01*
X127491904Y-104597142D02*
X127491904Y-104520952D01*
X127530000Y-104444761D01*
X127568095Y-104406666D01*
X127644285Y-104368571D01*
X127796666Y-104330476D01*
X127987142Y-104330476D01*
X128139523Y-104368571D01*
X128215714Y-104406666D01*
X128253809Y-104444761D01*
X128291904Y-104520952D01*
X128291904Y-104597142D01*
X128253809Y-104673333D01*
X128215714Y-104711428D01*
X128139523Y-104749523D01*
X127987142Y-104787619D01*
X127796666Y-104787619D01*
X127644285Y-104749523D01*
X127568095Y-104711428D01*
X127530000Y-104673333D01*
X127491904Y-104597142D01*
%TO.C,F1*%
X89458333Y-74777857D02*
X89191666Y-74777857D01*
X89191666Y-75196904D02*
X89191666Y-74396904D01*
X89572619Y-74396904D01*
X90296428Y-75196904D02*
X89839285Y-75196904D01*
X90067857Y-75196904D02*
X90067857Y-74396904D01*
X89991666Y-74511190D01*
X89915476Y-74587380D01*
X89839285Y-74625476D01*
%TO.C,D4*%
X113244523Y-100371904D02*
X113244523Y-99571904D01*
X113435000Y-99571904D01*
X113549285Y-99610000D01*
X113625476Y-99686190D01*
X113663571Y-99762380D01*
X113701666Y-99914761D01*
X113701666Y-100029047D01*
X113663571Y-100181428D01*
X113625476Y-100257619D01*
X113549285Y-100333809D01*
X113435000Y-100371904D01*
X113244523Y-100371904D01*
X114387380Y-99838571D02*
X114387380Y-100371904D01*
X114196904Y-99533809D02*
X114006428Y-100105238D01*
X114501666Y-100105238D01*
%TO.C,J9*%
X139813333Y-68941904D02*
X139813333Y-69513333D01*
X139775238Y-69627619D01*
X139699047Y-69703809D01*
X139584761Y-69741904D01*
X139508571Y-69741904D01*
X140232380Y-69741904D02*
X140384761Y-69741904D01*
X140460952Y-69703809D01*
X140499047Y-69665714D01*
X140575238Y-69551428D01*
X140613333Y-69399047D01*
X140613333Y-69094285D01*
X140575238Y-69018095D01*
X140537142Y-68980000D01*
X140460952Y-68941904D01*
X140308571Y-68941904D01*
X140232380Y-68980000D01*
X140194285Y-69018095D01*
X140156190Y-69094285D01*
X140156190Y-69284761D01*
X140194285Y-69360952D01*
X140232380Y-69399047D01*
X140308571Y-69437142D01*
X140460952Y-69437142D01*
X140537142Y-69399047D01*
X140575238Y-69360952D01*
X140613333Y-69284761D01*
%TO.C,D9*%
X165861904Y-99550476D02*
X165061904Y-99550476D01*
X165061904Y-99360000D01*
X165100000Y-99245714D01*
X165176190Y-99169523D01*
X165252380Y-99131428D01*
X165404761Y-99093333D01*
X165519047Y-99093333D01*
X165671428Y-99131428D01*
X165747619Y-99169523D01*
X165823809Y-99245714D01*
X165861904Y-99360000D01*
X165861904Y-99550476D01*
X165861904Y-98712380D02*
X165861904Y-98560000D01*
X165823809Y-98483809D01*
X165785714Y-98445714D01*
X165671428Y-98369523D01*
X165519047Y-98331428D01*
X165214285Y-98331428D01*
X165138095Y-98369523D01*
X165100000Y-98407619D01*
X165061904Y-98483809D01*
X165061904Y-98636190D01*
X165100000Y-98712380D01*
X165138095Y-98750476D01*
X165214285Y-98788571D01*
X165404761Y-98788571D01*
X165480952Y-98750476D01*
X165519047Y-98712380D01*
X165557142Y-98636190D01*
X165557142Y-98483809D01*
X165519047Y-98407619D01*
X165480952Y-98369523D01*
X165404761Y-98331428D01*
%TO.C,Y1*%
X116669047Y-111880952D02*
X116669047Y-112261904D01*
X116402380Y-111461904D02*
X116669047Y-111880952D01*
X116935714Y-111461904D01*
X117621428Y-112261904D02*
X117164285Y-112261904D01*
X117392857Y-112261904D02*
X117392857Y-111461904D01*
X117316666Y-111576190D01*
X117240476Y-111652380D01*
X117164285Y-111690476D01*
%TO.C,R21*%
X169460714Y-91156904D02*
X169194047Y-90775952D01*
X169003571Y-91156904D02*
X169003571Y-90356904D01*
X169308333Y-90356904D01*
X169384523Y-90395000D01*
X169422619Y-90433095D01*
X169460714Y-90509285D01*
X169460714Y-90623571D01*
X169422619Y-90699761D01*
X169384523Y-90737857D01*
X169308333Y-90775952D01*
X169003571Y-90775952D01*
X169765476Y-90433095D02*
X169803571Y-90395000D01*
X169879761Y-90356904D01*
X170070238Y-90356904D01*
X170146428Y-90395000D01*
X170184523Y-90433095D01*
X170222619Y-90509285D01*
X170222619Y-90585476D01*
X170184523Y-90699761D01*
X169727380Y-91156904D01*
X170222619Y-91156904D01*
X170984523Y-91156904D02*
X170527380Y-91156904D01*
X170755952Y-91156904D02*
X170755952Y-90356904D01*
X170679761Y-90471190D01*
X170603571Y-90547380D01*
X170527380Y-90585476D01*
%TO.C,R32*%
X188061904Y-104714285D02*
X187680952Y-104980952D01*
X188061904Y-105171428D02*
X187261904Y-105171428D01*
X187261904Y-104866666D01*
X187300000Y-104790476D01*
X187338095Y-104752380D01*
X187414285Y-104714285D01*
X187528571Y-104714285D01*
X187604761Y-104752380D01*
X187642857Y-104790476D01*
X187680952Y-104866666D01*
X187680952Y-105171428D01*
X187261904Y-104447619D02*
X187261904Y-103952380D01*
X187566666Y-104219047D01*
X187566666Y-104104761D01*
X187604761Y-104028571D01*
X187642857Y-103990476D01*
X187719047Y-103952380D01*
X187909523Y-103952380D01*
X187985714Y-103990476D01*
X188023809Y-104028571D01*
X188061904Y-104104761D01*
X188061904Y-104333333D01*
X188023809Y-104409523D01*
X187985714Y-104447619D01*
X187338095Y-103647619D02*
X187300000Y-103609523D01*
X187261904Y-103533333D01*
X187261904Y-103342857D01*
X187300000Y-103266666D01*
X187338095Y-103228571D01*
X187414285Y-103190476D01*
X187490476Y-103190476D01*
X187604761Y-103228571D01*
X188061904Y-103685714D01*
X188061904Y-103190476D01*
D10*
%TO.C,C18*%
X166967142Y-107492857D02*
X167014761Y-107540476D01*
X167062380Y-107683333D01*
X167062380Y-107778571D01*
X167014761Y-107921428D01*
X166919523Y-108016666D01*
X166824285Y-108064285D01*
X166633809Y-108111904D01*
X166490952Y-108111904D01*
X166300476Y-108064285D01*
X166205238Y-108016666D01*
X166110000Y-107921428D01*
X166062380Y-107778571D01*
X166062380Y-107683333D01*
X166110000Y-107540476D01*
X166157619Y-107492857D01*
X167062380Y-106540476D02*
X167062380Y-107111904D01*
X167062380Y-106826190D02*
X166062380Y-106826190D01*
X166205238Y-106921428D01*
X166300476Y-107016666D01*
X166348095Y-107111904D01*
X166490952Y-105969047D02*
X166443333Y-106064285D01*
X166395714Y-106111904D01*
X166300476Y-106159523D01*
X166252857Y-106159523D01*
X166157619Y-106111904D01*
X166110000Y-106064285D01*
X166062380Y-105969047D01*
X166062380Y-105778571D01*
X166110000Y-105683333D01*
X166157619Y-105635714D01*
X166252857Y-105588095D01*
X166300476Y-105588095D01*
X166395714Y-105635714D01*
X166443333Y-105683333D01*
X166490952Y-105778571D01*
X166490952Y-105969047D01*
X166538571Y-106064285D01*
X166586190Y-106111904D01*
X166681428Y-106159523D01*
X166871904Y-106159523D01*
X166967142Y-106111904D01*
X167014761Y-106064285D01*
X167062380Y-105969047D01*
X167062380Y-105778571D01*
X167014761Y-105683333D01*
X166967142Y-105635714D01*
X166871904Y-105588095D01*
X166681428Y-105588095D01*
X166586190Y-105635714D01*
X166538571Y-105683333D01*
X166490952Y-105778571D01*
D11*
%TO.C,J18*%
X214552380Y-108361904D02*
X214552380Y-108933333D01*
X214514285Y-109047619D01*
X214438095Y-109123809D01*
X214323809Y-109161904D01*
X214247619Y-109161904D01*
X215352380Y-109161904D02*
X214895238Y-109161904D01*
X215123809Y-109161904D02*
X215123809Y-108361904D01*
X215047619Y-108476190D01*
X214971428Y-108552380D01*
X214895238Y-108590476D01*
X215809523Y-108704761D02*
X215733333Y-108666666D01*
X215695238Y-108628571D01*
X215657142Y-108552380D01*
X215657142Y-108514285D01*
X215695238Y-108438095D01*
X215733333Y-108400000D01*
X215809523Y-108361904D01*
X215961904Y-108361904D01*
X216038095Y-108400000D01*
X216076190Y-108438095D01*
X216114285Y-108514285D01*
X216114285Y-108552380D01*
X216076190Y-108628571D01*
X216038095Y-108666666D01*
X215961904Y-108704761D01*
X215809523Y-108704761D01*
X215733333Y-108742857D01*
X215695238Y-108780952D01*
X215657142Y-108857142D01*
X215657142Y-109009523D01*
X215695238Y-109085714D01*
X215733333Y-109123809D01*
X215809523Y-109161904D01*
X215961904Y-109161904D01*
X216038095Y-109123809D01*
X216076190Y-109085714D01*
X216114285Y-109009523D01*
X216114285Y-108857142D01*
X216076190Y-108780952D01*
X216038095Y-108742857D01*
X215961904Y-108704761D01*
%TO.C,R50*%
X218011904Y-92614285D02*
X217630952Y-92880952D01*
X218011904Y-93071428D02*
X217211904Y-93071428D01*
X217211904Y-92766666D01*
X217250000Y-92690476D01*
X217288095Y-92652380D01*
X217364285Y-92614285D01*
X217478571Y-92614285D01*
X217554761Y-92652380D01*
X217592857Y-92690476D01*
X217630952Y-92766666D01*
X217630952Y-93071428D01*
X217211904Y-91890476D02*
X217211904Y-92271428D01*
X217592857Y-92309523D01*
X217554761Y-92271428D01*
X217516666Y-92195238D01*
X217516666Y-92004761D01*
X217554761Y-91928571D01*
X217592857Y-91890476D01*
X217669047Y-91852380D01*
X217859523Y-91852380D01*
X217935714Y-91890476D01*
X217973809Y-91928571D01*
X218011904Y-92004761D01*
X218011904Y-92195238D01*
X217973809Y-92271428D01*
X217935714Y-92309523D01*
X217211904Y-91357142D02*
X217211904Y-91280952D01*
X217250000Y-91204761D01*
X217288095Y-91166666D01*
X217364285Y-91128571D01*
X217516666Y-91090476D01*
X217707142Y-91090476D01*
X217859523Y-91128571D01*
X217935714Y-91166666D01*
X217973809Y-91204761D01*
X218011904Y-91280952D01*
X218011904Y-91357142D01*
X217973809Y-91433333D01*
X217935714Y-91471428D01*
X217859523Y-91509523D01*
X217707142Y-91547619D01*
X217516666Y-91547619D01*
X217364285Y-91509523D01*
X217288095Y-91471428D01*
X217250000Y-91433333D01*
X217211904Y-91357142D01*
%TO.C,R4*%
X106286904Y-96233333D02*
X105905952Y-96500000D01*
X106286904Y-96690476D02*
X105486904Y-96690476D01*
X105486904Y-96385714D01*
X105525000Y-96309523D01*
X105563095Y-96271428D01*
X105639285Y-96233333D01*
X105753571Y-96233333D01*
X105829761Y-96271428D01*
X105867857Y-96309523D01*
X105905952Y-96385714D01*
X105905952Y-96690476D01*
X105753571Y-95547619D02*
X106286904Y-95547619D01*
X105448809Y-95738095D02*
X106020238Y-95928571D01*
X106020238Y-95433333D01*
%TO.C,R41*%
X204861904Y-97764285D02*
X204480952Y-98030952D01*
X204861904Y-98221428D02*
X204061904Y-98221428D01*
X204061904Y-97916666D01*
X204100000Y-97840476D01*
X204138095Y-97802380D01*
X204214285Y-97764285D01*
X204328571Y-97764285D01*
X204404761Y-97802380D01*
X204442857Y-97840476D01*
X204480952Y-97916666D01*
X204480952Y-98221428D01*
X204328571Y-97078571D02*
X204861904Y-97078571D01*
X204023809Y-97269047D02*
X204595238Y-97459523D01*
X204595238Y-96964285D01*
X204861904Y-96240476D02*
X204861904Y-96697619D01*
X204861904Y-96469047D02*
X204061904Y-96469047D01*
X204176190Y-96545238D01*
X204252380Y-96621428D01*
X204290476Y-96697619D01*
%TO.C,Q20*%
X223492857Y-82738095D02*
X223416666Y-82700000D01*
X223340476Y-82623809D01*
X223226190Y-82509523D01*
X223150000Y-82471428D01*
X223073809Y-82471428D01*
X223111904Y-82661904D02*
X223035714Y-82623809D01*
X222959523Y-82547619D01*
X222921428Y-82395238D01*
X222921428Y-82128571D01*
X222959523Y-81976190D01*
X223035714Y-81900000D01*
X223111904Y-81861904D01*
X223264285Y-81861904D01*
X223340476Y-81900000D01*
X223416666Y-81976190D01*
X223454761Y-82128571D01*
X223454761Y-82395238D01*
X223416666Y-82547619D01*
X223340476Y-82623809D01*
X223264285Y-82661904D01*
X223111904Y-82661904D01*
X223759523Y-81938095D02*
X223797619Y-81900000D01*
X223873809Y-81861904D01*
X224064285Y-81861904D01*
X224140476Y-81900000D01*
X224178571Y-81938095D01*
X224216666Y-82014285D01*
X224216666Y-82090476D01*
X224178571Y-82204761D01*
X223721428Y-82661904D01*
X224216666Y-82661904D01*
X224711904Y-81861904D02*
X224788095Y-81861904D01*
X224864285Y-81900000D01*
X224902380Y-81938095D01*
X224940476Y-82014285D01*
X224978571Y-82166666D01*
X224978571Y-82357142D01*
X224940476Y-82509523D01*
X224902380Y-82585714D01*
X224864285Y-82623809D01*
X224788095Y-82661904D01*
X224711904Y-82661904D01*
X224635714Y-82623809D01*
X224597619Y-82585714D01*
X224559523Y-82509523D01*
X224521428Y-82357142D01*
X224521428Y-82166666D01*
X224559523Y-82014285D01*
X224597619Y-81938095D01*
X224635714Y-81900000D01*
X224711904Y-81861904D01*
%TO.C,Q1*%
X99563095Y-83251190D02*
X99525000Y-83327380D01*
X99448809Y-83403571D01*
X99334523Y-83517857D01*
X99296428Y-83594047D01*
X99296428Y-83670238D01*
X99486904Y-83632142D02*
X99448809Y-83708333D01*
X99372619Y-83784523D01*
X99220238Y-83822619D01*
X98953571Y-83822619D01*
X98801190Y-83784523D01*
X98725000Y-83708333D01*
X98686904Y-83632142D01*
X98686904Y-83479761D01*
X98725000Y-83403571D01*
X98801190Y-83327380D01*
X98953571Y-83289285D01*
X99220238Y-83289285D01*
X99372619Y-83327380D01*
X99448809Y-83403571D01*
X99486904Y-83479761D01*
X99486904Y-83632142D01*
X99486904Y-82527380D02*
X99486904Y-82984523D01*
X99486904Y-82755952D02*
X98686904Y-82755952D01*
X98801190Y-82832142D01*
X98877380Y-82908333D01*
X98915476Y-82984523D01*
%TO.C,R42*%
X205861904Y-93314285D02*
X205480952Y-93580952D01*
X205861904Y-93771428D02*
X205061904Y-93771428D01*
X205061904Y-93466666D01*
X205100000Y-93390476D01*
X205138095Y-93352380D01*
X205214285Y-93314285D01*
X205328571Y-93314285D01*
X205404761Y-93352380D01*
X205442857Y-93390476D01*
X205480952Y-93466666D01*
X205480952Y-93771428D01*
X205328571Y-92628571D02*
X205861904Y-92628571D01*
X205023809Y-92819047D02*
X205595238Y-93009523D01*
X205595238Y-92514285D01*
X205138095Y-92247619D02*
X205100000Y-92209523D01*
X205061904Y-92133333D01*
X205061904Y-91942857D01*
X205100000Y-91866666D01*
X205138095Y-91828571D01*
X205214285Y-91790476D01*
X205290476Y-91790476D01*
X205404761Y-91828571D01*
X205861904Y-92285714D01*
X205861904Y-91790476D01*
%TO.C,J11*%
X172592380Y-108401904D02*
X172592380Y-108973333D01*
X172554285Y-109087619D01*
X172478095Y-109163809D01*
X172363809Y-109201904D01*
X172287619Y-109201904D01*
X173392380Y-109201904D02*
X172935238Y-109201904D01*
X173163809Y-109201904D02*
X173163809Y-108401904D01*
X173087619Y-108516190D01*
X173011428Y-108592380D01*
X172935238Y-108630476D01*
X174154285Y-109201904D02*
X173697142Y-109201904D01*
X173925714Y-109201904D02*
X173925714Y-108401904D01*
X173849523Y-108516190D01*
X173773333Y-108592380D01*
X173697142Y-108630476D01*
%TO.C,Q17*%
X216688095Y-92457142D02*
X216650000Y-92533333D01*
X216573809Y-92609523D01*
X216459523Y-92723809D01*
X216421428Y-92800000D01*
X216421428Y-92876190D01*
X216611904Y-92838095D02*
X216573809Y-92914285D01*
X216497619Y-92990476D01*
X216345238Y-93028571D01*
X216078571Y-93028571D01*
X215926190Y-92990476D01*
X215850000Y-92914285D01*
X215811904Y-92838095D01*
X215811904Y-92685714D01*
X215850000Y-92609523D01*
X215926190Y-92533333D01*
X216078571Y-92495238D01*
X216345238Y-92495238D01*
X216497619Y-92533333D01*
X216573809Y-92609523D01*
X216611904Y-92685714D01*
X216611904Y-92838095D01*
X216611904Y-91733333D02*
X216611904Y-92190476D01*
X216611904Y-91961904D02*
X215811904Y-91961904D01*
X215926190Y-92038095D01*
X216002380Y-92114285D01*
X216040476Y-92190476D01*
X215811904Y-91466666D02*
X215811904Y-90933333D01*
X216611904Y-91276190D01*
%TO.C,R13*%
X138411904Y-94614285D02*
X138030952Y-94880952D01*
X138411904Y-95071428D02*
X137611904Y-95071428D01*
X137611904Y-94766666D01*
X137650000Y-94690476D01*
X137688095Y-94652380D01*
X137764285Y-94614285D01*
X137878571Y-94614285D01*
X137954761Y-94652380D01*
X137992857Y-94690476D01*
X138030952Y-94766666D01*
X138030952Y-95071428D01*
X138411904Y-93852380D02*
X138411904Y-94309523D01*
X138411904Y-94080952D02*
X137611904Y-94080952D01*
X137726190Y-94157142D01*
X137802380Y-94233333D01*
X137840476Y-94309523D01*
X137611904Y-93585714D02*
X137611904Y-93090476D01*
X137916666Y-93357142D01*
X137916666Y-93242857D01*
X137954761Y-93166666D01*
X137992857Y-93128571D01*
X138069047Y-93090476D01*
X138259523Y-93090476D01*
X138335714Y-93128571D01*
X138373809Y-93166666D01*
X138411904Y-93242857D01*
X138411904Y-93471428D01*
X138373809Y-93547619D01*
X138335714Y-93585714D01*
%TO.C,Q6*%
X168143809Y-109058095D02*
X168067619Y-109020000D01*
X167991428Y-108943809D01*
X167877142Y-108829523D01*
X167800952Y-108791428D01*
X167724761Y-108791428D01*
X167762857Y-108981904D02*
X167686666Y-108943809D01*
X167610476Y-108867619D01*
X167572380Y-108715238D01*
X167572380Y-108448571D01*
X167610476Y-108296190D01*
X167686666Y-108220000D01*
X167762857Y-108181904D01*
X167915238Y-108181904D01*
X167991428Y-108220000D01*
X168067619Y-108296190D01*
X168105714Y-108448571D01*
X168105714Y-108715238D01*
X168067619Y-108867619D01*
X167991428Y-108943809D01*
X167915238Y-108981904D01*
X167762857Y-108981904D01*
X168791428Y-108181904D02*
X168639047Y-108181904D01*
X168562857Y-108220000D01*
X168524761Y-108258095D01*
X168448571Y-108372380D01*
X168410476Y-108524761D01*
X168410476Y-108829523D01*
X168448571Y-108905714D01*
X168486666Y-108943809D01*
X168562857Y-108981904D01*
X168715238Y-108981904D01*
X168791428Y-108943809D01*
X168829523Y-108905714D01*
X168867619Y-108829523D01*
X168867619Y-108639047D01*
X168829523Y-108562857D01*
X168791428Y-108524761D01*
X168715238Y-108486666D01*
X168562857Y-108486666D01*
X168486666Y-108524761D01*
X168448571Y-108562857D01*
X168410476Y-108639047D01*
%TO.C,R5*%
X119066666Y-88361904D02*
X118800000Y-87980952D01*
X118609523Y-88361904D02*
X118609523Y-87561904D01*
X118914285Y-87561904D01*
X118990476Y-87600000D01*
X119028571Y-87638095D01*
X119066666Y-87714285D01*
X119066666Y-87828571D01*
X119028571Y-87904761D01*
X118990476Y-87942857D01*
X118914285Y-87980952D01*
X118609523Y-87980952D01*
X119790476Y-87561904D02*
X119409523Y-87561904D01*
X119371428Y-87942857D01*
X119409523Y-87904761D01*
X119485714Y-87866666D01*
X119676190Y-87866666D01*
X119752380Y-87904761D01*
X119790476Y-87942857D01*
X119828571Y-88019047D01*
X119828571Y-88209523D01*
X119790476Y-88285714D01*
X119752380Y-88323809D01*
X119676190Y-88361904D01*
X119485714Y-88361904D01*
X119409523Y-88323809D01*
X119371428Y-88285714D01*
%TO.C,K5*%
X197421904Y-82430476D02*
X196621904Y-82430476D01*
X197421904Y-81973333D02*
X196964761Y-82316190D01*
X196621904Y-81973333D02*
X197079047Y-82430476D01*
X196621904Y-81249523D02*
X196621904Y-81630476D01*
X197002857Y-81668571D01*
X196964761Y-81630476D01*
X196926666Y-81554285D01*
X196926666Y-81363809D01*
X196964761Y-81287619D01*
X197002857Y-81249523D01*
X197079047Y-81211428D01*
X197269523Y-81211428D01*
X197345714Y-81249523D01*
X197383809Y-81287619D01*
X197421904Y-81363809D01*
X197421904Y-81554285D01*
X197383809Y-81630476D01*
X197345714Y-81668571D01*
%TO.C,R52*%
X221385714Y-91461904D02*
X221119047Y-91080952D01*
X220928571Y-91461904D02*
X220928571Y-90661904D01*
X221233333Y-90661904D01*
X221309523Y-90700000D01*
X221347619Y-90738095D01*
X221385714Y-90814285D01*
X221385714Y-90928571D01*
X221347619Y-91004761D01*
X221309523Y-91042857D01*
X221233333Y-91080952D01*
X220928571Y-91080952D01*
X222109523Y-90661904D02*
X221728571Y-90661904D01*
X221690476Y-91042857D01*
X221728571Y-91004761D01*
X221804761Y-90966666D01*
X221995238Y-90966666D01*
X222071428Y-91004761D01*
X222109523Y-91042857D01*
X222147619Y-91119047D01*
X222147619Y-91309523D01*
X222109523Y-91385714D01*
X222071428Y-91423809D01*
X221995238Y-91461904D01*
X221804761Y-91461904D01*
X221728571Y-91423809D01*
X221690476Y-91385714D01*
X222452380Y-90738095D02*
X222490476Y-90700000D01*
X222566666Y-90661904D01*
X222757142Y-90661904D01*
X222833333Y-90700000D01*
X222871428Y-90738095D01*
X222909523Y-90814285D01*
X222909523Y-90890476D01*
X222871428Y-91004761D01*
X222414285Y-91461904D01*
X222909523Y-91461904D01*
%TO.C,C5*%
X94685714Y-100008333D02*
X94723809Y-100046428D01*
X94761904Y-100160714D01*
X94761904Y-100236904D01*
X94723809Y-100351190D01*
X94647619Y-100427380D01*
X94571428Y-100465476D01*
X94419047Y-100503571D01*
X94304761Y-100503571D01*
X94152380Y-100465476D01*
X94076190Y-100427380D01*
X94000000Y-100351190D01*
X93961904Y-100236904D01*
X93961904Y-100160714D01*
X94000000Y-100046428D01*
X94038095Y-100008333D01*
X93961904Y-99284523D02*
X93961904Y-99665476D01*
X94342857Y-99703571D01*
X94304761Y-99665476D01*
X94266666Y-99589285D01*
X94266666Y-99398809D01*
X94304761Y-99322619D01*
X94342857Y-99284523D01*
X94419047Y-99246428D01*
X94609523Y-99246428D01*
X94685714Y-99284523D01*
X94723809Y-99322619D01*
X94761904Y-99398809D01*
X94761904Y-99589285D01*
X94723809Y-99665476D01*
X94685714Y-99703571D01*
%TO.C,R11*%
X136836904Y-94589285D02*
X136455952Y-94855952D01*
X136836904Y-95046428D02*
X136036904Y-95046428D01*
X136036904Y-94741666D01*
X136075000Y-94665476D01*
X136113095Y-94627380D01*
X136189285Y-94589285D01*
X136303571Y-94589285D01*
X136379761Y-94627380D01*
X136417857Y-94665476D01*
X136455952Y-94741666D01*
X136455952Y-95046428D01*
X136836904Y-93827380D02*
X136836904Y-94284523D01*
X136836904Y-94055952D02*
X136036904Y-94055952D01*
X136151190Y-94132142D01*
X136227380Y-94208333D01*
X136265476Y-94284523D01*
X136836904Y-93065476D02*
X136836904Y-93522619D01*
X136836904Y-93294047D02*
X136036904Y-93294047D01*
X136151190Y-93370238D01*
X136227380Y-93446428D01*
X136265476Y-93522619D01*
%TO.C,R26*%
X179904714Y-88161904D02*
X179638047Y-87780952D01*
X179447571Y-88161904D02*
X179447571Y-87361904D01*
X179752333Y-87361904D01*
X179828523Y-87400000D01*
X179866619Y-87438095D01*
X179904714Y-87514285D01*
X179904714Y-87628571D01*
X179866619Y-87704761D01*
X179828523Y-87742857D01*
X179752333Y-87780952D01*
X179447571Y-87780952D01*
X180209476Y-87438095D02*
X180247571Y-87400000D01*
X180323761Y-87361904D01*
X180514238Y-87361904D01*
X180590428Y-87400000D01*
X180628523Y-87438095D01*
X180666619Y-87514285D01*
X180666619Y-87590476D01*
X180628523Y-87704761D01*
X180171380Y-88161904D01*
X180666619Y-88161904D01*
X181352333Y-87361904D02*
X181199952Y-87361904D01*
X181123761Y-87400000D01*
X181085666Y-87438095D01*
X181009476Y-87552380D01*
X180971380Y-87704761D01*
X180971380Y-88009523D01*
X181009476Y-88085714D01*
X181047571Y-88123809D01*
X181123761Y-88161904D01*
X181276142Y-88161904D01*
X181352333Y-88123809D01*
X181390428Y-88085714D01*
X181428523Y-88009523D01*
X181428523Y-87819047D01*
X181390428Y-87742857D01*
X181352333Y-87704761D01*
X181276142Y-87666666D01*
X181123761Y-87666666D01*
X181047571Y-87704761D01*
X181009476Y-87742857D01*
X180971380Y-87819047D01*
%TO.C,J8*%
X138133333Y-106211904D02*
X138133333Y-106783333D01*
X138095238Y-106897619D01*
X138019047Y-106973809D01*
X137904761Y-107011904D01*
X137828571Y-107011904D01*
X138628571Y-106554761D02*
X138552380Y-106516666D01*
X138514285Y-106478571D01*
X138476190Y-106402380D01*
X138476190Y-106364285D01*
X138514285Y-106288095D01*
X138552380Y-106250000D01*
X138628571Y-106211904D01*
X138780952Y-106211904D01*
X138857142Y-106250000D01*
X138895238Y-106288095D01*
X138933333Y-106364285D01*
X138933333Y-106402380D01*
X138895238Y-106478571D01*
X138857142Y-106516666D01*
X138780952Y-106554761D01*
X138628571Y-106554761D01*
X138552380Y-106592857D01*
X138514285Y-106630952D01*
X138476190Y-106707142D01*
X138476190Y-106859523D01*
X138514285Y-106935714D01*
X138552380Y-106973809D01*
X138628571Y-107011904D01*
X138780952Y-107011904D01*
X138857142Y-106973809D01*
X138895238Y-106935714D01*
X138933333Y-106859523D01*
X138933333Y-106707142D01*
X138895238Y-106630952D01*
X138857142Y-106592857D01*
X138780952Y-106554761D01*
%TO.C,J2*%
X90086904Y-100791666D02*
X90658333Y-100791666D01*
X90772619Y-100829761D01*
X90848809Y-100905952D01*
X90886904Y-101020238D01*
X90886904Y-101096428D01*
X90163095Y-100448809D02*
X90125000Y-100410714D01*
X90086904Y-100334523D01*
X90086904Y-100144047D01*
X90125000Y-100067857D01*
X90163095Y-100029761D01*
X90239285Y-99991666D01*
X90315476Y-99991666D01*
X90429761Y-100029761D01*
X90886904Y-100486904D01*
X90886904Y-99991666D01*
%TO.C,R48*%
X212011904Y-92514285D02*
X211630952Y-92780952D01*
X212011904Y-92971428D02*
X211211904Y-92971428D01*
X211211904Y-92666666D01*
X211250000Y-92590476D01*
X211288095Y-92552380D01*
X211364285Y-92514285D01*
X211478571Y-92514285D01*
X211554761Y-92552380D01*
X211592857Y-92590476D01*
X211630952Y-92666666D01*
X211630952Y-92971428D01*
X211478571Y-91828571D02*
X212011904Y-91828571D01*
X211173809Y-92019047D02*
X211745238Y-92209523D01*
X211745238Y-91714285D01*
X211554761Y-91295238D02*
X211516666Y-91371428D01*
X211478571Y-91409523D01*
X211402380Y-91447619D01*
X211364285Y-91447619D01*
X211288095Y-91409523D01*
X211250000Y-91371428D01*
X211211904Y-91295238D01*
X211211904Y-91142857D01*
X211250000Y-91066666D01*
X211288095Y-91028571D01*
X211364285Y-90990476D01*
X211402380Y-90990476D01*
X211478571Y-91028571D01*
X211516666Y-91066666D01*
X211554761Y-91142857D01*
X211554761Y-91295238D01*
X211592857Y-91371428D01*
X211630952Y-91409523D01*
X211707142Y-91447619D01*
X211859523Y-91447619D01*
X211935714Y-91409523D01*
X211973809Y-91371428D01*
X212011904Y-91295238D01*
X212011904Y-91142857D01*
X211973809Y-91066666D01*
X211935714Y-91028571D01*
X211859523Y-90990476D01*
X211707142Y-90990476D01*
X211630952Y-91028571D01*
X211592857Y-91066666D01*
X211554761Y-91142857D01*
%TO.C,Q3*%
X121923809Y-82838095D02*
X121847619Y-82800000D01*
X121771428Y-82723809D01*
X121657142Y-82609523D01*
X121580952Y-82571428D01*
X121504761Y-82571428D01*
X121542857Y-82761904D02*
X121466666Y-82723809D01*
X121390476Y-82647619D01*
X121352380Y-82495238D01*
X121352380Y-82228571D01*
X121390476Y-82076190D01*
X121466666Y-82000000D01*
X121542857Y-81961904D01*
X121695238Y-81961904D01*
X121771428Y-82000000D01*
X121847619Y-82076190D01*
X121885714Y-82228571D01*
X121885714Y-82495238D01*
X121847619Y-82647619D01*
X121771428Y-82723809D01*
X121695238Y-82761904D01*
X121542857Y-82761904D01*
X122152380Y-81961904D02*
X122647619Y-81961904D01*
X122380952Y-82266666D01*
X122495238Y-82266666D01*
X122571428Y-82304761D01*
X122609523Y-82342857D01*
X122647619Y-82419047D01*
X122647619Y-82609523D01*
X122609523Y-82685714D01*
X122571428Y-82723809D01*
X122495238Y-82761904D01*
X122266666Y-82761904D01*
X122190476Y-82723809D01*
X122152380Y-82685714D01*
D10*
%TO.C,U4*%
X158472380Y-113881904D02*
X159281904Y-113881904D01*
X159377142Y-113834285D01*
X159424761Y-113786666D01*
X159472380Y-113691428D01*
X159472380Y-113500952D01*
X159424761Y-113405714D01*
X159377142Y-113358095D01*
X159281904Y-113310476D01*
X158472380Y-113310476D01*
X158805714Y-112405714D02*
X159472380Y-112405714D01*
X158424761Y-112643809D02*
X159139047Y-112881904D01*
X159139047Y-112262857D01*
D11*
%TO.C,R1*%
X91861904Y-88633333D02*
X91480952Y-88900000D01*
X91861904Y-89090476D02*
X91061904Y-89090476D01*
X91061904Y-88785714D01*
X91100000Y-88709523D01*
X91138095Y-88671428D01*
X91214285Y-88633333D01*
X91328571Y-88633333D01*
X91404761Y-88671428D01*
X91442857Y-88709523D01*
X91480952Y-88785714D01*
X91480952Y-89090476D01*
X91861904Y-87871428D02*
X91861904Y-88328571D01*
X91861904Y-88100000D02*
X91061904Y-88100000D01*
X91176190Y-88176190D01*
X91252380Y-88252380D01*
X91290476Y-88328571D01*
%TO.C,D11*%
X178028571Y-82761904D02*
X178028571Y-81961904D01*
X178219047Y-81961904D01*
X178333333Y-82000000D01*
X178409523Y-82076190D01*
X178447619Y-82152380D01*
X178485714Y-82304761D01*
X178485714Y-82419047D01*
X178447619Y-82571428D01*
X178409523Y-82647619D01*
X178333333Y-82723809D01*
X178219047Y-82761904D01*
X178028571Y-82761904D01*
X179247619Y-82761904D02*
X178790476Y-82761904D01*
X179019047Y-82761904D02*
X179019047Y-81961904D01*
X178942857Y-82076190D01*
X178866666Y-82152380D01*
X178790476Y-82190476D01*
X180009523Y-82761904D02*
X179552380Y-82761904D01*
X179780952Y-82761904D02*
X179780952Y-81961904D01*
X179704761Y-82076190D01*
X179628571Y-82152380D01*
X179552380Y-82190476D01*
%TO.C,Q15*%
X203142857Y-82838095D02*
X203066666Y-82800000D01*
X202990476Y-82723809D01*
X202876190Y-82609523D01*
X202800000Y-82571428D01*
X202723809Y-82571428D01*
X202761904Y-82761904D02*
X202685714Y-82723809D01*
X202609523Y-82647619D01*
X202571428Y-82495238D01*
X202571428Y-82228571D01*
X202609523Y-82076190D01*
X202685714Y-82000000D01*
X202761904Y-81961904D01*
X202914285Y-81961904D01*
X202990476Y-82000000D01*
X203066666Y-82076190D01*
X203104761Y-82228571D01*
X203104761Y-82495238D01*
X203066666Y-82647619D01*
X202990476Y-82723809D01*
X202914285Y-82761904D01*
X202761904Y-82761904D01*
X203866666Y-82761904D02*
X203409523Y-82761904D01*
X203638095Y-82761904D02*
X203638095Y-81961904D01*
X203561904Y-82076190D01*
X203485714Y-82152380D01*
X203409523Y-82190476D01*
X204590476Y-81961904D02*
X204209523Y-81961904D01*
X204171428Y-82342857D01*
X204209523Y-82304761D01*
X204285714Y-82266666D01*
X204476190Y-82266666D01*
X204552380Y-82304761D01*
X204590476Y-82342857D01*
X204628571Y-82419047D01*
X204628571Y-82609523D01*
X204590476Y-82685714D01*
X204552380Y-82723809D01*
X204476190Y-82761904D01*
X204285714Y-82761904D01*
X204209523Y-82723809D01*
X204171428Y-82685714D01*
%TO.C,J14*%
X184632380Y-108441904D02*
X184632380Y-109013333D01*
X184594285Y-109127619D01*
X184518095Y-109203809D01*
X184403809Y-109241904D01*
X184327619Y-109241904D01*
X185432380Y-109241904D02*
X184975238Y-109241904D01*
X185203809Y-109241904D02*
X185203809Y-108441904D01*
X185127619Y-108556190D01*
X185051428Y-108632380D01*
X184975238Y-108670476D01*
X186118095Y-108708571D02*
X186118095Y-109241904D01*
X185927619Y-108403809D02*
X185737142Y-108975238D01*
X186232380Y-108975238D01*
%TO.C,Q16*%
X211242857Y-108938095D02*
X211166666Y-108900000D01*
X211090476Y-108823809D01*
X210976190Y-108709523D01*
X210900000Y-108671428D01*
X210823809Y-108671428D01*
X210861904Y-108861904D02*
X210785714Y-108823809D01*
X210709523Y-108747619D01*
X210671428Y-108595238D01*
X210671428Y-108328571D01*
X210709523Y-108176190D01*
X210785714Y-108100000D01*
X210861904Y-108061904D01*
X211014285Y-108061904D01*
X211090476Y-108100000D01*
X211166666Y-108176190D01*
X211204761Y-108328571D01*
X211204761Y-108595238D01*
X211166666Y-108747619D01*
X211090476Y-108823809D01*
X211014285Y-108861904D01*
X210861904Y-108861904D01*
X211966666Y-108861904D02*
X211509523Y-108861904D01*
X211738095Y-108861904D02*
X211738095Y-108061904D01*
X211661904Y-108176190D01*
X211585714Y-108252380D01*
X211509523Y-108290476D01*
X212652380Y-108061904D02*
X212500000Y-108061904D01*
X212423809Y-108100000D01*
X212385714Y-108138095D01*
X212309523Y-108252380D01*
X212271428Y-108404761D01*
X212271428Y-108709523D01*
X212309523Y-108785714D01*
X212347619Y-108823809D01*
X212423809Y-108861904D01*
X212576190Y-108861904D01*
X212652380Y-108823809D01*
X212690476Y-108785714D01*
X212728571Y-108709523D01*
X212728571Y-108519047D01*
X212690476Y-108442857D01*
X212652380Y-108404761D01*
X212576190Y-108366666D01*
X212423809Y-108366666D01*
X212347619Y-108404761D01*
X212309523Y-108442857D01*
X212271428Y-108519047D01*
%TO.C,R8*%
X130561904Y-93108333D02*
X130180952Y-93375000D01*
X130561904Y-93565476D02*
X129761904Y-93565476D01*
X129761904Y-93260714D01*
X129800000Y-93184523D01*
X129838095Y-93146428D01*
X129914285Y-93108333D01*
X130028571Y-93108333D01*
X130104761Y-93146428D01*
X130142857Y-93184523D01*
X130180952Y-93260714D01*
X130180952Y-93565476D01*
X130104761Y-92651190D02*
X130066666Y-92727380D01*
X130028571Y-92765476D01*
X129952380Y-92803571D01*
X129914285Y-92803571D01*
X129838095Y-92765476D01*
X129800000Y-92727380D01*
X129761904Y-92651190D01*
X129761904Y-92498809D01*
X129800000Y-92422619D01*
X129838095Y-92384523D01*
X129914285Y-92346428D01*
X129952380Y-92346428D01*
X130028571Y-92384523D01*
X130066666Y-92422619D01*
X130104761Y-92498809D01*
X130104761Y-92651190D01*
X130142857Y-92727380D01*
X130180952Y-92765476D01*
X130257142Y-92803571D01*
X130409523Y-92803571D01*
X130485714Y-92765476D01*
X130523809Y-92727380D01*
X130561904Y-92651190D01*
X130561904Y-92498809D01*
X130523809Y-92422619D01*
X130485714Y-92384523D01*
X130409523Y-92346428D01*
X130257142Y-92346428D01*
X130180952Y-92384523D01*
X130142857Y-92422619D01*
X130104761Y-92498809D01*
%TO.C,C13*%
X100660714Y-102885714D02*
X100622619Y-102923809D01*
X100508333Y-102961904D01*
X100432142Y-102961904D01*
X100317857Y-102923809D01*
X100241666Y-102847619D01*
X100203571Y-102771428D01*
X100165476Y-102619047D01*
X100165476Y-102504761D01*
X100203571Y-102352380D01*
X100241666Y-102276190D01*
X100317857Y-102200000D01*
X100432142Y-102161904D01*
X100508333Y-102161904D01*
X100622619Y-102200000D01*
X100660714Y-102238095D01*
X101422619Y-102961904D02*
X100965476Y-102961904D01*
X101194047Y-102961904D02*
X101194047Y-102161904D01*
X101117857Y-102276190D01*
X101041666Y-102352380D01*
X100965476Y-102390476D01*
X101689285Y-102161904D02*
X102184523Y-102161904D01*
X101917857Y-102466666D01*
X102032142Y-102466666D01*
X102108333Y-102504761D01*
X102146428Y-102542857D01*
X102184523Y-102619047D01*
X102184523Y-102809523D01*
X102146428Y-102885714D01*
X102108333Y-102923809D01*
X102032142Y-102961904D01*
X101803571Y-102961904D01*
X101727380Y-102923809D01*
X101689285Y-102885714D01*
%TO.C,C8*%
X119066666Y-105685714D02*
X119028571Y-105723809D01*
X118914285Y-105761904D01*
X118838095Y-105761904D01*
X118723809Y-105723809D01*
X118647619Y-105647619D01*
X118609523Y-105571428D01*
X118571428Y-105419047D01*
X118571428Y-105304761D01*
X118609523Y-105152380D01*
X118647619Y-105076190D01*
X118723809Y-105000000D01*
X118838095Y-104961904D01*
X118914285Y-104961904D01*
X119028571Y-105000000D01*
X119066666Y-105038095D01*
X119523809Y-105304761D02*
X119447619Y-105266666D01*
X119409523Y-105228571D01*
X119371428Y-105152380D01*
X119371428Y-105114285D01*
X119409523Y-105038095D01*
X119447619Y-105000000D01*
X119523809Y-104961904D01*
X119676190Y-104961904D01*
X119752380Y-105000000D01*
X119790476Y-105038095D01*
X119828571Y-105114285D01*
X119828571Y-105152380D01*
X119790476Y-105228571D01*
X119752380Y-105266666D01*
X119676190Y-105304761D01*
X119523809Y-105304761D01*
X119447619Y-105342857D01*
X119409523Y-105380952D01*
X119371428Y-105457142D01*
X119371428Y-105609523D01*
X119409523Y-105685714D01*
X119447619Y-105723809D01*
X119523809Y-105761904D01*
X119676190Y-105761904D01*
X119752380Y-105723809D01*
X119790476Y-105685714D01*
X119828571Y-105609523D01*
X119828571Y-105457142D01*
X119790476Y-105380952D01*
X119752380Y-105342857D01*
X119676190Y-105304761D01*
%TO.C,FB2*%
X160192857Y-106516666D02*
X160192857Y-106783333D01*
X160611904Y-106783333D02*
X159811904Y-106783333D01*
X159811904Y-106402380D01*
X160192857Y-105830952D02*
X160230952Y-105716666D01*
X160269047Y-105678571D01*
X160345238Y-105640476D01*
X160459523Y-105640476D01*
X160535714Y-105678571D01*
X160573809Y-105716666D01*
X160611904Y-105792857D01*
X160611904Y-106097619D01*
X159811904Y-106097619D01*
X159811904Y-105830952D01*
X159850000Y-105754761D01*
X159888095Y-105716666D01*
X159964285Y-105678571D01*
X160040476Y-105678571D01*
X160116666Y-105716666D01*
X160154761Y-105754761D01*
X160192857Y-105830952D01*
X160192857Y-106097619D01*
X159888095Y-105335714D02*
X159850000Y-105297619D01*
X159811904Y-105221428D01*
X159811904Y-105030952D01*
X159850000Y-104954761D01*
X159888095Y-104916666D01*
X159964285Y-104878571D01*
X160040476Y-104878571D01*
X160154761Y-104916666D01*
X160611904Y-105373809D01*
X160611904Y-104878571D01*
%TO.C,J5*%
X118458333Y-101536904D02*
X118458333Y-102108333D01*
X118420238Y-102222619D01*
X118344047Y-102298809D01*
X118229761Y-102336904D01*
X118153571Y-102336904D01*
X119220238Y-101536904D02*
X118839285Y-101536904D01*
X118801190Y-101917857D01*
X118839285Y-101879761D01*
X118915476Y-101841666D01*
X119105952Y-101841666D01*
X119182142Y-101879761D01*
X119220238Y-101917857D01*
X119258333Y-101994047D01*
X119258333Y-102184523D01*
X119220238Y-102260714D01*
X119182142Y-102298809D01*
X119105952Y-102336904D01*
X118915476Y-102336904D01*
X118839285Y-102298809D01*
X118801190Y-102260714D01*
%TO.C,Q4*%
X142123809Y-82838095D02*
X142047619Y-82800000D01*
X141971428Y-82723809D01*
X141857142Y-82609523D01*
X141780952Y-82571428D01*
X141704761Y-82571428D01*
X141742857Y-82761904D02*
X141666666Y-82723809D01*
X141590476Y-82647619D01*
X141552380Y-82495238D01*
X141552380Y-82228571D01*
X141590476Y-82076190D01*
X141666666Y-82000000D01*
X141742857Y-81961904D01*
X141895238Y-81961904D01*
X141971428Y-82000000D01*
X142047619Y-82076190D01*
X142085714Y-82228571D01*
X142085714Y-82495238D01*
X142047619Y-82647619D01*
X141971428Y-82723809D01*
X141895238Y-82761904D01*
X141742857Y-82761904D01*
X142771428Y-82228571D02*
X142771428Y-82761904D01*
X142580952Y-81923809D02*
X142390476Y-82495238D01*
X142885714Y-82495238D01*
%TO.C,C6*%
X97430714Y-104358333D02*
X97468809Y-104396428D01*
X97506904Y-104510714D01*
X97506904Y-104586904D01*
X97468809Y-104701190D01*
X97392619Y-104777380D01*
X97316428Y-104815476D01*
X97164047Y-104853571D01*
X97049761Y-104853571D01*
X96897380Y-104815476D01*
X96821190Y-104777380D01*
X96745000Y-104701190D01*
X96706904Y-104586904D01*
X96706904Y-104510714D01*
X96745000Y-104396428D01*
X96783095Y-104358333D01*
X96706904Y-103672619D02*
X96706904Y-103825000D01*
X96745000Y-103901190D01*
X96783095Y-103939285D01*
X96897380Y-104015476D01*
X97049761Y-104053571D01*
X97354523Y-104053571D01*
X97430714Y-104015476D01*
X97468809Y-103977380D01*
X97506904Y-103901190D01*
X97506904Y-103748809D01*
X97468809Y-103672619D01*
X97430714Y-103634523D01*
X97354523Y-103596428D01*
X97164047Y-103596428D01*
X97087857Y-103634523D01*
X97049761Y-103672619D01*
X97011666Y-103748809D01*
X97011666Y-103901190D01*
X97049761Y-103977380D01*
X97087857Y-104015476D01*
X97164047Y-104053571D01*
%TO.C,R18*%
X162711904Y-99921785D02*
X162330952Y-100188452D01*
X162711904Y-100378928D02*
X161911904Y-100378928D01*
X161911904Y-100074166D01*
X161950000Y-99997976D01*
X161988095Y-99959880D01*
X162064285Y-99921785D01*
X162178571Y-99921785D01*
X162254761Y-99959880D01*
X162292857Y-99997976D01*
X162330952Y-100074166D01*
X162330952Y-100378928D01*
X162711904Y-99159880D02*
X162711904Y-99617023D01*
X162711904Y-99388452D02*
X161911904Y-99388452D01*
X162026190Y-99464642D01*
X162102380Y-99540833D01*
X162140476Y-99617023D01*
X162254761Y-98702738D02*
X162216666Y-98778928D01*
X162178571Y-98817023D01*
X162102380Y-98855119D01*
X162064285Y-98855119D01*
X161988095Y-98817023D01*
X161950000Y-98778928D01*
X161911904Y-98702738D01*
X161911904Y-98550357D01*
X161950000Y-98474166D01*
X161988095Y-98436071D01*
X162064285Y-98397976D01*
X162102380Y-98397976D01*
X162178571Y-98436071D01*
X162216666Y-98474166D01*
X162254761Y-98550357D01*
X162254761Y-98702738D01*
X162292857Y-98778928D01*
X162330952Y-98817023D01*
X162407142Y-98855119D01*
X162559523Y-98855119D01*
X162635714Y-98817023D01*
X162673809Y-98778928D01*
X162711904Y-98702738D01*
X162711904Y-98550357D01*
X162673809Y-98474166D01*
X162635714Y-98436071D01*
X162559523Y-98397976D01*
X162407142Y-98397976D01*
X162330952Y-98436071D01*
X162292857Y-98474166D01*
X162254761Y-98550357D01*
%TO.C,C3*%
X92685714Y-104833333D02*
X92723809Y-104871428D01*
X92761904Y-104985714D01*
X92761904Y-105061904D01*
X92723809Y-105176190D01*
X92647619Y-105252380D01*
X92571428Y-105290476D01*
X92419047Y-105328571D01*
X92304761Y-105328571D01*
X92152380Y-105290476D01*
X92076190Y-105252380D01*
X92000000Y-105176190D01*
X91961904Y-105061904D01*
X91961904Y-104985714D01*
X92000000Y-104871428D01*
X92038095Y-104833333D01*
X91961904Y-104566666D02*
X91961904Y-104071428D01*
X92266666Y-104338095D01*
X92266666Y-104223809D01*
X92304761Y-104147619D01*
X92342857Y-104109523D01*
X92419047Y-104071428D01*
X92609523Y-104071428D01*
X92685714Y-104109523D01*
X92723809Y-104147619D01*
X92761904Y-104223809D01*
X92761904Y-104452380D01*
X92723809Y-104528571D01*
X92685714Y-104566666D01*
D12*
%TO.C,J3*%
X99240000Y-72780000D02*
X99240000Y-77080000D01*
X95180000Y-77940000D02*
X103800000Y-77940000D01*
X98490000Y-72780000D02*
X99240000Y-72780000D01*
X96990000Y-77080000D02*
X96240000Y-77080000D01*
X99990000Y-72430000D02*
X99740000Y-71430000D01*
X101990000Y-72430000D02*
X101990000Y-72780000D01*
X102740000Y-72780000D02*
X102740000Y-77080000D01*
X99240000Y-71430000D02*
X98990000Y-72430000D01*
X103800000Y-77940000D02*
X103800000Y-70470000D01*
X96240000Y-71430000D02*
X99240000Y-71430000D01*
X103800000Y-70470000D02*
X95180000Y-70470000D01*
X102490000Y-72430000D02*
X101990000Y-72430000D01*
X96490000Y-72430000D02*
X96240000Y-71430000D01*
X94790000Y-70080000D02*
X96790000Y-70080000D01*
X98990000Y-72430000D02*
X98490000Y-72430000D01*
X95180000Y-70470000D02*
X95180000Y-77940000D01*
X94790000Y-71330000D02*
X94790000Y-70080000D01*
X102740000Y-77080000D02*
X101990000Y-77080000D01*
X99240000Y-77080000D02*
X98490000Y-77080000D01*
X96240000Y-72780000D02*
X96990000Y-72780000D01*
X96990000Y-72780000D02*
X96990000Y-72430000D01*
X102740000Y-71430000D02*
X102490000Y-72430000D01*
X96990000Y-72430000D02*
X96490000Y-72430000D01*
X100490000Y-77080000D02*
X99740000Y-77080000D01*
X96240000Y-77080000D02*
X96240000Y-72780000D01*
X99740000Y-77080000D02*
X99740000Y-72780000D01*
X100490000Y-72430000D02*
X99990000Y-72430000D01*
X98490000Y-72430000D02*
X98490000Y-72780000D01*
X99740000Y-72780000D02*
X100490000Y-72780000D01*
X99740000Y-71430000D02*
X102740000Y-71430000D01*
X101990000Y-72780000D02*
X102740000Y-72780000D01*
X100490000Y-72780000D02*
X100490000Y-72430000D01*
X101989647Y-77079845D02*
G75*
G03*
X100490000Y-77080000I-749647J-1700155D01*
G01*
X98489647Y-77079845D02*
G75*
G03*
X96990000Y-77080000I-749647J-1700155D01*
G01*
%TO.C,TP2*%
X96725000Y-114200000D02*
G75*
G03*
X96725000Y-114200000I-700000J0D01*
G01*
%TO.C,R29*%
X184334879Y-106720000D02*
X184670121Y-106720000D01*
X184334879Y-107480000D02*
X184670121Y-107480000D01*
%TO.C,R30*%
X186205000Y-97657379D02*
X186205000Y-97992621D01*
X185445000Y-97657379D02*
X185445000Y-97992621D01*
%TO.C,D13*%
X218040000Y-84737500D02*
X218040000Y-84087500D01*
X221160000Y-84737500D02*
X221160000Y-85387500D01*
X218040000Y-84737500D02*
X218040000Y-85387500D01*
X221160000Y-84737500D02*
X221160000Y-83062500D01*
%TO.C,R2*%
X101732776Y-85315000D02*
X102242224Y-85315000D01*
X101732776Y-86360000D02*
X102242224Y-86360000D01*
%TO.C,J10*%
X160533500Y-72442500D02*
X160033500Y-72442500D01*
X163533500Y-72792500D02*
X164283500Y-72792500D01*
X165343500Y-77952500D02*
X165343500Y-70482500D01*
X160783500Y-77092500D02*
X160033500Y-77092500D01*
X158533500Y-72442500D02*
X158033500Y-72442500D01*
X162033500Y-72442500D02*
X161533500Y-72442500D01*
X160783500Y-72792500D02*
X160783500Y-77092500D01*
X165343500Y-70482500D02*
X156723500Y-70482500D01*
X160033500Y-72442500D02*
X160033500Y-72792500D01*
X158033500Y-72442500D02*
X157783500Y-71442500D01*
X162033500Y-77092500D02*
X161283500Y-77092500D01*
X157783500Y-72792500D02*
X158533500Y-72792500D01*
X163533500Y-72442500D02*
X163533500Y-72792500D01*
X161533500Y-72442500D02*
X161283500Y-71442500D01*
X156723500Y-77952500D02*
X165343500Y-77952500D01*
X156333500Y-71342500D02*
X156333500Y-70092500D01*
X164283500Y-72792500D02*
X164283500Y-77092500D01*
X160783500Y-71442500D02*
X160533500Y-72442500D01*
X164033500Y-72442500D02*
X163533500Y-72442500D01*
X164283500Y-71442500D02*
X164033500Y-72442500D01*
X157783500Y-77092500D02*
X157783500Y-72792500D01*
X156333500Y-70092500D02*
X158333500Y-70092500D01*
X164283500Y-77092500D02*
X163533500Y-77092500D01*
X158533500Y-72792500D02*
X158533500Y-72442500D01*
X161283500Y-77092500D02*
X161283500Y-72792500D01*
X157783500Y-71442500D02*
X160783500Y-71442500D01*
X156723500Y-70482500D02*
X156723500Y-77952500D01*
X161283500Y-71442500D02*
X164283500Y-71442500D01*
X158533500Y-77092500D02*
X157783500Y-77092500D01*
X162033500Y-72792500D02*
X162033500Y-72442500D01*
X160033500Y-72792500D02*
X160783500Y-72792500D01*
X161283500Y-72792500D02*
X162033500Y-72792500D01*
X160033147Y-77092345D02*
G75*
G03*
X158533500Y-77092500I-749647J-1700155D01*
G01*
X163533147Y-77092345D02*
G75*
G03*
X162033500Y-77092500I-749647J-1700155D01*
G01*
%TO.C,C17*%
X127985000Y-92388748D02*
X127985000Y-93811252D01*
X126165000Y-92388748D02*
X126165000Y-93811252D01*
%TO.C,D10*%
X161550000Y-99687500D02*
X159630000Y-99687500D01*
X161550000Y-102547500D02*
X161550000Y-99687500D01*
X159630000Y-99687500D02*
X159630000Y-102547500D01*
%TO.C,R28*%
X184180000Y-95032379D02*
X184180000Y-95367621D01*
X183420000Y-95032379D02*
X183420000Y-95367621D01*
%TO.C,J1*%
X89665000Y-93790000D02*
X89665000Y-76330000D01*
X90465000Y-79680000D02*
X90465000Y-80280000D01*
X78945000Y-76330000D02*
X80745000Y-76330000D01*
X77445000Y-86060000D02*
X78945000Y-85810000D01*
X77445000Y-93790000D02*
X89665000Y-93790000D01*
X77445000Y-80980000D02*
X78945000Y-80730000D01*
X78945000Y-85810000D02*
X78945000Y-84310000D01*
X78945000Y-84310000D02*
X77445000Y-84060000D01*
X78945000Y-93790000D02*
X78945000Y-76330000D01*
X77445000Y-76330000D02*
X77445000Y-93790000D01*
X80745000Y-76330000D02*
X80745000Y-93790000D01*
X80745000Y-93790000D02*
X78945000Y-93790000D01*
X77445000Y-89140000D02*
X77445000Y-91140000D01*
X77445000Y-91140000D02*
X78945000Y-90890000D01*
X89665000Y-76330000D02*
X77445000Y-76330000D01*
X89865000Y-79980000D02*
X90465000Y-79680000D01*
X78945000Y-80730000D02*
X78945000Y-79230000D01*
X90465000Y-80280000D02*
X89865000Y-79980000D01*
X77445000Y-84060000D02*
X77445000Y-86060000D01*
X78945000Y-79230000D02*
X77445000Y-78980000D01*
X78945000Y-90890000D02*
X78945000Y-89390000D01*
X78945000Y-89390000D02*
X77445000Y-89140000D01*
X77445000Y-78980000D02*
X77445000Y-80980000D01*
%TO.C,D6*%
X132815000Y-94910000D02*
X134735000Y-94910000D01*
X134735000Y-94910000D02*
X134735000Y-92050000D01*
X132815000Y-92050000D02*
X132815000Y-94910000D01*
%TO.C,C11*%
X101565580Y-98115000D02*
X101284420Y-98115000D01*
X101565580Y-99135000D02*
X101284420Y-99135000D01*
%TO.C,Q12*%
X192075000Y-96460000D02*
X192725000Y-96460000D01*
X192075000Y-96460000D02*
X191425000Y-96460000D01*
X192075000Y-93340000D02*
X192725000Y-93340000D01*
X192075000Y-93340000D02*
X190400000Y-93340000D01*
%TO.C,R46*%
X210280000Y-101332379D02*
X210280000Y-101667621D01*
X209520000Y-101332379D02*
X209520000Y-101667621D01*
%TO.C,J13*%
X176533500Y-71342500D02*
X176533500Y-70092500D01*
X178733500Y-72442500D02*
X178233500Y-72442500D01*
X182233500Y-72792500D02*
X182233500Y-72442500D01*
X177983500Y-72792500D02*
X178733500Y-72792500D01*
X176923500Y-77952500D02*
X185543500Y-77952500D01*
X184483500Y-77092500D02*
X183733500Y-77092500D01*
X184483500Y-71442500D02*
X184233500Y-72442500D01*
X183733500Y-72442500D02*
X183733500Y-72792500D01*
X181483500Y-72792500D02*
X182233500Y-72792500D01*
X180233500Y-72442500D02*
X180233500Y-72792500D01*
X178733500Y-77092500D02*
X177983500Y-77092500D01*
X182233500Y-77092500D02*
X181483500Y-77092500D01*
X176923500Y-70482500D02*
X176923500Y-77952500D01*
X180983500Y-71442500D02*
X180733500Y-72442500D01*
X178233500Y-72442500D02*
X177983500Y-71442500D01*
X180983500Y-77092500D02*
X180233500Y-77092500D01*
X182233500Y-72442500D02*
X181733500Y-72442500D01*
X184233500Y-72442500D02*
X183733500Y-72442500D01*
X183733500Y-72792500D02*
X184483500Y-72792500D01*
X185543500Y-70482500D02*
X176923500Y-70482500D01*
X184483500Y-72792500D02*
X184483500Y-77092500D01*
X180983500Y-72792500D02*
X180983500Y-77092500D01*
X178733500Y-72792500D02*
X178733500Y-72442500D01*
X181733500Y-72442500D02*
X181483500Y-71442500D01*
X181483500Y-71442500D02*
X184483500Y-71442500D01*
X180233500Y-72792500D02*
X180983500Y-72792500D01*
X180733500Y-72442500D02*
X180233500Y-72442500D01*
X181483500Y-77092500D02*
X181483500Y-72792500D01*
X177983500Y-77092500D02*
X177983500Y-72792500D01*
X185543500Y-77952500D02*
X185543500Y-70482500D01*
X176533500Y-70092500D02*
X178533500Y-70092500D01*
X177983500Y-71442500D02*
X180983500Y-71442500D01*
X183733147Y-77092345D02*
G75*
G03*
X182233500Y-77092500I-749647J-1700155D01*
G01*
X180233147Y-77092345D02*
G75*
G03*
X178733500Y-77092500I-749647J-1700155D01*
G01*
%TO.C,K2*%
X134948500Y-89598000D02*
X124748500Y-89598000D01*
X128818500Y-85298000D02*
X131358500Y-85298000D01*
X134948500Y-89598000D02*
X134948500Y-69298000D01*
X126028500Y-85808000D02*
X126028500Y-87078000D01*
X131358500Y-86318000D02*
X128818500Y-86318000D01*
X124748500Y-89598000D02*
X124748500Y-69298000D01*
X130598500Y-86318000D02*
X129588500Y-85298000D01*
X128818500Y-85808000D02*
X126028500Y-85808000D01*
X131358500Y-85298000D02*
X131358500Y-85808000D01*
X128818500Y-85808000D02*
X128818500Y-85298000D01*
X134948500Y-69298000D02*
X124748500Y-69298000D01*
X131358500Y-85808000D02*
X131358500Y-86318000D01*
X128818500Y-86318000D02*
X128818500Y-85808000D01*
X133648500Y-85808000D02*
X131358500Y-85808000D01*
X133648500Y-87078000D02*
X133648500Y-85808000D01*
%TO.C,K4*%
X174848500Y-85808000D02*
X172558500Y-85808000D01*
X172558500Y-85298000D02*
X172558500Y-85808000D01*
X176148500Y-69298000D02*
X165948500Y-69298000D01*
X172558500Y-86318000D02*
X170018500Y-86318000D01*
X170018500Y-85808000D02*
X170018500Y-85298000D01*
X170018500Y-86318000D02*
X170018500Y-85808000D01*
X174848500Y-87078000D02*
X174848500Y-85808000D01*
X176148500Y-89598000D02*
X165948500Y-89598000D01*
X171798500Y-86318000D02*
X170788500Y-85298000D01*
X165948500Y-89598000D02*
X165948500Y-69298000D01*
X172558500Y-85808000D02*
X172558500Y-86318000D01*
X170018500Y-85808000D02*
X167228500Y-85808000D01*
X167228500Y-85808000D02*
X167228500Y-87078000D01*
X170018500Y-85298000D02*
X172558500Y-85298000D01*
X176148500Y-89598000D02*
X176148500Y-69298000D01*
%TO.C,C15*%
X110640000Y-97638748D02*
X110640000Y-98161252D01*
X112110000Y-97638748D02*
X112110000Y-98161252D01*
%TO.C,C4*%
X95115000Y-104365580D02*
X95115000Y-104084420D01*
X96135000Y-104365580D02*
X96135000Y-104084420D01*
%TO.C,R20*%
X168222500Y-95054724D02*
X168222500Y-94545276D01*
X167177500Y-95054724D02*
X167177500Y-94545276D01*
%TO.C,J12*%
X181282000Y-110575000D02*
X183082000Y-110575000D01*
X175472000Y-115785000D02*
X183092000Y-115785000D01*
X177282000Y-110575000D02*
X177282000Y-109825000D01*
X175472000Y-109815000D02*
X175472000Y-115785000D01*
X175482000Y-109825000D02*
X175482000Y-110575000D01*
X176232000Y-115025000D02*
X179282000Y-115025000D01*
X183092000Y-109815000D02*
X175472000Y-109815000D01*
X183082000Y-109825000D02*
X181282000Y-109825000D01*
X183082000Y-112075000D02*
X182332000Y-112075000D01*
X183082000Y-110575000D02*
X183082000Y-109825000D01*
X178782000Y-110575000D02*
X179782000Y-110575000D01*
X183092000Y-115785000D02*
X183092000Y-109815000D01*
X175482000Y-112075000D02*
X176232000Y-112075000D01*
X175182000Y-109525000D02*
X175182000Y-110775000D01*
X181282000Y-109825000D02*
X181282000Y-110575000D01*
X179782000Y-110575000D02*
X179782000Y-109825000D01*
X176432000Y-109525000D02*
X175182000Y-109525000D01*
X176232000Y-112075000D02*
X176232000Y-115025000D01*
X182332000Y-112075000D02*
X182332000Y-115025000D01*
X179782000Y-109825000D02*
X178782000Y-109825000D01*
X182332000Y-115025000D02*
X179282000Y-115025000D01*
X177282000Y-109825000D02*
X175482000Y-109825000D01*
X175482000Y-110575000D02*
X177282000Y-110575000D01*
X178782000Y-109825000D02*
X178782000Y-110575000D01*
%TO.C,K6*%
X213110000Y-85808000D02*
X213110000Y-86318000D01*
X215400000Y-85808000D02*
X213110000Y-85808000D01*
X210570000Y-85298000D02*
X213110000Y-85298000D01*
X210570000Y-85808000D02*
X207780000Y-85808000D01*
X216700000Y-89598000D02*
X216700000Y-69298000D01*
X212350000Y-86318000D02*
X211340000Y-85298000D01*
X210570000Y-86318000D02*
X210570000Y-85808000D01*
X216700000Y-69298000D02*
X206500000Y-69298000D01*
X216700000Y-89598000D02*
X206500000Y-89598000D01*
X213110000Y-85298000D02*
X213110000Y-85808000D01*
X210570000Y-85808000D02*
X210570000Y-85298000D01*
X213110000Y-86318000D02*
X210570000Y-86318000D01*
X206500000Y-89598000D02*
X206500000Y-69298000D01*
X215400000Y-87078000D02*
X215400000Y-85808000D01*
X207780000Y-85808000D02*
X207780000Y-87078000D01*
%TO.C,R37*%
X197622500Y-95254724D02*
X197622500Y-94745276D01*
X196577500Y-95254724D02*
X196577500Y-94745276D01*
%TO.C,TP1*%
X94225000Y-114200000D02*
G75*
G03*
X94225000Y-114200000I-700000J0D01*
G01*
%TO.C,J7*%
X137285000Y-113075000D02*
X136675000Y-113075000D01*
X129165000Y-110465000D02*
X129165000Y-115185000D01*
X129165000Y-115185000D02*
X137285000Y-115185000D01*
X130625000Y-110265000D02*
X130625000Y-110465000D01*
X130925000Y-110265000D02*
X130625000Y-110265000D01*
X134125000Y-114075000D02*
X134325000Y-114075000D01*
X130925000Y-110365000D02*
X130625000Y-110365000D01*
X132125000Y-114075000D02*
X132325000Y-114075000D01*
X134225000Y-114575000D02*
X134225000Y-114075000D01*
X137285000Y-111775000D02*
X136675000Y-111775000D01*
X137285000Y-110465000D02*
X129165000Y-110465000D01*
X129165000Y-113075000D02*
X129775000Y-113075000D01*
X130115000Y-110165000D02*
X128865000Y-110165000D01*
X137285000Y-115185000D02*
X137285000Y-110465000D01*
X132125000Y-114575000D02*
X132125000Y-114075000D01*
X129165000Y-111775000D02*
X129775000Y-111775000D01*
X128865000Y-110165000D02*
X128865000Y-111415000D01*
X132225000Y-114575000D02*
X132225000Y-114075000D01*
X136675000Y-114575000D02*
X136675000Y-111075000D01*
X130925000Y-110465000D02*
X130925000Y-110265000D01*
X131725000Y-110465000D02*
X131725000Y-111075000D01*
X129775000Y-114575000D02*
X136675000Y-114575000D01*
X134325000Y-114075000D02*
X134325000Y-114575000D01*
X129775000Y-111075000D02*
X129775000Y-114575000D01*
X134125000Y-114575000D02*
X134125000Y-114075000D01*
X132325000Y-114075000D02*
X132325000Y-114575000D01*
X136675000Y-111075000D02*
X134725000Y-111075000D01*
X131725000Y-111075000D02*
X129775000Y-111075000D01*
X134725000Y-111075000D02*
X134725000Y-110465000D01*
%TO.C,R34*%
X189697500Y-95154724D02*
X189697500Y-94645276D01*
X188652500Y-95154724D02*
X188652500Y-94645276D01*
%TO.C,C2*%
X92286252Y-105790000D02*
X91763748Y-105790000D01*
X92286252Y-107260000D02*
X91763748Y-107260000D01*
%TO.C,C1*%
X92833750Y-113471250D02*
X92833750Y-112683750D01*
X93227500Y-113077500D02*
X92440000Y-113077500D01*
X92200000Y-113575563D02*
X92200000Y-112290000D01*
X91135563Y-114640000D02*
X85380000Y-114640000D01*
X91135563Y-107820000D02*
X85380000Y-107820000D01*
X92200000Y-108884437D02*
X92200000Y-110170000D01*
X92200000Y-108884437D02*
X91135563Y-107820000D01*
X85380000Y-107820000D02*
X85380000Y-110170000D01*
X85380000Y-114640000D02*
X85380000Y-112290000D01*
X92200000Y-113575563D02*
X91135563Y-114640000D01*
%TO.C,Q9*%
X178650000Y-93340000D02*
X179300000Y-93340000D01*
X178650000Y-93340000D02*
X176975000Y-93340000D01*
X178650000Y-96460000D02*
X178000000Y-96460000D01*
X178650000Y-96460000D02*
X179300000Y-96460000D01*
%TO.C,R51*%
X220122500Y-95254724D02*
X220122500Y-94745276D01*
X219077500Y-95254724D02*
X219077500Y-94745276D01*
%TO.C,R47*%
X210280000Y-99057379D02*
X210280000Y-99392621D01*
X209520000Y-99057379D02*
X209520000Y-99392621D01*
%TO.C,J6*%
X132071529Y-97465000D02*
X131940000Y-97465000D01*
X135870000Y-96647470D02*
X135870000Y-95825000D01*
X133395000Y-97661529D02*
X133395000Y-97518471D01*
X132635000Y-99355000D02*
X131875000Y-99355000D01*
X133341529Y-97465000D02*
X133198471Y-97465000D01*
X133395000Y-99355000D02*
X133395000Y-98788471D01*
X135870000Y-99355000D02*
X135870000Y-98532530D01*
X131940000Y-97465000D02*
X131940000Y-97262530D01*
X133395000Y-99355000D02*
X135870000Y-99355000D01*
X135870000Y-97917470D02*
X135870000Y-97262530D01*
X131875000Y-99355000D02*
X131875000Y-98225000D01*
X131940000Y-96647470D02*
X131940000Y-95825000D01*
X131940000Y-95825000D02*
X135870000Y-95825000D01*
%TO.C,K3*%
X151558500Y-86318000D02*
X149018500Y-86318000D01*
X155148500Y-89598000D02*
X144948500Y-89598000D01*
X155148500Y-89598000D02*
X155148500Y-69298000D01*
X144948500Y-89598000D02*
X144948500Y-69298000D01*
X153848500Y-87078000D02*
X153848500Y-85808000D01*
X151558500Y-85808000D02*
X151558500Y-86318000D01*
X146228500Y-85808000D02*
X146228500Y-87078000D01*
X149018500Y-85808000D02*
X149018500Y-85298000D01*
X149018500Y-86318000D02*
X149018500Y-85808000D01*
X151558500Y-85298000D02*
X151558500Y-85808000D01*
X155148500Y-69298000D02*
X144948500Y-69298000D01*
X150798500Y-86318000D02*
X149788500Y-85298000D01*
X149018500Y-85298000D02*
X151558500Y-85298000D01*
X149018500Y-85808000D02*
X146228500Y-85808000D01*
X153848500Y-85808000D02*
X151558500Y-85808000D01*
%TO.C,C14*%
X105863748Y-97815000D02*
X106386252Y-97815000D01*
X105863748Y-99285000D02*
X106386252Y-99285000D01*
%TO.C,TP4*%
X101725000Y-114200000D02*
G75*
G03*
X101725000Y-114200000I-700000J0D01*
G01*
%TO.C,R23*%
X176172500Y-95154724D02*
X176172500Y-94645276D01*
X175127500Y-95154724D02*
X175127500Y-94645276D01*
D13*
%TO.C,U6*%
X204950000Y-105500000D02*
X204950000Y-104100000D01*
X205000000Y-101450000D02*
X208000000Y-101450000D01*
X205000000Y-103750000D02*
X205000000Y-101450000D01*
X208000000Y-103750000D02*
X205000000Y-103750000D01*
X208000000Y-101450000D02*
X208000000Y-103750000D01*
D12*
%TO.C,Q5*%
X164460000Y-84800000D02*
X164460000Y-84150000D01*
X164460000Y-84800000D02*
X164460000Y-85450000D01*
X161340000Y-84800000D02*
X161340000Y-86475000D01*
X161340000Y-84800000D02*
X161340000Y-84150000D01*
%TO.C,FB1*%
X95085000Y-94437221D02*
X95085000Y-94762779D01*
X94065000Y-94437221D02*
X94065000Y-94762779D01*
%TO.C,R25*%
X180927500Y-95254724D02*
X180927500Y-94745276D01*
X181972500Y-95254724D02*
X181972500Y-94745276D01*
%TO.C,Q2*%
X103547500Y-88725000D02*
X103547500Y-89375000D01*
X100427500Y-88725000D02*
X100427500Y-88075000D01*
X103547500Y-88725000D02*
X103547500Y-87050000D01*
X100427500Y-88725000D02*
X100427500Y-89375000D01*
%TO.C,R16*%
X162745276Y-88422500D02*
X163254724Y-88422500D01*
X162745276Y-87377500D02*
X163254724Y-87377500D01*
%TO.C,Q14*%
X200200000Y-96560000D02*
X199550000Y-96560000D01*
X200200000Y-96560000D02*
X200850000Y-96560000D01*
X200200000Y-93440000D02*
X198525000Y-93440000D01*
X200200000Y-93440000D02*
X200850000Y-93440000D01*
%TO.C,R36*%
X195497500Y-95254724D02*
X195497500Y-94745276D01*
X194452500Y-95254724D02*
X194452500Y-94745276D01*
%TO.C,Q8*%
X174700000Y-101430000D02*
X174700000Y-99930000D01*
X181600000Y-101430000D02*
X181600000Y-99930000D01*
X181330000Y-99930000D02*
X181330000Y-97100000D01*
X181600000Y-99930000D02*
X181330000Y-99930000D01*
X174970000Y-99930000D02*
X174970000Y-98830000D01*
X174700000Y-99930000D02*
X174970000Y-99930000D01*
%TO.C,D12*%
X197640000Y-84800000D02*
X197640000Y-84150000D01*
X197640000Y-84800000D02*
X197640000Y-85450000D01*
X200760000Y-84800000D02*
X200760000Y-83125000D01*
X200760000Y-84800000D02*
X200760000Y-85450000D01*
%TO.C,D1*%
X95890000Y-94250000D02*
X95890000Y-93600000D01*
X99010000Y-94250000D02*
X99010000Y-94900000D01*
X99010000Y-94250000D02*
X99010000Y-92575000D01*
X95890000Y-94250000D02*
X95890000Y-94900000D01*
%TO.C,U3*%
X126385000Y-111550000D02*
X126385000Y-113500000D01*
X126385000Y-111550000D02*
X126385000Y-109600000D01*
X121265000Y-111550000D02*
X121265000Y-109600000D01*
X121265000Y-111550000D02*
X121265000Y-115000000D01*
%TO.C,R44*%
X207420000Y-97732379D02*
X207420000Y-98067621D01*
X208180000Y-97732379D02*
X208180000Y-98067621D01*
D11*
%TO.C,SW1*%
X161300000Y-91310000D02*
X161300000Y-95510000D01*
D13*
X164020000Y-90190000D02*
X164020000Y-90190000D01*
D11*
X164510000Y-91310000D02*
X164510000Y-95510000D01*
X162340000Y-95510000D02*
X163460000Y-95510000D01*
D13*
X164020000Y-90390000D02*
X164020000Y-90390000D01*
D11*
X162340000Y-91310000D02*
X163460000Y-91310000D01*
D13*
X164020000Y-90390000D02*
G75*
G03*
X164020000Y-90190000I0J100000D01*
G01*
X164020000Y-90190000D02*
G75*
G03*
X164020000Y-90390000I0J-100000D01*
G01*
D12*
%TO.C,D7*%
X139460000Y-84800000D02*
X139460000Y-83125000D01*
X136340000Y-84800000D02*
X136340000Y-85450000D01*
X136340000Y-84800000D02*
X136340000Y-84150000D01*
X139460000Y-84800000D02*
X139460000Y-85450000D01*
%TO.C,BT1*%
X112625000Y-101975000D02*
X115225000Y-104575000D01*
X101725000Y-109825000D02*
X101725000Y-112125000D01*
X112625000Y-101175000D02*
X112625000Y-101975000D01*
X115225000Y-109825000D02*
X115225000Y-112125000D01*
X101725000Y-104575000D02*
X104325000Y-101975000D01*
X101725000Y-106225000D02*
X101725000Y-104575000D01*
X104325000Y-101975000D02*
X104325000Y-101175000D01*
X104325000Y-101175000D02*
X112625000Y-101175000D01*
X115225000Y-104575000D02*
X115225000Y-106225000D01*
X113775000Y-113625000D02*
G75*
G03*
X115225000Y-112075000I-50000J1500000D01*
G01*
X101725000Y-112075000D02*
G75*
G03*
X103175000Y-113625000I1499999J-50001D01*
G01*
X103060385Y-113609160D02*
G75*
G03*
X103975000Y-113225000I124615J984161D01*
G01*
X112975000Y-113225000D02*
G75*
G03*
X113889615Y-113609160I790000J600000D01*
G01*
D13*
%TO.C,U5*%
X183300000Y-103750000D02*
X183300000Y-101450000D01*
X186300000Y-103750000D02*
X183300000Y-103750000D01*
X183300000Y-101450000D02*
X186300000Y-101450000D01*
X183250000Y-105500000D02*
X183250000Y-104100000D01*
X186300000Y-101450000D02*
X186300000Y-103750000D01*
D12*
%TO.C,D8*%
X156640000Y-84800000D02*
X156640000Y-84150000D01*
X156640000Y-84800000D02*
X156640000Y-85450000D01*
X159760000Y-84800000D02*
X159760000Y-83125000D01*
X159760000Y-84800000D02*
X159760000Y-85450000D01*
%TO.C,R49*%
X213770276Y-91902500D02*
X214279724Y-91902500D01*
X213770276Y-92947500D02*
X214279724Y-92947500D01*
%TO.C,J16*%
X197207500Y-77952500D02*
X205827500Y-77952500D01*
X202517500Y-77092500D02*
X201767500Y-77092500D01*
X198267500Y-72792500D02*
X199017500Y-72792500D01*
X198267500Y-71442500D02*
X201267500Y-71442500D01*
X199017500Y-72442500D02*
X198517500Y-72442500D01*
X205827500Y-70482500D02*
X197207500Y-70482500D01*
X202517500Y-72792500D02*
X202517500Y-72442500D01*
X201267500Y-72792500D02*
X201267500Y-77092500D01*
X202017500Y-72442500D02*
X201767500Y-71442500D01*
X197207500Y-70482500D02*
X197207500Y-77952500D01*
X200517500Y-72792500D02*
X201267500Y-72792500D01*
X204517500Y-72442500D02*
X204017500Y-72442500D01*
X201767500Y-71442500D02*
X204767500Y-71442500D01*
X199017500Y-72792500D02*
X199017500Y-72442500D01*
X204767500Y-71442500D02*
X204517500Y-72442500D01*
X205827500Y-77952500D02*
X205827500Y-70482500D01*
X200517500Y-72442500D02*
X200517500Y-72792500D01*
X204767500Y-72792500D02*
X204767500Y-77092500D01*
X198267500Y-77092500D02*
X198267500Y-72792500D01*
X201017500Y-72442500D02*
X200517500Y-72442500D01*
X204017500Y-72792500D02*
X204767500Y-72792500D01*
X198517500Y-72442500D02*
X198267500Y-71442500D01*
X201267500Y-77092500D02*
X200517500Y-77092500D01*
X196817500Y-71342500D02*
X196817500Y-70092500D01*
X202517500Y-72442500D02*
X202017500Y-72442500D01*
X196817500Y-70092500D02*
X198817500Y-70092500D01*
X199017500Y-77092500D02*
X198267500Y-77092500D01*
X204767500Y-77092500D02*
X204017500Y-77092500D01*
X204017500Y-72442500D02*
X204017500Y-72792500D01*
X201767500Y-77092500D02*
X201767500Y-72792500D01*
X201267500Y-71442500D02*
X201017500Y-72442500D01*
X201767500Y-72792500D02*
X202517500Y-72792500D01*
X200517147Y-77092345D02*
G75*
G03*
X199017500Y-77092500I-749647J-1700155D01*
G01*
X204017147Y-77092345D02*
G75*
G03*
X202517500Y-77092500I-749647J-1700155D01*
G01*
%TO.C,R14*%
X141945276Y-87377500D02*
X142454724Y-87377500D01*
X141945276Y-88422500D02*
X142454724Y-88422500D01*
D13*
%TO.C,U2*%
X106100000Y-91300000D02*
X106300000Y-91300000D01*
X106300000Y-91100000D02*
X106100000Y-91100000D01*
X106300000Y-91300000D02*
X106300000Y-91100000D01*
D10*
X106200000Y-94900000D02*
X108000000Y-94900000D01*
D13*
X106100000Y-91100000D02*
X106100000Y-91300000D01*
D12*
%TO.C,R39*%
X203622500Y-95254724D02*
X203622500Y-94745276D01*
X202577500Y-95254724D02*
X202577500Y-94745276D01*
%TO.C,R53*%
X223845276Y-87277500D02*
X224354724Y-87277500D01*
X223845276Y-88322500D02*
X224354724Y-88322500D01*
%TO.C,R15*%
X163257500Y-102362224D02*
X163257500Y-101852776D01*
X164302500Y-102362224D02*
X164302500Y-101852776D01*
%TO.C,R3*%
X99752500Y-95620276D02*
X99752500Y-96129724D01*
X100797500Y-95620276D02*
X100797500Y-96129724D01*
%TO.C,R27*%
X184180000Y-97657379D02*
X184180000Y-97992621D01*
X183420000Y-97657379D02*
X183420000Y-97992621D01*
%TO.C,F2*%
X91490000Y-97002064D02*
X91490000Y-95797936D01*
X93310000Y-97002064D02*
X93310000Y-95797936D01*
%TO.C,R54*%
X225077500Y-95229724D02*
X225077500Y-94720276D01*
X226122500Y-95229724D02*
X226122500Y-94720276D01*
%TO.C,R9*%
X128397500Y-111307776D02*
X128397500Y-111817224D01*
X127352500Y-111307776D02*
X127352500Y-111817224D01*
%TO.C,R6*%
X120145276Y-104372500D02*
X120654724Y-104372500D01*
X120145276Y-103327500D02*
X120654724Y-103327500D01*
%TO.C,Q19*%
X222600000Y-93440000D02*
X220925000Y-93440000D01*
X222600000Y-96560000D02*
X221950000Y-96560000D01*
X222600000Y-93440000D02*
X223250000Y-93440000D01*
X222600000Y-96560000D02*
X223250000Y-96560000D01*
%TO.C,K1*%
X114548500Y-69298000D02*
X104348500Y-69298000D01*
X113248500Y-87078000D02*
X113248500Y-85808000D01*
X113248500Y-85808000D02*
X110958500Y-85808000D01*
X108418500Y-85298000D02*
X110958500Y-85298000D01*
X114548500Y-89598000D02*
X114548500Y-69298000D01*
X104348500Y-89598000D02*
X104348500Y-69298000D01*
X110958500Y-85298000D02*
X110958500Y-85808000D01*
X105628500Y-85808000D02*
X105628500Y-87078000D01*
X110958500Y-86318000D02*
X108418500Y-86318000D01*
X110958500Y-85808000D02*
X110958500Y-86318000D01*
X114548500Y-89598000D02*
X104348500Y-89598000D01*
X108418500Y-86318000D02*
X108418500Y-85808000D01*
X110198500Y-86318000D02*
X109188500Y-85298000D01*
X108418500Y-85808000D02*
X105628500Y-85808000D01*
X108418500Y-85808000D02*
X108418500Y-85298000D01*
%TO.C,R22*%
X172952500Y-95254724D02*
X172952500Y-94745276D01*
X173997500Y-95254724D02*
X173997500Y-94745276D01*
%TO.C,D2*%
X99585000Y-88700000D02*
X99585000Y-89350000D01*
X96465000Y-88700000D02*
X96465000Y-90375000D01*
X96465000Y-88700000D02*
X96465000Y-88050000D01*
X99585000Y-88700000D02*
X99585000Y-88050000D01*
%TO.C,Q11*%
X188325000Y-101430000D02*
X188325000Y-99930000D01*
X194955000Y-99930000D02*
X194955000Y-97100000D01*
X188595000Y-99930000D02*
X188595000Y-98830000D01*
X195225000Y-99930000D02*
X194955000Y-99930000D01*
X195225000Y-101430000D02*
X195225000Y-99930000D01*
X188325000Y-99930000D02*
X188595000Y-99930000D01*
%TO.C,Q10*%
X181840000Y-84800000D02*
X181840000Y-84150000D01*
X181840000Y-84800000D02*
X181840000Y-86475000D01*
X184960000Y-84800000D02*
X184960000Y-84150000D01*
X184960000Y-84800000D02*
X184960000Y-85450000D01*
%TO.C,L1*%
X110415000Y-95510000D02*
X110415000Y-94485000D01*
X115185000Y-91290000D02*
X115185000Y-92315000D01*
X110415000Y-95510000D02*
X111440000Y-95510000D01*
X115185000Y-91290000D02*
X114160000Y-91290000D01*
X110415000Y-91290000D02*
X110415000Y-92315000D01*
X110415000Y-91290000D02*
X111440000Y-91290000D01*
X115185000Y-95510000D02*
X115185000Y-94485000D01*
X115185000Y-95510000D02*
X114160000Y-95510000D01*
%TO.C,C16*%
X117290000Y-95220563D02*
X118354437Y-96285000D01*
X117290000Y-90529437D02*
X117290000Y-91815000D01*
X116656250Y-90633750D02*
X116656250Y-91421250D01*
X117290000Y-95220563D02*
X117290000Y-93935000D01*
X116262500Y-91027500D02*
X117050000Y-91027500D01*
X124110000Y-89465000D02*
X124110000Y-91815000D01*
X118354437Y-96285000D02*
X124110000Y-96285000D01*
X118354437Y-89465000D02*
X124110000Y-89465000D01*
X117290000Y-90529437D02*
X118354437Y-89465000D01*
X124110000Y-96285000D02*
X124110000Y-93935000D01*
%TO.C,R38*%
X199295276Y-92922500D02*
X199804724Y-92922500D01*
X199295276Y-91877500D02*
X199804724Y-91877500D01*
%TO.C,J17*%
X209332000Y-115025000D02*
X206282000Y-115025000D01*
X208282000Y-109825000D02*
X208282000Y-110575000D01*
X206782000Y-109825000D02*
X205782000Y-109825000D01*
X202482000Y-112075000D02*
X203232000Y-112075000D01*
X210082000Y-109825000D02*
X208282000Y-109825000D01*
X209332000Y-112075000D02*
X209332000Y-115025000D01*
X203232000Y-112075000D02*
X203232000Y-115025000D01*
X203232000Y-115025000D02*
X206282000Y-115025000D01*
X202482000Y-110575000D02*
X204282000Y-110575000D01*
X205782000Y-110575000D02*
X206782000Y-110575000D01*
X202472000Y-115785000D02*
X210092000Y-115785000D01*
X210092000Y-115785000D02*
X210092000Y-109815000D01*
X208282000Y-110575000D02*
X210082000Y-110575000D01*
X204282000Y-110575000D02*
X204282000Y-109825000D01*
X205782000Y-109825000D02*
X205782000Y-110575000D01*
X203432000Y-109525000D02*
X202182000Y-109525000D01*
X210082000Y-110575000D02*
X210082000Y-109825000D01*
X204282000Y-109825000D02*
X202482000Y-109825000D01*
X202182000Y-109525000D02*
X202182000Y-110775000D01*
X210092000Y-109815000D02*
X202472000Y-109815000D01*
X202482000Y-109825000D02*
X202482000Y-110575000D01*
X206782000Y-110575000D02*
X206782000Y-109825000D01*
X202472000Y-109815000D02*
X202472000Y-115785000D01*
X210082000Y-112075000D02*
X209332000Y-112075000D01*
%TO.C,C10*%
X103040580Y-92590000D02*
X102759420Y-92590000D01*
X103040580Y-93610000D02*
X102759420Y-93610000D01*
%TO.C,C12*%
X108359420Y-95290000D02*
X108640580Y-95290000D01*
X108359420Y-96310000D02*
X108640580Y-96310000D01*
%TO.C,R7*%
X122945276Y-104902500D02*
X123454724Y-104902500D01*
X122945276Y-105947500D02*
X123454724Y-105947500D01*
%TO.C,R17*%
X162465276Y-109042500D02*
X162974724Y-109042500D01*
X162465276Y-107997500D02*
X162974724Y-107997500D01*
%TO.C,R43*%
X205732379Y-106720000D02*
X206067621Y-106720000D01*
X205732379Y-107480000D02*
X206067621Y-107480000D01*
%TO.C,R12*%
X132267224Y-103842500D02*
X131757776Y-103842500D01*
X132267224Y-102797500D02*
X131757776Y-102797500D01*
%TO.C,Q18*%
X218625000Y-99930000D02*
X218895000Y-99930000D01*
X225525000Y-99930000D02*
X225255000Y-99930000D01*
X225525000Y-101430000D02*
X225525000Y-99930000D01*
X225255000Y-99930000D02*
X225255000Y-97100000D01*
X218625000Y-101430000D02*
X218625000Y-99930000D01*
X218895000Y-99930000D02*
X218895000Y-98830000D01*
%TO.C,R33*%
X188080000Y-99482379D02*
X188080000Y-99817621D01*
X187320000Y-99482379D02*
X187320000Y-99817621D01*
%TO.C,R19*%
X162974724Y-106447500D02*
X162465276Y-106447500D01*
X162974724Y-107492500D02*
X162465276Y-107492500D01*
%TO.C,U1*%
X94500000Y-110540000D02*
X94500000Y-107820000D01*
X94500000Y-107820000D02*
X94730000Y-107820000D01*
X95810000Y-110540000D02*
X94500000Y-110540000D01*
X99220000Y-107820000D02*
X99220000Y-110540000D01*
X98990000Y-106680000D02*
X98990000Y-107820000D01*
X99220000Y-107820000D02*
X98990000Y-107820000D01*
X99220000Y-110540000D02*
X97910000Y-110540000D01*
%TO.C,J4*%
X120083500Y-72800500D02*
X120833500Y-72800500D01*
X117333500Y-72450500D02*
X116833500Y-72450500D01*
X123083500Y-71450500D02*
X122833500Y-72450500D01*
X119583500Y-72800500D02*
X119583500Y-77100500D01*
X117333500Y-72800500D02*
X117333500Y-72450500D01*
X115523500Y-70490500D02*
X115523500Y-77960500D01*
X118833500Y-72800500D02*
X119583500Y-72800500D01*
X120333500Y-72450500D02*
X120083500Y-71450500D01*
X119583500Y-77100500D02*
X118833500Y-77100500D01*
X119583500Y-71450500D02*
X119333500Y-72450500D01*
X123083500Y-77100500D02*
X122333500Y-77100500D01*
X115523500Y-77960500D02*
X124143500Y-77960500D01*
X120083500Y-71450500D02*
X123083500Y-71450500D01*
X115133500Y-71350500D02*
X115133500Y-70100500D01*
X122833500Y-72450500D02*
X122333500Y-72450500D01*
X120083500Y-77100500D02*
X120083500Y-72800500D01*
X119333500Y-72450500D02*
X118833500Y-72450500D01*
X116833500Y-72450500D02*
X116583500Y-71450500D01*
X123083500Y-72800500D02*
X123083500Y-77100500D01*
X116583500Y-77100500D02*
X116583500Y-72800500D01*
X120833500Y-77100500D02*
X120083500Y-77100500D01*
X120833500Y-72450500D02*
X120333500Y-72450500D01*
X122333500Y-72800500D02*
X123083500Y-72800500D01*
X124143500Y-70490500D02*
X115523500Y-70490500D01*
X122333500Y-72450500D02*
X122333500Y-72800500D01*
X116583500Y-72800500D02*
X117333500Y-72800500D01*
X115133500Y-70100500D02*
X117133500Y-70100500D01*
X124143500Y-77960500D02*
X124143500Y-70490500D01*
X120833500Y-72800500D02*
X120833500Y-72450500D01*
X118833500Y-72450500D02*
X118833500Y-72800500D01*
X117333500Y-77100500D02*
X116583500Y-77100500D01*
X116583500Y-71450500D02*
X119583500Y-71450500D01*
X118833147Y-77100345D02*
G75*
G03*
X117333500Y-77100500I-749647J-1700155D01*
G01*
X122333147Y-77100345D02*
G75*
G03*
X120833500Y-77100500I-749647J-1700155D01*
G01*
%TO.C,R31*%
X185420000Y-95032379D02*
X185420000Y-95367621D01*
X186180000Y-95032379D02*
X186180000Y-95367621D01*
%TO.C,Q13*%
X202680000Y-99930000D02*
X202680000Y-97100000D01*
X202950000Y-101430000D02*
X202950000Y-99930000D01*
X196320000Y-99930000D02*
X196320000Y-98830000D01*
X196050000Y-101430000D02*
X196050000Y-99930000D01*
X196050000Y-99930000D02*
X196320000Y-99930000D01*
X202950000Y-99930000D02*
X202680000Y-99930000D01*
%TO.C,R24*%
X177895276Y-92822500D02*
X178404724Y-92822500D01*
X177895276Y-91777500D02*
X178404724Y-91777500D01*
%TO.C,R40*%
X203445276Y-88322500D02*
X203954724Y-88322500D01*
X203445276Y-87277500D02*
X203954724Y-87277500D01*
%TO.C,J15*%
X199282000Y-109825000D02*
X199282000Y-110575000D01*
X193482000Y-112075000D02*
X194232000Y-112075000D01*
X193482000Y-110575000D02*
X195282000Y-110575000D01*
X199282000Y-110575000D02*
X201082000Y-110575000D01*
X201082000Y-110575000D02*
X201082000Y-109825000D01*
X197782000Y-110575000D02*
X197782000Y-109825000D01*
X196782000Y-110575000D02*
X197782000Y-110575000D01*
X193472000Y-115785000D02*
X201092000Y-115785000D01*
X195282000Y-110575000D02*
X195282000Y-109825000D01*
X193472000Y-109815000D02*
X193472000Y-115785000D01*
X193482000Y-109825000D02*
X193482000Y-110575000D01*
X201092000Y-115785000D02*
X201092000Y-109815000D01*
X200332000Y-112075000D02*
X200332000Y-115025000D01*
X200332000Y-115025000D02*
X197282000Y-115025000D01*
X194432000Y-109525000D02*
X193182000Y-109525000D01*
X196782000Y-109825000D02*
X196782000Y-110575000D01*
X197782000Y-109825000D02*
X196782000Y-109825000D01*
X201082000Y-109825000D02*
X199282000Y-109825000D01*
X193182000Y-109525000D02*
X193182000Y-110775000D01*
X195282000Y-109825000D02*
X193482000Y-109825000D01*
X194232000Y-112075000D02*
X194232000Y-115025000D01*
X194232000Y-115025000D02*
X197282000Y-115025000D01*
X201082000Y-112075000D02*
X200332000Y-112075000D01*
X201092000Y-109815000D02*
X193472000Y-109815000D01*
%TO.C,Q7*%
X170575000Y-96360000D02*
X171225000Y-96360000D01*
X170575000Y-93240000D02*
X168900000Y-93240000D01*
X170575000Y-96360000D02*
X169925000Y-96360000D01*
X170575000Y-93240000D02*
X171225000Y-93240000D01*
%TO.C,R35*%
X191420276Y-92822500D02*
X191929724Y-92822500D01*
X191420276Y-91777500D02*
X191929724Y-91777500D01*
%TO.C,R45*%
X208180000Y-94832379D02*
X208180000Y-95167621D01*
X207420000Y-94832379D02*
X207420000Y-95167621D01*
%TO.C,C9*%
X101415000Y-95990580D02*
X101415000Y-95709420D01*
X102435000Y-95990580D02*
X102435000Y-95709420D01*
%TO.C,C7*%
X97665000Y-99138748D02*
X97665000Y-100561252D01*
X99485000Y-99138748D02*
X99485000Y-100561252D01*
%TO.C,D5*%
X115840000Y-84800000D02*
X115840000Y-85450000D01*
X115840000Y-84800000D02*
X115840000Y-84150000D01*
X118960000Y-84800000D02*
X118960000Y-85450000D01*
X118960000Y-84800000D02*
X118960000Y-83125000D01*
%TO.C,D3*%
X92940000Y-88725000D02*
X92940000Y-88075000D01*
X96060000Y-88725000D02*
X96060000Y-89375000D01*
X96060000Y-88725000D02*
X96060000Y-88075000D01*
X92940000Y-88725000D02*
X92940000Y-90400000D01*
%TO.C,R10*%
X128397500Y-107945276D02*
X128397500Y-108454724D01*
X127352500Y-107945276D02*
X127352500Y-108454724D01*
D14*
%TO.C,F1*%
X88400000Y-70930000D02*
X90400000Y-70930000D01*
X90400000Y-73470000D02*
X88400000Y-73470000D01*
D12*
%TO.C,D4*%
X114800000Y-101160000D02*
X114800000Y-100510000D01*
X114800000Y-101160000D02*
X114800000Y-101810000D01*
X117920000Y-101160000D02*
X117920000Y-99485000D01*
X117920000Y-101160000D02*
X117920000Y-101810000D01*
%TO.C,J9*%
X137580000Y-72780000D02*
X137580000Y-72430000D01*
X143330000Y-72780000D02*
X143330000Y-77080000D01*
X136830000Y-77080000D02*
X136830000Y-72780000D01*
X139080000Y-72430000D02*
X139080000Y-72780000D01*
X139830000Y-72780000D02*
X139830000Y-77080000D01*
X139580000Y-72430000D02*
X139080000Y-72430000D01*
X137580000Y-77080000D02*
X136830000Y-77080000D01*
X142580000Y-72430000D02*
X142580000Y-72780000D01*
X143330000Y-77080000D02*
X142580000Y-77080000D01*
X140330000Y-71430000D02*
X143330000Y-71430000D01*
X135770000Y-77940000D02*
X144390000Y-77940000D01*
X139830000Y-71430000D02*
X139580000Y-72430000D01*
X136830000Y-72780000D02*
X137580000Y-72780000D01*
X135770000Y-70470000D02*
X135770000Y-77940000D01*
X140580000Y-72430000D02*
X140330000Y-71430000D01*
X137580000Y-72430000D02*
X137080000Y-72430000D01*
X140330000Y-77080000D02*
X140330000Y-72780000D01*
X144390000Y-77940000D02*
X144390000Y-70470000D01*
X135380000Y-70080000D02*
X137380000Y-70080000D01*
X136830000Y-71430000D02*
X139830000Y-71430000D01*
X143330000Y-71430000D02*
X143080000Y-72430000D01*
X142580000Y-72780000D02*
X143330000Y-72780000D01*
X143080000Y-72430000D02*
X142580000Y-72430000D01*
X144390000Y-70470000D02*
X135770000Y-70470000D01*
X141080000Y-77080000D02*
X140330000Y-77080000D01*
X137080000Y-72430000D02*
X136830000Y-71430000D01*
X140330000Y-72780000D02*
X141080000Y-72780000D01*
X141080000Y-72430000D02*
X140580000Y-72430000D01*
X139080000Y-72780000D02*
X139830000Y-72780000D01*
X141080000Y-72780000D02*
X141080000Y-72430000D01*
X139830000Y-77080000D02*
X139080000Y-77080000D01*
X135380000Y-71330000D02*
X135380000Y-70080000D01*
X139079647Y-77079845D02*
G75*
G03*
X137580000Y-77080000I-749647J-1700155D01*
G01*
X142579647Y-77079845D02*
G75*
G03*
X141080000Y-77080000I-749647J-1700155D01*
G01*
%TO.C,D9*%
X166460000Y-102590000D02*
X166460000Y-99730000D01*
X164540000Y-99730000D02*
X164540000Y-102590000D01*
X166460000Y-99730000D02*
X164540000Y-99730000D01*
%TO.C,Y1*%
X119275000Y-109550000D02*
X119275000Y-109550000D01*
X117825000Y-109800000D02*
X119725000Y-109800000D01*
X119725000Y-109800000D02*
X119725000Y-113000000D01*
X118425000Y-109800000D02*
X118275000Y-109550000D01*
X119125000Y-109800000D02*
X119275000Y-109550000D01*
X118275000Y-109550000D02*
X118275000Y-109550000D01*
X117825000Y-113000000D02*
X117825000Y-109800000D01*
%TO.C,R21*%
X169720276Y-92747500D02*
X170229724Y-92747500D01*
X169720276Y-91702500D02*
X170229724Y-91702500D01*
%TO.C,R32*%
X188080000Y-101732379D02*
X188080000Y-102067621D01*
X187320000Y-101732379D02*
X187320000Y-102067621D01*
%TO.C,C18*%
X165740000Y-107846267D02*
X165740000Y-107553733D01*
X164720000Y-107846267D02*
X164720000Y-107553733D01*
%TO.C,J18*%
X213282000Y-109825000D02*
X211482000Y-109825000D01*
X219082000Y-112075000D02*
X218332000Y-112075000D01*
X219082000Y-110575000D02*
X219082000Y-109825000D01*
X217282000Y-110575000D02*
X219082000Y-110575000D01*
X211182000Y-109525000D02*
X211182000Y-110775000D01*
X211482000Y-109825000D02*
X211482000Y-110575000D01*
X219082000Y-109825000D02*
X217282000Y-109825000D01*
X215782000Y-109825000D02*
X214782000Y-109825000D01*
X211472000Y-115785000D02*
X219092000Y-115785000D01*
X211482000Y-112075000D02*
X212232000Y-112075000D01*
X211482000Y-110575000D02*
X213282000Y-110575000D01*
X211472000Y-109815000D02*
X211472000Y-115785000D01*
X217282000Y-109825000D02*
X217282000Y-110575000D01*
X214782000Y-110575000D02*
X215782000Y-110575000D01*
X218332000Y-115025000D02*
X215282000Y-115025000D01*
X213282000Y-110575000D02*
X213282000Y-109825000D01*
X218332000Y-112075000D02*
X218332000Y-115025000D01*
X219092000Y-115785000D02*
X219092000Y-109815000D01*
X215782000Y-110575000D02*
X215782000Y-109825000D01*
X214782000Y-109825000D02*
X214782000Y-110575000D01*
X219092000Y-109815000D02*
X211472000Y-109815000D01*
X212232000Y-115025000D02*
X215282000Y-115025000D01*
X212232000Y-112075000D02*
X212232000Y-115025000D01*
X212432000Y-109525000D02*
X211182000Y-109525000D01*
%TO.C,R50*%
X217102500Y-95254724D02*
X217102500Y-94745276D01*
X218147500Y-95254724D02*
X218147500Y-94745276D01*
%TO.C,R4*%
X103002500Y-95545276D02*
X103002500Y-96054724D01*
X104047500Y-95545276D02*
X104047500Y-96054724D01*
%TO.C,R41*%
X205880000Y-97082379D02*
X205880000Y-97417621D01*
X205120000Y-97082379D02*
X205120000Y-97417621D01*
%TO.C,Q20*%
X225560000Y-84737500D02*
X225560000Y-85387500D01*
X222440000Y-84737500D02*
X222440000Y-86412500D01*
X222440000Y-84737500D02*
X222440000Y-84087500D01*
X225560000Y-84737500D02*
X225560000Y-84087500D01*
%TO.C,Q1*%
X101675000Y-81615000D02*
X102325000Y-81615000D01*
X101675000Y-84735000D02*
X102325000Y-84735000D01*
X101675000Y-84735000D02*
X101025000Y-84735000D01*
X101675000Y-81615000D02*
X100000000Y-81615000D01*
%TO.C,R42*%
X205880000Y-94832379D02*
X205880000Y-95167621D01*
X205120000Y-94832379D02*
X205120000Y-95167621D01*
%TO.C,J11*%
X166182000Y-109525000D02*
X166182000Y-110775000D01*
X168282000Y-109825000D02*
X166482000Y-109825000D01*
X166482000Y-110575000D02*
X168282000Y-110575000D01*
X167432000Y-109525000D02*
X166182000Y-109525000D01*
X170782000Y-110575000D02*
X170782000Y-109825000D01*
X174082000Y-112075000D02*
X173332000Y-112075000D01*
X172282000Y-110575000D02*
X174082000Y-110575000D01*
X166472000Y-115785000D02*
X174092000Y-115785000D01*
X166482000Y-109825000D02*
X166482000Y-110575000D01*
X173332000Y-115025000D02*
X170282000Y-115025000D01*
X169782000Y-109825000D02*
X169782000Y-110575000D01*
X166482000Y-112075000D02*
X167232000Y-112075000D01*
X172282000Y-109825000D02*
X172282000Y-110575000D01*
X169782000Y-110575000D02*
X170782000Y-110575000D01*
X166472000Y-109815000D02*
X166472000Y-115785000D01*
X174092000Y-109815000D02*
X166472000Y-109815000D01*
X170782000Y-109825000D02*
X169782000Y-109825000D01*
X173332000Y-112075000D02*
X173332000Y-115025000D01*
X174092000Y-115785000D02*
X174092000Y-109815000D01*
X168282000Y-110575000D02*
X168282000Y-109825000D01*
X174082000Y-109825000D02*
X172282000Y-109825000D01*
X167232000Y-115025000D02*
X170282000Y-115025000D01*
X167232000Y-112075000D02*
X167232000Y-115025000D01*
X174082000Y-110575000D02*
X174082000Y-109825000D01*
%TO.C,Q17*%
X214625000Y-93440000D02*
X215275000Y-93440000D01*
X214625000Y-96560000D02*
X213975000Y-96560000D01*
X214625000Y-96560000D02*
X215275000Y-96560000D01*
X214625000Y-93440000D02*
X212950000Y-93440000D01*
%TO.C,R13*%
X137527500Y-91070276D02*
X137527500Y-91579724D01*
X138572500Y-91070276D02*
X138572500Y-91579724D01*
%TO.C,Q6*%
X173850000Y-99930000D02*
X173580000Y-99930000D01*
X173580000Y-99930000D02*
X173580000Y-97100000D01*
X166950000Y-99930000D02*
X167220000Y-99930000D01*
X166950000Y-101430000D02*
X166950000Y-99930000D01*
X167220000Y-99930000D02*
X167220000Y-98830000D01*
X173850000Y-101430000D02*
X173850000Y-99930000D01*
%TO.C,R5*%
X121845276Y-87477500D02*
X122354724Y-87477500D01*
X121845276Y-88522500D02*
X122354724Y-88522500D01*
%TO.C,K5*%
X195048500Y-87078000D02*
X195048500Y-85808000D01*
X196348500Y-69298000D02*
X186148500Y-69298000D01*
X195048500Y-85808000D02*
X192758500Y-85808000D01*
X192758500Y-85298000D02*
X192758500Y-85808000D01*
X191998500Y-86318000D02*
X190988500Y-85298000D01*
X196348500Y-89598000D02*
X186148500Y-89598000D01*
X196348500Y-89598000D02*
X196348500Y-69298000D01*
X190218500Y-85808000D02*
X190218500Y-85298000D01*
X192758500Y-86318000D02*
X190218500Y-86318000D01*
X192758500Y-85808000D02*
X192758500Y-86318000D01*
X190218500Y-85298000D02*
X192758500Y-85298000D01*
X187428500Y-85808000D02*
X187428500Y-87078000D01*
X190218500Y-86318000D02*
X190218500Y-85808000D01*
X190218500Y-85808000D02*
X187428500Y-85808000D01*
X186148500Y-89598000D02*
X186148500Y-69298000D01*
%TO.C,R52*%
X221645276Y-92922500D02*
X222154724Y-92922500D01*
X221645276Y-91877500D02*
X222154724Y-91877500D01*
%TO.C,C5*%
X95165000Y-99138748D02*
X95165000Y-100561252D01*
X96985000Y-99138748D02*
X96985000Y-100561252D01*
%TO.C,R11*%
X136997500Y-91070276D02*
X136997500Y-91579724D01*
X135952500Y-91070276D02*
X135952500Y-91579724D01*
%TO.C,R26*%
X183145276Y-87277500D02*
X183654724Y-87277500D01*
X183145276Y-88322500D02*
X183654724Y-88322500D01*
%TO.C,J8*%
X131725000Y-104815000D02*
X131725000Y-105425000D01*
X134125000Y-108925000D02*
X134125000Y-108425000D01*
X132225000Y-108925000D02*
X132225000Y-108425000D01*
X129775000Y-108925000D02*
X136675000Y-108925000D01*
X129165000Y-104815000D02*
X129165000Y-109535000D01*
X129165000Y-106125000D02*
X129775000Y-106125000D01*
X137285000Y-106125000D02*
X136675000Y-106125000D01*
X129165000Y-107425000D02*
X129775000Y-107425000D01*
X128865000Y-104515000D02*
X128865000Y-105765000D01*
X137285000Y-107425000D02*
X136675000Y-107425000D01*
X130115000Y-104515000D02*
X128865000Y-104515000D01*
X132125000Y-108425000D02*
X132325000Y-108425000D01*
X130925000Y-104815000D02*
X130925000Y-104615000D01*
X136675000Y-105425000D02*
X134725000Y-105425000D01*
X136675000Y-108925000D02*
X136675000Y-105425000D01*
X130925000Y-104715000D02*
X130625000Y-104715000D01*
X130925000Y-104615000D02*
X130625000Y-104615000D01*
X132125000Y-108925000D02*
X132125000Y-108425000D01*
X137285000Y-104815000D02*
X129165000Y-104815000D01*
X130625000Y-104615000D02*
X130625000Y-104815000D01*
X132325000Y-108425000D02*
X132325000Y-108925000D01*
X131725000Y-105425000D02*
X129775000Y-105425000D01*
X129775000Y-105425000D02*
X129775000Y-108925000D01*
X137285000Y-109535000D02*
X137285000Y-104815000D01*
X134225000Y-108925000D02*
X134225000Y-108425000D01*
X134125000Y-108425000D02*
X134325000Y-108425000D01*
X129165000Y-109535000D02*
X137285000Y-109535000D01*
X134325000Y-108425000D02*
X134325000Y-108925000D01*
X134725000Y-105425000D02*
X134725000Y-104815000D01*
%TO.C,J2*%
X78967500Y-97510000D02*
X77467500Y-97260000D01*
X78967500Y-102590000D02*
X77467500Y-102340000D01*
X90487500Y-97960000D02*
X90487500Y-98560000D01*
X78967500Y-99010000D02*
X78967500Y-97510000D01*
X89687500Y-106990000D02*
X89687500Y-94610000D01*
X78967500Y-106990000D02*
X78967500Y-94610000D01*
X90487500Y-98560000D02*
X89887500Y-98260000D01*
X80767500Y-94610000D02*
X80767500Y-106990000D01*
X77467500Y-102340000D02*
X77467500Y-104340000D01*
X77467500Y-106990000D02*
X89687500Y-106990000D01*
X77467500Y-97260000D02*
X77467500Y-99260000D01*
X89687500Y-94610000D02*
X77467500Y-94610000D01*
X80767500Y-106990000D02*
X78967500Y-106990000D01*
X77467500Y-94610000D02*
X77467500Y-106990000D01*
X77467500Y-104340000D02*
X78967500Y-104090000D01*
X78967500Y-104090000D02*
X78967500Y-102590000D01*
X89887500Y-98260000D02*
X90487500Y-97960000D01*
X77467500Y-99260000D02*
X78967500Y-99010000D01*
X78967500Y-94610000D02*
X80767500Y-94610000D01*
%TO.C,R48*%
X211102500Y-95254724D02*
X211102500Y-94745276D01*
X212147500Y-95254724D02*
X212147500Y-94745276D01*
%TO.C,Q3*%
X120440000Y-84800000D02*
X120440000Y-84150000D01*
X123560000Y-84800000D02*
X123560000Y-84150000D01*
X120440000Y-84800000D02*
X120440000Y-86475000D01*
X123560000Y-84800000D02*
X123560000Y-85450000D01*
%TO.C,U4*%
X139905000Y-116565000D02*
X139905000Y-110145000D01*
X139905000Y-91600000D02*
X139905000Y-90820000D01*
X158145000Y-116565000D02*
X158145000Y-110145000D01*
X158145000Y-91600000D02*
X158145000Y-90820000D01*
X158145000Y-90820000D02*
X157145000Y-90820000D01*
X158145000Y-116565000D02*
X139905000Y-116565000D01*
X139905000Y-90820000D02*
X140905000Y-90820000D01*
X158145000Y-110145000D02*
X158525000Y-110145000D01*
%TO.C,R1*%
X90977500Y-90745276D02*
X90977500Y-91254724D01*
X92022500Y-90745276D02*
X92022500Y-91254724D01*
%TO.C,D11*%
X177440000Y-84800000D02*
X177440000Y-84150000D01*
X177440000Y-84800000D02*
X177440000Y-85450000D01*
X180560000Y-84800000D02*
X180560000Y-85450000D01*
X180560000Y-84800000D02*
X180560000Y-83125000D01*
%TO.C,TP3*%
X99225000Y-114200000D02*
G75*
G03*
X99225000Y-114200000I-700000J0D01*
G01*
%TO.C,Q15*%
X205160000Y-84800000D02*
X205160000Y-85450000D01*
X205160000Y-84800000D02*
X205160000Y-84150000D01*
X202040000Y-84800000D02*
X202040000Y-84150000D01*
X202040000Y-84800000D02*
X202040000Y-86475000D01*
%TO.C,J14*%
X191332000Y-112075000D02*
X191332000Y-115025000D01*
X188782000Y-110575000D02*
X188782000Y-109825000D01*
X185232000Y-112075000D02*
X185232000Y-115025000D01*
X184472000Y-109815000D02*
X184472000Y-115785000D01*
X192082000Y-112075000D02*
X191332000Y-112075000D01*
X192092000Y-115785000D02*
X192092000Y-109815000D01*
X186282000Y-110575000D02*
X186282000Y-109825000D01*
X186282000Y-109825000D02*
X184482000Y-109825000D01*
X184482000Y-112075000D02*
X185232000Y-112075000D01*
X185432000Y-109525000D02*
X184182000Y-109525000D01*
X190282000Y-110575000D02*
X192082000Y-110575000D01*
X187782000Y-109825000D02*
X187782000Y-110575000D01*
X185232000Y-115025000D02*
X188282000Y-115025000D01*
X192082000Y-109825000D02*
X190282000Y-109825000D01*
X184472000Y-115785000D02*
X192092000Y-115785000D01*
X184482000Y-109825000D02*
X184482000Y-110575000D01*
X184182000Y-109525000D02*
X184182000Y-110775000D01*
X192082000Y-110575000D02*
X192082000Y-109825000D01*
X192092000Y-109815000D02*
X184472000Y-109815000D01*
X187782000Y-110575000D02*
X188782000Y-110575000D01*
X190282000Y-109825000D02*
X190282000Y-110575000D01*
X188782000Y-109825000D02*
X187782000Y-109825000D01*
X184482000Y-110575000D02*
X186282000Y-110575000D01*
X191332000Y-115025000D02*
X188282000Y-115025000D01*
%TO.C,Q16*%
X217205000Y-99930000D02*
X217205000Y-97100000D01*
X210575000Y-99930000D02*
X210845000Y-99930000D01*
X210845000Y-99930000D02*
X210845000Y-98830000D01*
X217475000Y-99930000D02*
X217205000Y-99930000D01*
X217475000Y-101430000D02*
X217475000Y-99930000D01*
X210575000Y-101430000D02*
X210575000Y-99930000D01*
%TO.C,R8*%
X129677500Y-95195276D02*
X129677500Y-95704724D01*
X130722500Y-95195276D02*
X130722500Y-95704724D01*
%TO.C,C13*%
X101590580Y-99740000D02*
X101309420Y-99740000D01*
X101590580Y-100760000D02*
X101309420Y-100760000D01*
%TO.C,C8*%
X119003733Y-106165000D02*
X119296267Y-106165000D01*
X119003733Y-107185000D02*
X119296267Y-107185000D01*
%TO.C,FB2*%
X159720000Y-108197221D02*
X159720000Y-108522779D01*
X160740000Y-108197221D02*
X160740000Y-108522779D01*
D13*
%TO.C,J5*%
X119600000Y-97655000D02*
X129300000Y-97655000D01*
X119600000Y-102855000D02*
X119600000Y-101102000D01*
X129300000Y-102855000D02*
X119600000Y-102855000D01*
X129300000Y-97655000D02*
X129300000Y-102855000D01*
X119600000Y-97655000D02*
X119600000Y-98348000D01*
D12*
%TO.C,Q4*%
X143760000Y-84800000D02*
X143760000Y-85450000D01*
X143760000Y-84800000D02*
X143760000Y-84150000D01*
X140640000Y-84800000D02*
X140640000Y-84150000D01*
X140640000Y-84800000D02*
X140640000Y-86475000D01*
%TO.C,C6*%
X99085000Y-104365580D02*
X99085000Y-104084420D01*
X98065000Y-104365580D02*
X98065000Y-104084420D01*
%TO.C,R18*%
X162832500Y-102362224D02*
X162832500Y-101852776D01*
X161787500Y-102362224D02*
X161787500Y-101852776D01*
%TO.C,C3*%
X93310000Y-100888748D02*
X93310000Y-102311252D01*
X91490000Y-100888748D02*
X91490000Y-102311252D01*
%TD*%
%LPC*%
D15*
%TO.C,J3*%
X97740000Y-74830000D03*
D16*
X101240000Y-74830000D03*
%TD*%
D17*
%TO.C,TP2*%
X96025000Y-114200000D03*
%TD*%
D18*
%TO.C,R29*%
X183905000Y-107100000D03*
X185100000Y-107100000D03*
%TD*%
D19*
%TO.C,R30*%
X185825000Y-97227500D03*
X185825000Y-98422500D03*
%TD*%
D20*
%TO.C,D13*%
X220550000Y-83800000D03*
X218650000Y-83800000D03*
X219600000Y-85675000D03*
%TD*%
D21*
%TO.C,R2*%
X101075000Y-85837500D03*
X102900000Y-85837500D03*
%TD*%
D15*
%TO.C,J10*%
X159283500Y-74842500D03*
D16*
X162783500Y-74842500D03*
%TD*%
D22*
%TO.C,C17*%
X127075000Y-91537500D03*
X127075000Y-94662500D03*
%TD*%
D23*
%TO.C,D10*%
X160590000Y-100522500D03*
X160590000Y-102572500D03*
%TD*%
D19*
%TO.C,R28*%
X183800000Y-94602500D03*
X183800000Y-95797500D03*
%TD*%
D24*
%TO.C,J1*%
X87555000Y-79980000D03*
D25*
X87555000Y-85060000D03*
X87555000Y-90140000D03*
%TD*%
D26*
%TO.C,D6*%
X133775000Y-94075000D03*
X133775000Y-92025000D03*
%TD*%
D27*
%TO.C,C11*%
X102200000Y-98625000D03*
X100650000Y-98625000D03*
%TD*%
D28*
%TO.C,Q12*%
X191137500Y-93950000D03*
X191137500Y-95850000D03*
X193012500Y-94900000D03*
%TD*%
D19*
%TO.C,R46*%
X209900000Y-100902500D03*
X209900000Y-102097500D03*
%TD*%
D15*
%TO.C,J13*%
X179483500Y-74842500D03*
D16*
X182983500Y-74842500D03*
%TD*%
D29*
%TO.C,K2*%
X133648500Y-88348000D03*
D30*
X133648500Y-78188000D03*
X133648500Y-70568000D03*
D31*
X126028500Y-88348000D03*
%TD*%
D29*
%TO.C,K4*%
X174848500Y-88348000D03*
D30*
X174848500Y-78188000D03*
X174848500Y-70568000D03*
D31*
X167228500Y-88348000D03*
%TD*%
D32*
%TO.C,C15*%
X111375000Y-96950000D03*
X111375000Y-98850000D03*
%TD*%
D33*
%TO.C,C4*%
X95625000Y-105000000D03*
X95625000Y-103450000D03*
%TD*%
D34*
%TO.C,R20*%
X167700000Y-95712500D03*
X167700000Y-93887500D03*
%TD*%
D35*
%TO.C,J12*%
X178032000Y-112275000D03*
D36*
X180532000Y-112275000D03*
%TD*%
D29*
%TO.C,K6*%
X215400000Y-88348000D03*
D30*
X215400000Y-78188000D03*
X215400000Y-70568000D03*
D31*
X207780000Y-88348000D03*
%TD*%
D34*
%TO.C,R37*%
X197100000Y-95912500D03*
X197100000Y-94087500D03*
%TD*%
D17*
%TO.C,TP1*%
X93525000Y-114200000D03*
%TD*%
D37*
%TO.C,H4*%
X223402000Y-113000000D03*
%TD*%
D38*
%TO.C,J7*%
X131225000Y-112275000D03*
D39*
X133225000Y-112275000D03*
X135225000Y-112275000D03*
%TD*%
D34*
%TO.C,R34*%
X189175000Y-95812500D03*
X189175000Y-93987500D03*
%TD*%
D40*
%TO.C,C2*%
X92975000Y-106525000D03*
X91075000Y-106525000D03*
%TD*%
D41*
%TO.C,C1*%
X91590000Y-111230000D03*
X85990000Y-111230000D03*
%TD*%
D28*
%TO.C,Q9*%
X177712500Y-93950000D03*
X177712500Y-95850000D03*
X179587500Y-94900000D03*
%TD*%
D34*
%TO.C,R51*%
X219600000Y-95912500D03*
X219600000Y-94087500D03*
%TD*%
D19*
%TO.C,R47*%
X209900000Y-98627500D03*
X209900000Y-99822500D03*
%TD*%
D42*
%TO.C,J6*%
X132635000Y-98225000D03*
D43*
X132635000Y-96955000D03*
X133905000Y-98225000D03*
X133905000Y-96955000D03*
X135175000Y-98225000D03*
X135175000Y-96955000D03*
%TD*%
D29*
%TO.C,K3*%
X153848500Y-88348000D03*
D30*
X153848500Y-78188000D03*
X153848500Y-70568000D03*
D31*
X146228500Y-88348000D03*
%TD*%
D44*
%TO.C,C14*%
X105175000Y-98550000D03*
X107075000Y-98550000D03*
%TD*%
D17*
%TO.C,TP4*%
X101025000Y-114200000D03*
%TD*%
D34*
%TO.C,R23*%
X175650000Y-95812500D03*
X175650000Y-93987500D03*
%TD*%
D45*
%TO.C,U6*%
X205525000Y-104800000D03*
X206175000Y-104800000D03*
X206825000Y-104800000D03*
X207475000Y-104800000D03*
X207475000Y-100400000D03*
X206825000Y-100400000D03*
X206175000Y-100400000D03*
X205525000Y-100400000D03*
%TD*%
D46*
%TO.C,Q5*%
X161950000Y-85737500D03*
X163850000Y-85737500D03*
X162900000Y-83862500D03*
%TD*%
D47*
%TO.C,FB1*%
X94575000Y-93812500D03*
X94575000Y-95387500D03*
%TD*%
D34*
%TO.C,R25*%
X181450000Y-95912500D03*
X181450000Y-94087500D03*
%TD*%
D20*
%TO.C,Q2*%
X102937500Y-87787500D03*
X101037500Y-87787500D03*
X101987500Y-89662500D03*
%TD*%
D37*
%TO.C,H1*%
X80500000Y-113100000D03*
%TD*%
D21*
%TO.C,R16*%
X162087500Y-87900000D03*
X163912500Y-87900000D03*
%TD*%
D28*
%TO.C,Q14*%
X199262500Y-94050000D03*
X199262500Y-95950000D03*
X201137500Y-95000000D03*
%TD*%
D34*
%TO.C,R36*%
X194975000Y-95912500D03*
X194975000Y-94087500D03*
%TD*%
D48*
%TO.C,Q8*%
X180430000Y-98200000D03*
D49*
X178150000Y-104500000D03*
D48*
X175870000Y-98200000D03*
%TD*%
D20*
%TO.C,D12*%
X200150000Y-83862500D03*
X198250000Y-83862500D03*
X199200000Y-85737500D03*
%TD*%
%TO.C,D1*%
X98400000Y-93312500D03*
X96500000Y-93312500D03*
X97450000Y-95187500D03*
%TD*%
D50*
%TO.C,U3*%
X121920000Y-114025000D03*
X123190000Y-114025000D03*
X124460000Y-114025000D03*
X125730000Y-114025000D03*
X125730000Y-109075000D03*
X124460000Y-109075000D03*
X123190000Y-109075000D03*
X121920000Y-109075000D03*
%TD*%
D19*
%TO.C,R44*%
X207800000Y-97302500D03*
X207800000Y-98497500D03*
%TD*%
D51*
%TO.C,SW1*%
X163975000Y-91160000D03*
X163975000Y-95660000D03*
X161825000Y-91160000D03*
X161825000Y-95660000D03*
%TD*%
D20*
%TO.C,D7*%
X138850000Y-83862500D03*
X136950000Y-83862500D03*
X137900000Y-85737500D03*
%TD*%
D52*
%TO.C,BT1*%
X115075000Y-108025000D03*
D53*
X108475000Y-108025000D03*
D52*
X101875000Y-108025000D03*
%TD*%
D45*
%TO.C,U5*%
X183825000Y-104800000D03*
X184475000Y-104800000D03*
X185125000Y-104800000D03*
X185775000Y-104800000D03*
X185775000Y-100400000D03*
X185125000Y-100400000D03*
X184475000Y-100400000D03*
X183825000Y-100400000D03*
%TD*%
D20*
%TO.C,D8*%
X159150000Y-83862500D03*
X157250000Y-83862500D03*
X158200000Y-85737500D03*
%TD*%
D21*
%TO.C,R49*%
X213112500Y-92425000D03*
X214937500Y-92425000D03*
%TD*%
D15*
%TO.C,J16*%
X199767500Y-74842500D03*
D16*
X203267500Y-74842500D03*
%TD*%
D21*
%TO.C,R14*%
X141287500Y-87900000D03*
X143112500Y-87900000D03*
%TD*%
D54*
%TO.C,U2*%
X106350000Y-92425000D03*
D55*
X106250000Y-93475000D03*
X106250000Y-93925000D03*
X106250000Y-94375000D03*
X107950000Y-94375000D03*
X107950000Y-93925000D03*
X107950000Y-93475000D03*
D54*
X107850000Y-92425000D03*
D56*
X107100000Y-92310000D03*
%TD*%
D34*
%TO.C,R39*%
X203100000Y-95912500D03*
X203100000Y-94087500D03*
%TD*%
D21*
%TO.C,R53*%
X223187500Y-87800000D03*
X225012500Y-87800000D03*
%TD*%
D34*
%TO.C,R15*%
X163780000Y-103020000D03*
X163780000Y-101195000D03*
%TD*%
D57*
%TO.C,R3*%
X100275000Y-94962500D03*
X100275000Y-96787500D03*
%TD*%
D19*
%TO.C,R27*%
X183800000Y-97227500D03*
X183800000Y-98422500D03*
%TD*%
D58*
%TO.C,F2*%
X92400000Y-97800000D03*
X92400000Y-95000000D03*
%TD*%
D34*
%TO.C,R54*%
X225600000Y-95887500D03*
X225600000Y-94062500D03*
%TD*%
D57*
%TO.C,R9*%
X127875000Y-110650000D03*
X127875000Y-112475000D03*
%TD*%
D21*
%TO.C,R6*%
X119487500Y-103850000D03*
X121312500Y-103850000D03*
%TD*%
D28*
%TO.C,Q19*%
X221662500Y-94050000D03*
X221662500Y-95950000D03*
X223537500Y-95000000D03*
%TD*%
D29*
%TO.C,K1*%
X113248500Y-88348000D03*
D30*
X113248500Y-78188000D03*
X113248500Y-70568000D03*
D31*
X105628500Y-88348000D03*
%TD*%
D34*
%TO.C,R22*%
X173475000Y-95912500D03*
X173475000Y-94087500D03*
%TD*%
D46*
%TO.C,D2*%
X97075000Y-89637500D03*
X98975000Y-89637500D03*
X98025000Y-87762500D03*
%TD*%
D48*
%TO.C,Q11*%
X194055000Y-98200000D03*
D49*
X191775000Y-104500000D03*
D48*
X189495000Y-98200000D03*
%TD*%
D46*
%TO.C,Q10*%
X182450000Y-85737500D03*
X184350000Y-85737500D03*
X183400000Y-83862500D03*
%TD*%
D59*
%TO.C,L1*%
X111275000Y-93400000D03*
X114325000Y-93400000D03*
%TD*%
D60*
%TO.C,C16*%
X117900000Y-92875000D03*
X123500000Y-92875000D03*
%TD*%
D21*
%TO.C,R38*%
X198637500Y-92400000D03*
X200462500Y-92400000D03*
%TD*%
D35*
%TO.C,J17*%
X205032000Y-112275000D03*
D36*
X207532000Y-112275000D03*
%TD*%
D27*
%TO.C,C10*%
X103675000Y-93100000D03*
X102125000Y-93100000D03*
%TD*%
D61*
%TO.C,C12*%
X107725000Y-95800000D03*
X109275000Y-95800000D03*
%TD*%
D21*
%TO.C,R7*%
X122287500Y-105425000D03*
X124112500Y-105425000D03*
%TD*%
%TO.C,R17*%
X161807500Y-108520000D03*
X163632500Y-108520000D03*
%TD*%
D18*
%TO.C,R43*%
X205302500Y-107100000D03*
X206497500Y-107100000D03*
%TD*%
D62*
%TO.C,R12*%
X132925000Y-103320000D03*
X131100000Y-103320000D03*
%TD*%
D48*
%TO.C,Q18*%
X224355000Y-98200000D03*
D49*
X222075000Y-104500000D03*
D48*
X219795000Y-98200000D03*
%TD*%
D37*
%TO.C,H2*%
X80518000Y-72136000D03*
%TD*%
D19*
%TO.C,R33*%
X187700000Y-99052500D03*
X187700000Y-100247500D03*
%TD*%
D62*
%TO.C,R19*%
X163632500Y-106970000D03*
X161807500Y-106970000D03*
%TD*%
D63*
%TO.C,U1*%
X98360000Y-107230000D03*
D64*
X96860000Y-107317500D03*
D63*
X95360000Y-107230000D03*
%TD*%
D15*
%TO.C,J4*%
X118083500Y-74850500D03*
D16*
X121583500Y-74850500D03*
%TD*%
D19*
%TO.C,R31*%
X185800000Y-94602500D03*
X185800000Y-95797500D03*
%TD*%
D48*
%TO.C,Q13*%
X201780000Y-98200000D03*
D49*
X199500000Y-104500000D03*
D48*
X197220000Y-98200000D03*
%TD*%
D21*
%TO.C,R24*%
X177237500Y-92300000D03*
X179062500Y-92300000D03*
%TD*%
%TO.C,R40*%
X202787500Y-87800000D03*
X204612500Y-87800000D03*
%TD*%
D35*
%TO.C,J15*%
X196032000Y-112275000D03*
D36*
X198532000Y-112275000D03*
%TD*%
D28*
%TO.C,Q7*%
X169637500Y-93850000D03*
X169637500Y-95750000D03*
X171512500Y-94800000D03*
%TD*%
D21*
%TO.C,R35*%
X190762500Y-92300000D03*
X192587500Y-92300000D03*
%TD*%
D37*
%TO.C,H3*%
X223320000Y-72336000D03*
%TD*%
D19*
%TO.C,R45*%
X207800000Y-94402500D03*
X207800000Y-95597500D03*
%TD*%
D33*
%TO.C,C9*%
X101925000Y-96625000D03*
X101925000Y-95075000D03*
%TD*%
D65*
%TO.C,C7*%
X98575000Y-98375000D03*
X98575000Y-101325000D03*
%TD*%
D20*
%TO.C,D5*%
X118350000Y-83862500D03*
X116450000Y-83862500D03*
X117400000Y-85737500D03*
%TD*%
D46*
%TO.C,D3*%
X93550000Y-89662500D03*
X95450000Y-89662500D03*
X94500000Y-87787500D03*
%TD*%
D57*
%TO.C,R10*%
X127875000Y-107287500D03*
X127875000Y-109112500D03*
%TD*%
D66*
%TO.C,F1*%
X91855000Y-72200000D03*
X86945000Y-72200000D03*
%TD*%
D20*
%TO.C,D4*%
X117310000Y-100222500D03*
X115410000Y-100222500D03*
X116360000Y-102097500D03*
%TD*%
D15*
%TO.C,J9*%
X138330000Y-74830000D03*
D16*
X141830000Y-74830000D03*
%TD*%
D23*
%TO.C,D9*%
X165500000Y-100565000D03*
X165500000Y-102615000D03*
%TD*%
D67*
%TO.C,Y1*%
X118275000Y-108800000D03*
X119275000Y-108800000D03*
D68*
X118775000Y-114400000D03*
%TD*%
D21*
%TO.C,R21*%
X169062500Y-92225000D03*
X170887500Y-92225000D03*
%TD*%
D19*
%TO.C,R32*%
X187700000Y-101302500D03*
X187700000Y-102497500D03*
%TD*%
D69*
%TO.C,C18*%
X165230000Y-108562500D03*
X165230000Y-106837500D03*
%TD*%
D35*
%TO.C,J18*%
X214032000Y-112275000D03*
D36*
X216532000Y-112275000D03*
%TD*%
D34*
%TO.C,R50*%
X217625000Y-95912500D03*
X217625000Y-94087500D03*
%TD*%
D57*
%TO.C,R4*%
X103525000Y-94887500D03*
X103525000Y-96712500D03*
%TD*%
D19*
%TO.C,R41*%
X205500000Y-96652500D03*
X205500000Y-97847500D03*
%TD*%
D46*
%TO.C,Q20*%
X223050000Y-85675000D03*
X224950000Y-85675000D03*
X224000000Y-83800000D03*
%TD*%
D28*
%TO.C,Q1*%
X100737500Y-82225000D03*
X100737500Y-84125000D03*
X102612500Y-83175000D03*
%TD*%
D19*
%TO.C,R42*%
X205500000Y-94402500D03*
X205500000Y-95597500D03*
%TD*%
D36*
%TO.C,J11*%
X171532000Y-112275000D03*
D35*
X169032000Y-112275000D03*
%TD*%
D28*
%TO.C,Q17*%
X213687500Y-94050000D03*
X213687500Y-95950000D03*
X215562500Y-95000000D03*
%TD*%
D57*
%TO.C,R13*%
X138050000Y-90412500D03*
X138050000Y-92237500D03*
%TD*%
D48*
%TO.C,Q6*%
X172680000Y-98200000D03*
D49*
X170400000Y-104500000D03*
D48*
X168120000Y-98200000D03*
%TD*%
D21*
%TO.C,R5*%
X121187500Y-88000000D03*
X123012500Y-88000000D03*
%TD*%
D29*
%TO.C,K5*%
X195048500Y-88348000D03*
D30*
X195048500Y-78188000D03*
X195048500Y-70568000D03*
D31*
X187428500Y-88348000D03*
%TD*%
D21*
%TO.C,R52*%
X220987500Y-92400000D03*
X222812500Y-92400000D03*
%TD*%
D65*
%TO.C,C5*%
X96075000Y-98375000D03*
X96075000Y-101325000D03*
%TD*%
D57*
%TO.C,R11*%
X136475000Y-90412500D03*
X136475000Y-92237500D03*
%TD*%
D21*
%TO.C,R26*%
X182487500Y-87800000D03*
X184312500Y-87800000D03*
%TD*%
D38*
%TO.C,J8*%
X131225000Y-106625000D03*
D39*
X133225000Y-106625000D03*
X135225000Y-106625000D03*
%TD*%
D24*
%TO.C,J2*%
X87577500Y-98260000D03*
D25*
X87577500Y-103340000D03*
%TD*%
D34*
%TO.C,R48*%
X211625000Y-95912500D03*
X211625000Y-94087500D03*
%TD*%
D46*
%TO.C,Q3*%
X121050000Y-85737500D03*
X122950000Y-85737500D03*
X122000000Y-83862500D03*
%TD*%
D70*
%TO.C,U4*%
X157525000Y-108955000D03*
X157525000Y-107685000D03*
X157525000Y-106415000D03*
X157525000Y-105145000D03*
X157525000Y-103875000D03*
X157525000Y-102605000D03*
X157525000Y-101335000D03*
X157525000Y-100065000D03*
X157525000Y-98795000D03*
X157525000Y-97525000D03*
X157525000Y-96255000D03*
X157525000Y-94985000D03*
X157525000Y-93715000D03*
X157525000Y-92445000D03*
D71*
X154740000Y-91445000D03*
X153470000Y-91445000D03*
X152200000Y-91445000D03*
X150930000Y-91445000D03*
X149660000Y-91445000D03*
X148390000Y-91445000D03*
X147120000Y-91445000D03*
X145850000Y-91445000D03*
X144580000Y-91445000D03*
X143310000Y-91445000D03*
D70*
X140525000Y-92445000D03*
X140525000Y-93715000D03*
X140525000Y-94985000D03*
X140525000Y-96255000D03*
X140525000Y-97525000D03*
X140525000Y-98795000D03*
X140525000Y-100065000D03*
X140525000Y-101335000D03*
X140525000Y-102605000D03*
X140525000Y-103875000D03*
X140525000Y-105145000D03*
X140525000Y-106415000D03*
X140525000Y-107685000D03*
X140525000Y-108955000D03*
D72*
X150025000Y-101455000D03*
%TD*%
D57*
%TO.C,R1*%
X91500000Y-90087500D03*
X91500000Y-91912500D03*
%TD*%
D20*
%TO.C,D11*%
X179950000Y-83862500D03*
X178050000Y-83862500D03*
X179000000Y-85737500D03*
%TD*%
D17*
%TO.C,TP3*%
X98525000Y-114200000D03*
%TD*%
D46*
%TO.C,Q15*%
X202650000Y-85737500D03*
X204550000Y-85737500D03*
X203600000Y-83862500D03*
%TD*%
D35*
%TO.C,J14*%
X187032000Y-112275000D03*
D36*
X189532000Y-112275000D03*
%TD*%
D48*
%TO.C,Q16*%
X216305000Y-98200000D03*
D49*
X214025000Y-104500000D03*
D48*
X211745000Y-98200000D03*
%TD*%
D57*
%TO.C,R8*%
X130200000Y-94537500D03*
X130200000Y-96362500D03*
%TD*%
D27*
%TO.C,C13*%
X102225000Y-100250000D03*
X100675000Y-100250000D03*
%TD*%
D73*
%TO.C,C8*%
X118287500Y-106675000D03*
X120012500Y-106675000D03*
%TD*%
D47*
%TO.C,FB2*%
X160230000Y-107572500D03*
X160230000Y-109147500D03*
%TD*%
D74*
%TO.C,J5*%
X127625000Y-98985000D03*
X126355000Y-101525000D03*
X125085000Y-98985000D03*
X123815000Y-101525000D03*
X122545000Y-98985000D03*
X121275000Y-101525000D03*
D75*
X119875000Y-99725000D03*
%TD*%
D46*
%TO.C,Q4*%
X141250000Y-85737500D03*
X143150000Y-85737500D03*
X142200000Y-83862500D03*
%TD*%
D33*
%TO.C,C6*%
X98575000Y-105000000D03*
X98575000Y-103450000D03*
%TD*%
D34*
%TO.C,R18*%
X162310000Y-103020000D03*
X162310000Y-101195000D03*
%TD*%
D65*
%TO.C,C3*%
X92400000Y-100125000D03*
X92400000Y-103075000D03*
%TD*%
M02*
