M48
; DRILL file {KiCad (6.0.7)} date Wed Apr 19 22:26:31 2023
; FORMAT={-:-/ absolute / inch / decimal}
; #@! TF.CreationDate,2023-04-19T22:26:31+02:00
; #@! TF.GenerationSoftware,Kicad,Pcbnew,(6.0.7)
; #@! TF.FileFunction,Plated,1,2,PTH
FMAT,2
INCH
; #@! TA.AperFunction,Plated,PTH,ViaDrill
T1C0.0118
; #@! TA.AperFunction,Plated,PTH,ViaDrill
T2C0.0157
; #@! TA.AperFunction,Plated,PTH,ViaDrill
T3C0.0197
; #@! TA.AperFunction,Plated,PTH,ComponentDrill
T4C0.0197
; #@! TA.AperFunction,Plated,PTH,ComponentDrill
T5C0.0256
; #@! TA.AperFunction,Plated,PTH,ComponentDrill
T6C0.0295
; #@! TA.AperFunction,Plated,PTH,ComponentDrill
T7C0.0299
; #@! TA.AperFunction,Plated,PTH,ComponentDrill
T8C0.0335
; #@! TA.AperFunction,Plated,PTH,ComponentDrill
T9C0.0394
; #@! TA.AperFunction,Plated,PTH,ComponentDrill
T10C0.0472
; #@! TA.AperFunction,Plated,PTH,ComponentDrill
T11C0.0512
; #@! TA.AperFunction,Plated,PTH,ComponentDrill
T12C0.0551
; #@! TA.AperFunction,Plated,PTH,ComponentDrill
T13C0.0610
; #@! TA.AperFunction,Plated,PTH,ComponentDrill
T14C0.0748
; #@! TA.AperFunction,Plated,PTH,ComponentDrill
T15C0.1260
%
G90
G05
T1
X3.9331Y-3.6594
X3.9331Y-3.687
X3.9606Y-3.6594
X3.9606Y-3.687
X4.2913Y-3.6024
X4.2913Y-3.626
X4.2913Y-3.6496
X4.315Y-3.6024
X4.315Y-3.626
X4.315Y-3.6496
X5.461Y-3.9394
X5.4654Y-3.8894
X5.6075Y-3.9398
X5.6098Y-3.8894
X6.0594Y-3.972
X6.5461Y-4.2055
X7.1902Y-4.0433
X7.1917Y-4.1787
X7.1976Y-4.2343
X7.2146Y-3.8976
X7.3484Y-3.874
X8.0307Y-4.0441
X8.0457Y-4.2343
X8.0465Y-4.1776
X8.0915Y-3.8809
X8.1949Y-4.126
X8.2067Y-3.878
X8.2333Y-4.0197
T2
X3.5945Y-4.3831
X3.6831Y-3.5787
X3.6831Y-3.6093
X3.7382Y-3.815
X3.7736Y-3.815
X3.7815Y-4.0335
X3.8091Y-3.815
X3.814Y-4.0335
X3.8219Y-3.5748
X3.8219Y-3.6063
X3.8445Y-3.815
X3.8465Y-4.0335
X3.8661Y-3.3789
X3.8799Y-3.815
X3.8799Y-4.0335
X3.8799Y-4.1703
X3.8996Y-3.3789
X3.9045Y-3.312
X3.9134Y-4.0335
X3.9321Y-3.3789
X4.0728Y-3.8524
X4.0728Y-3.8839
X4.0728Y-3.9154
X4.0728Y-3.9478
X4.1043Y-3.8524
X4.1043Y-3.8839
X4.1043Y-3.9154
X4.1043Y-3.9478
X4.1102Y-3.2382
X4.1388Y-3.7303
X4.1585Y-3.7618
X4.1831Y-3.2689
X4.1839Y-3.3043
X4.2165Y-3.5837
X4.2197Y-3.2681
X4.2201Y-3.3055
X4.3809Y-3.6772
X4.501Y-3.7815
X4.501Y-3.8209
X4.501Y-3.8602
X4.5404Y-3.7815
X4.5404Y-3.8209
X4.5404Y-3.8602
X4.5797Y-3.7815
X4.5797Y-3.8209
X4.5797Y-3.8602
X4.6191Y-3.7815
X4.6191Y-3.8209
X4.6191Y-3.8602
X4.7323Y-3.4656
X4.7854Y-4.2008
X5.0335Y-4.4734
X5.0339Y-4.1827
X5.6169Y-3.6803
X5.6413Y-3.6598
X5.6925Y-3.6657
X5.7909Y-3.6661
X5.8429Y-3.665
X5.8848Y-3.5177
X5.9321Y-3.4646
X6.0421Y-3.6811
X6.1339Y-3.7409
X6.1362Y-3.6898
X6.1368Y-3.7884
X6.1368Y-3.8396
X6.1368Y-3.8888
X6.3366Y-3.4587
X6.3711Y-3.6415
X6.3941Y-4.1512
X6.9459Y-3.6043
X7.1831Y-3.4213
X7.376Y-3.7421
X7.4636Y-3.6122
X7.7736Y-3.6378
X7.9783Y-3.4213
X8.2449Y-3.7744
X8.3337Y-3.8091
X8.3366Y-3.9262
X8.3455Y-3.6388
X8.378Y-3.8661
X8.6063Y-3.8661
X8.6506Y-3.6378
X8.6535Y-3.9331
X8.7008Y-3.8671
X8.7815Y-3.4193
X8.8809Y-3.6555
T3
X3.4518Y-3.7402
X3.4921Y-3.7402
X3.5325Y-3.7402
X3.5728Y-3.7402
X6.3524Y-4.3122
T4
X3.6821Y-4.4961
X3.7805Y-4.4961
X3.8789Y-4.4961
X3.9774Y-4.4961
T5
X5.2219Y-3.8171
X5.2219Y-3.8671
X5.2719Y-3.8171
X5.2719Y-3.8671
X5.3219Y-3.8171
X5.3219Y-3.8671
T6
X5.1663Y-4.1978
X5.1663Y-4.4203
X5.2451Y-4.1978
X5.2451Y-4.4203
X5.3238Y-4.1978
X5.3238Y-4.4203
T7
X4.1586Y-3.4783
X4.4586Y-3.4783
X4.9618Y-3.4783
X5.2618Y-3.4783
X5.757Y-3.4783
X6.057Y-3.4783
X6.5838Y-3.4783
X6.8838Y-3.4783
X7.3791Y-3.4783
X7.6791Y-3.4783
X8.1803Y-3.4783
X8.4803Y-3.4783
T8
X4.7746Y-3.997
X4.8246Y-3.897
X4.8746Y-3.997
X4.9246Y-3.897
X4.9746Y-3.997
X5.0246Y-3.897
T9
X6.6548Y-4.4203
X6.7532Y-4.4203
X7.0091Y-4.4203
X7.1076Y-4.4203
X7.3635Y-4.4203
X7.4619Y-4.4203
X7.7178Y-4.4203
X7.8162Y-4.4203
X8.0721Y-4.4203
X8.1706Y-4.4203
X8.4265Y-4.4203
X8.5249Y-4.4203
T10
X3.848Y-2.9461
X3.9858Y-2.9461
X4.649Y-2.9469
X4.7868Y-2.9469
X5.4461Y-2.9461
X5.5839Y-2.9461
X6.271Y-2.9466
X6.4088Y-2.9466
X7.0663Y-2.9466
X7.2041Y-2.9466
X7.8649Y-2.9466
X8.0027Y-2.9466
T11
X4.4586Y-2.7783
X4.4586Y-3.0783
X5.2618Y-2.7783
X5.2618Y-3.0783
X6.057Y-2.7783
X6.057Y-3.0783
X6.8838Y-2.7783
X6.8838Y-3.0783
X7.6791Y-2.7783
X7.6791Y-3.0783
X8.4803Y-2.7783
X8.4803Y-3.0783
T12
X3.447Y-3.1488
X3.447Y-3.3488
X3.447Y-3.5488
X3.4479Y-3.8685
X3.4479Y-4.0685
T13
X4.7195Y-3.9262
T14
X4.0108Y-4.253
X4.5305Y-4.253
T15
X3.1693Y-4.4528
X3.17Y-2.84
X8.7921Y-2.8479
X8.7954Y-4.4488
T0
M30
