%TF.GenerationSoftware,KiCad,Pcbnew,(6.0.7)*%
%TF.CreationDate,2023-04-19T22:26:27+02:00*%
%TF.ProjectId,mainboard,6d61696e-626f-4617-9264-2e6b69636164,rev?*%
%TF.SameCoordinates,Original*%
%TF.FileFunction,Soldermask,Top*%
%TF.FilePolarity,Negative*%
%FSLAX46Y46*%
G04 Gerber Fmt 4.6, Leading zero omitted, Abs format (unit mm)*
G04 Created by KiCad (PCBNEW (6.0.7)) date 2023-04-19 22:26:27*
%MOMM*%
%LPD*%
G01*
G04 APERTURE LIST*
G04 Aperture macros list*
%AMRoundRect*
0 Rectangle with rounded corners*
0 $1 Rounding radius*
0 $2 $3 $4 $5 $6 $7 $8 $9 X,Y pos of 4 corners*
0 Add a 4 corners polygon primitive as box body*
4,1,4,$2,$3,$4,$5,$6,$7,$8,$9,$2,$3,0*
0 Add four circle primitives for the rounded corners*
1,1,$1+$1,$2,$3*
1,1,$1+$1,$4,$5*
1,1,$1+$1,$6,$7*
1,1,$1+$1,$8,$9*
0 Add four rect primitives between the rounded corners*
20,1,$1+$1,$2,$3,$4,$5,0*
20,1,$1+$1,$4,$5,$6,$7,0*
20,1,$1+$1,$6,$7,$8,$9,0*
20,1,$1+$1,$8,$9,$2,$3,0*%
%AMFreePoly0*
4,1,9,3.862500,-0.866500,0.737500,-0.866500,0.737500,-0.450000,-0.737500,-0.450000,-0.737500,0.450000,0.737500,0.450000,0.737500,0.866500,3.862500,0.866500,3.862500,-0.866500,3.862500,-0.866500,$1*%
G04 Aperture macros list end*
%ADD10RoundRect,0.250000X-0.650000X-1.550000X0.650000X-1.550000X0.650000X1.550000X-0.650000X1.550000X0*%
%ADD11O,1.800000X3.600000*%
%ADD12C,1.000000*%
%ADD13RoundRect,0.160000X-0.197500X-0.160000X0.197500X-0.160000X0.197500X0.160000X-0.197500X0.160000X0*%
%ADD14RoundRect,0.160000X-0.160000X0.197500X-0.160000X-0.197500X0.160000X-0.197500X0.160000X0.197500X0*%
%ADD15RoundRect,0.150000X-0.150000X0.587500X-0.150000X-0.587500X0.150000X-0.587500X0.150000X0.587500X0*%
%ADD16RoundRect,0.237500X-0.250000X-0.237500X0.250000X-0.237500X0.250000X0.237500X-0.250000X0.237500X0*%
%ADD17RoundRect,0.250000X-0.650000X0.412500X-0.650000X-0.412500X0.650000X-0.412500X0.650000X0.412500X0*%
%ADD18RoundRect,0.250000X-0.450000X0.325000X-0.450000X-0.325000X0.450000X-0.325000X0.450000X0.325000X0*%
%ADD19RoundRect,0.249999X-1.550001X0.790001X-1.550001X-0.790001X1.550001X-0.790001X1.550001X0.790001X0*%
%ADD20O,3.600000X2.080000*%
%ADD21RoundRect,0.250000X0.450000X-0.325000X0.450000X0.325000X-0.450000X0.325000X-0.450000X-0.325000X0*%
%ADD22RoundRect,0.225000X0.225000X0.250000X-0.225000X0.250000X-0.225000X-0.250000X0.225000X-0.250000X0*%
%ADD23RoundRect,0.150000X-0.587500X-0.150000X0.587500X-0.150000X0.587500X0.150000X-0.587500X0.150000X0*%
%ADD24R,1.520000X1.520000*%
%ADD25C,2.000000*%
%ADD26C,1.520000*%
%ADD27RoundRect,0.250000X-0.475000X0.250000X-0.475000X-0.250000X0.475000X-0.250000X0.475000X0.250000X0*%
%ADD28RoundRect,0.225000X0.250000X-0.225000X0.250000X0.225000X-0.250000X0.225000X-0.250000X-0.225000X0*%
%ADD29RoundRect,0.237500X0.237500X-0.250000X0.237500X0.250000X-0.237500X0.250000X-0.237500X-0.250000X0*%
%ADD30RoundRect,0.250000X-0.600000X-0.750000X0.600000X-0.750000X0.600000X0.750000X-0.600000X0.750000X0*%
%ADD31O,1.700000X2.000000*%
%ADD32C,6.400000*%
%ADD33RoundRect,0.250000X-0.350000X-0.625000X0.350000X-0.625000X0.350000X0.625000X-0.350000X0.625000X0*%
%ADD34O,1.200000X1.750000*%
%ADD35RoundRect,0.250000X0.250000X0.475000X-0.250000X0.475000X-0.250000X-0.475000X0.250000X-0.475000X0*%
%ADD36RoundRect,0.250000X1.500000X0.550000X-1.500000X0.550000X-1.500000X-0.550000X1.500000X-0.550000X0*%
%ADD37R,1.000000X1.000000*%
%ADD38O,1.000000X1.000000*%
%ADD39RoundRect,0.250000X-0.250000X-0.475000X0.250000X-0.475000X0.250000X0.475000X-0.250000X0.475000X0*%
%ADD40R,0.450000X1.400000*%
%ADD41RoundRect,0.150000X0.150000X-0.587500X0.150000X0.587500X-0.150000X0.587500X-0.150000X-0.587500X0*%
%ADD42RoundRect,0.218750X-0.256250X0.218750X-0.256250X-0.218750X0.256250X-0.218750X0.256250X0.218750X0*%
%ADD43R,1.200000X2.200000*%
%ADD44R,5.800000X6.400000*%
%ADD45RoundRect,0.150000X0.150000X-0.825000X0.150000X0.825000X-0.150000X0.825000X-0.150000X-0.825000X0*%
%ADD46R,0.700000X1.000000*%
%ADD47C,3.000000*%
%ADD48C,9.000000*%
%ADD49R,0.800000X1.500000*%
%ADD50R,0.600000X0.300000*%
%ADD51R,0.400000X1.730000*%
%ADD52RoundRect,0.237500X-0.237500X0.250000X-0.237500X-0.250000X0.237500X-0.250000X0.237500X0.250000X0*%
%ADD53RoundRect,0.250000X0.625000X-0.375000X0.625000X0.375000X-0.625000X0.375000X-0.625000X-0.375000X0*%
%ADD54R,1.500000X3.600000*%
%ADD55RoundRect,0.250000X-1.500000X-0.550000X1.500000X-0.550000X1.500000X0.550000X-1.500000X0.550000X0*%
%ADD56RoundRect,0.225000X-0.225000X-0.250000X0.225000X-0.250000X0.225000X0.250000X-0.225000X0.250000X0*%
%ADD57RoundRect,0.237500X0.250000X0.237500X-0.250000X0.237500X-0.250000X-0.237500X0.250000X-0.237500X0*%
%ADD58R,0.900000X1.300000*%
%ADD59FreePoly0,270.000000*%
%ADD60RoundRect,0.250000X-0.650000X0.325000X-0.650000X-0.325000X0.650000X-0.325000X0.650000X0.325000X0*%
%ADD61R,2.150000X2.800000*%
%ADD62R,0.600000X1.100000*%
%ADD63R,1.500000X2.400000*%
%ADD64RoundRect,0.237500X0.237500X-0.300000X0.237500X0.300000X-0.237500X0.300000X-0.237500X-0.300000X0*%
%ADD65R,2.000000X0.900000*%
%ADD66R,0.900000X2.000000*%
%ADD67R,5.000000X5.000000*%
%ADD68RoundRect,0.237500X-0.300000X-0.237500X0.300000X-0.237500X0.300000X0.237500X-0.300000X0.237500X0*%
%ADD69C,1.350000*%
%ADD70C,2.350000*%
G04 APERTURE END LIST*
D10*
%TO.C,J3*%
X97740000Y-74830000D03*
D11*
X101240000Y-74830000D03*
%TD*%
D12*
%TO.C,TP2*%
X96025000Y-114200000D03*
%TD*%
D13*
%TO.C,R29*%
X183905000Y-107100000D03*
X185100000Y-107100000D03*
%TD*%
D14*
%TO.C,R30*%
X185825000Y-97227500D03*
X185825000Y-98422500D03*
%TD*%
D15*
%TO.C,D13*%
X220550000Y-83800000D03*
X218650000Y-83800000D03*
X219600000Y-85675000D03*
%TD*%
D16*
%TO.C,R2*%
X101075000Y-85837500D03*
X102900000Y-85837500D03*
%TD*%
D10*
%TO.C,J10*%
X159283500Y-74842500D03*
D11*
X162783500Y-74842500D03*
%TD*%
D17*
%TO.C,C17*%
X127075000Y-91537500D03*
X127075000Y-94662500D03*
%TD*%
D18*
%TO.C,D10*%
X160590000Y-100522500D03*
X160590000Y-102572500D03*
%TD*%
D14*
%TO.C,R28*%
X183800000Y-94602500D03*
X183800000Y-95797500D03*
%TD*%
D19*
%TO.C,J1*%
X87555000Y-79980000D03*
D20*
X87555000Y-85060000D03*
X87555000Y-90140000D03*
%TD*%
D21*
%TO.C,D6*%
X133775000Y-94075000D03*
X133775000Y-92025000D03*
%TD*%
D22*
%TO.C,C11*%
X102200000Y-98625000D03*
X100650000Y-98625000D03*
%TD*%
D23*
%TO.C,Q12*%
X191137500Y-93950000D03*
X191137500Y-95850000D03*
X193012500Y-94900000D03*
%TD*%
D14*
%TO.C,R46*%
X209900000Y-100902500D03*
X209900000Y-102097500D03*
%TD*%
D10*
%TO.C,J13*%
X179483500Y-74842500D03*
D11*
X182983500Y-74842500D03*
%TD*%
D24*
%TO.C,K2*%
X133648500Y-88348000D03*
D25*
X133648500Y-78188000D03*
X133648500Y-70568000D03*
D26*
X126028500Y-88348000D03*
%TD*%
D24*
%TO.C,K4*%
X174848500Y-88348000D03*
D25*
X174848500Y-78188000D03*
X174848500Y-70568000D03*
D26*
X167228500Y-88348000D03*
%TD*%
D27*
%TO.C,C15*%
X111375000Y-96950000D03*
X111375000Y-98850000D03*
%TD*%
D28*
%TO.C,C4*%
X95625000Y-105000000D03*
X95625000Y-103450000D03*
%TD*%
D29*
%TO.C,R20*%
X167700000Y-95712500D03*
X167700000Y-93887500D03*
%TD*%
D30*
%TO.C,J12*%
X178032000Y-112275000D03*
D31*
X180532000Y-112275000D03*
%TD*%
D24*
%TO.C,K6*%
X215400000Y-88348000D03*
D25*
X215400000Y-78188000D03*
X215400000Y-70568000D03*
D26*
X207780000Y-88348000D03*
%TD*%
D29*
%TO.C,R37*%
X197100000Y-95912500D03*
X197100000Y-94087500D03*
%TD*%
D12*
%TO.C,TP1*%
X93525000Y-114200000D03*
%TD*%
D32*
%TO.C,H4*%
X223402000Y-113000000D03*
%TD*%
D33*
%TO.C,J7*%
X131225000Y-112275000D03*
D34*
X133225000Y-112275000D03*
X135225000Y-112275000D03*
%TD*%
D29*
%TO.C,R34*%
X189175000Y-95812500D03*
X189175000Y-93987500D03*
%TD*%
D35*
%TO.C,C2*%
X92975000Y-106525000D03*
X91075000Y-106525000D03*
%TD*%
D36*
%TO.C,C1*%
X91590000Y-111230000D03*
X85990000Y-111230000D03*
%TD*%
D23*
%TO.C,Q9*%
X177712500Y-93950000D03*
X177712500Y-95850000D03*
X179587500Y-94900000D03*
%TD*%
D29*
%TO.C,R51*%
X219600000Y-95912500D03*
X219600000Y-94087500D03*
%TD*%
D14*
%TO.C,R47*%
X209900000Y-98627500D03*
X209900000Y-99822500D03*
%TD*%
D37*
%TO.C,J6*%
X132635000Y-98225000D03*
D38*
X132635000Y-96955000D03*
X133905000Y-98225000D03*
X133905000Y-96955000D03*
X135175000Y-98225000D03*
X135175000Y-96955000D03*
%TD*%
D24*
%TO.C,K3*%
X153848500Y-88348000D03*
D25*
X153848500Y-78188000D03*
X153848500Y-70568000D03*
D26*
X146228500Y-88348000D03*
%TD*%
D39*
%TO.C,C14*%
X105175000Y-98550000D03*
X107075000Y-98550000D03*
%TD*%
D12*
%TO.C,TP4*%
X101025000Y-114200000D03*
%TD*%
D29*
%TO.C,R23*%
X175650000Y-95812500D03*
X175650000Y-93987500D03*
%TD*%
D40*
%TO.C,U6*%
X205525000Y-104800000D03*
X206175000Y-104800000D03*
X206825000Y-104800000D03*
X207475000Y-104800000D03*
X207475000Y-100400000D03*
X206825000Y-100400000D03*
X206175000Y-100400000D03*
X205525000Y-100400000D03*
%TD*%
D41*
%TO.C,Q5*%
X161950000Y-85737500D03*
X163850000Y-85737500D03*
X162900000Y-83862500D03*
%TD*%
D42*
%TO.C,FB1*%
X94575000Y-93812500D03*
X94575000Y-95387500D03*
%TD*%
D29*
%TO.C,R25*%
X181450000Y-95912500D03*
X181450000Y-94087500D03*
%TD*%
D15*
%TO.C,Q2*%
X102937500Y-87787500D03*
X101037500Y-87787500D03*
X101987500Y-89662500D03*
%TD*%
D32*
%TO.C,H1*%
X80500000Y-113100000D03*
%TD*%
D16*
%TO.C,R16*%
X162087500Y-87900000D03*
X163912500Y-87900000D03*
%TD*%
D23*
%TO.C,Q14*%
X199262500Y-94050000D03*
X199262500Y-95950000D03*
X201137500Y-95000000D03*
%TD*%
D29*
%TO.C,R36*%
X194975000Y-95912500D03*
X194975000Y-94087500D03*
%TD*%
D43*
%TO.C,Q8*%
X180430000Y-98200000D03*
D44*
X178150000Y-104500000D03*
D43*
X175870000Y-98200000D03*
%TD*%
D15*
%TO.C,D12*%
X200150000Y-83862500D03*
X198250000Y-83862500D03*
X199200000Y-85737500D03*
%TD*%
%TO.C,D1*%
X98400000Y-93312500D03*
X96500000Y-93312500D03*
X97450000Y-95187500D03*
%TD*%
D45*
%TO.C,U3*%
X121920000Y-114025000D03*
X123190000Y-114025000D03*
X124460000Y-114025000D03*
X125730000Y-114025000D03*
X125730000Y-109075000D03*
X124460000Y-109075000D03*
X123190000Y-109075000D03*
X121920000Y-109075000D03*
%TD*%
D14*
%TO.C,R44*%
X207800000Y-97302500D03*
X207800000Y-98497500D03*
%TD*%
D46*
%TO.C,SW1*%
X163975000Y-91160000D03*
X163975000Y-95660000D03*
X161825000Y-91160000D03*
X161825000Y-95660000D03*
%TD*%
D15*
%TO.C,D7*%
X138850000Y-83862500D03*
X136950000Y-83862500D03*
X137900000Y-85737500D03*
%TD*%
D47*
%TO.C,BT1*%
X115075000Y-108025000D03*
D48*
X108475000Y-108025000D03*
D47*
X101875000Y-108025000D03*
%TD*%
D40*
%TO.C,U5*%
X183825000Y-104800000D03*
X184475000Y-104800000D03*
X185125000Y-104800000D03*
X185775000Y-104800000D03*
X185775000Y-100400000D03*
X185125000Y-100400000D03*
X184475000Y-100400000D03*
X183825000Y-100400000D03*
%TD*%
D15*
%TO.C,D8*%
X159150000Y-83862500D03*
X157250000Y-83862500D03*
X158200000Y-85737500D03*
%TD*%
D16*
%TO.C,R49*%
X213112500Y-92425000D03*
X214937500Y-92425000D03*
%TD*%
D10*
%TO.C,J16*%
X199767500Y-74842500D03*
D11*
X203267500Y-74842500D03*
%TD*%
D16*
%TO.C,R14*%
X141287500Y-87900000D03*
X143112500Y-87900000D03*
%TD*%
D49*
%TO.C,U2*%
X106350000Y-92425000D03*
D50*
X106250000Y-93475000D03*
X106250000Y-93925000D03*
X106250000Y-94375000D03*
X107950000Y-94375000D03*
X107950000Y-93925000D03*
X107950000Y-93475000D03*
D49*
X107850000Y-92425000D03*
D51*
X107100000Y-92310000D03*
%TD*%
D29*
%TO.C,R39*%
X203100000Y-95912500D03*
X203100000Y-94087500D03*
%TD*%
D16*
%TO.C,R53*%
X223187500Y-87800000D03*
X225012500Y-87800000D03*
%TD*%
D29*
%TO.C,R15*%
X163780000Y-103020000D03*
X163780000Y-101195000D03*
%TD*%
D52*
%TO.C,R3*%
X100275000Y-94962500D03*
X100275000Y-96787500D03*
%TD*%
D14*
%TO.C,R27*%
X183800000Y-97227500D03*
X183800000Y-98422500D03*
%TD*%
D53*
%TO.C,F2*%
X92400000Y-97800000D03*
X92400000Y-95000000D03*
%TD*%
D29*
%TO.C,R54*%
X225600000Y-95887500D03*
X225600000Y-94062500D03*
%TD*%
D52*
%TO.C,R9*%
X127875000Y-110650000D03*
X127875000Y-112475000D03*
%TD*%
D16*
%TO.C,R6*%
X119487500Y-103850000D03*
X121312500Y-103850000D03*
%TD*%
D23*
%TO.C,Q19*%
X221662500Y-94050000D03*
X221662500Y-95950000D03*
X223537500Y-95000000D03*
%TD*%
D24*
%TO.C,K1*%
X113248500Y-88348000D03*
D25*
X113248500Y-78188000D03*
X113248500Y-70568000D03*
D26*
X105628500Y-88348000D03*
%TD*%
D29*
%TO.C,R22*%
X173475000Y-95912500D03*
X173475000Y-94087500D03*
%TD*%
D41*
%TO.C,D2*%
X97075000Y-89637500D03*
X98975000Y-89637500D03*
X98025000Y-87762500D03*
%TD*%
D43*
%TO.C,Q11*%
X194055000Y-98200000D03*
D44*
X191775000Y-104500000D03*
D43*
X189495000Y-98200000D03*
%TD*%
D41*
%TO.C,Q10*%
X182450000Y-85737500D03*
X184350000Y-85737500D03*
X183400000Y-83862500D03*
%TD*%
D54*
%TO.C,L1*%
X111275000Y-93400000D03*
X114325000Y-93400000D03*
%TD*%
D55*
%TO.C,C16*%
X117900000Y-92875000D03*
X123500000Y-92875000D03*
%TD*%
D16*
%TO.C,R38*%
X198637500Y-92400000D03*
X200462500Y-92400000D03*
%TD*%
D30*
%TO.C,J17*%
X205032000Y-112275000D03*
D31*
X207532000Y-112275000D03*
%TD*%
D22*
%TO.C,C10*%
X103675000Y-93100000D03*
X102125000Y-93100000D03*
%TD*%
D56*
%TO.C,C12*%
X107725000Y-95800000D03*
X109275000Y-95800000D03*
%TD*%
D16*
%TO.C,R7*%
X122287500Y-105425000D03*
X124112500Y-105425000D03*
%TD*%
%TO.C,R17*%
X161807500Y-108520000D03*
X163632500Y-108520000D03*
%TD*%
D13*
%TO.C,R43*%
X205302500Y-107100000D03*
X206497500Y-107100000D03*
%TD*%
D57*
%TO.C,R12*%
X132925000Y-103320000D03*
X131100000Y-103320000D03*
%TD*%
D43*
%TO.C,Q18*%
X224355000Y-98200000D03*
D44*
X222075000Y-104500000D03*
D43*
X219795000Y-98200000D03*
%TD*%
D32*
%TO.C,H2*%
X80518000Y-72136000D03*
%TD*%
D14*
%TO.C,R33*%
X187700000Y-99052500D03*
X187700000Y-100247500D03*
%TD*%
D57*
%TO.C,R19*%
X163632500Y-106970000D03*
X161807500Y-106970000D03*
%TD*%
D58*
%TO.C,U1*%
X98360000Y-107230000D03*
D59*
X96860000Y-107317500D03*
D58*
X95360000Y-107230000D03*
%TD*%
D10*
%TO.C,J4*%
X118083500Y-74850500D03*
D11*
X121583500Y-74850500D03*
%TD*%
D14*
%TO.C,R31*%
X185800000Y-94602500D03*
X185800000Y-95797500D03*
%TD*%
D43*
%TO.C,Q13*%
X201780000Y-98200000D03*
D44*
X199500000Y-104500000D03*
D43*
X197220000Y-98200000D03*
%TD*%
D16*
%TO.C,R24*%
X177237500Y-92300000D03*
X179062500Y-92300000D03*
%TD*%
%TO.C,R40*%
X202787500Y-87800000D03*
X204612500Y-87800000D03*
%TD*%
D30*
%TO.C,J15*%
X196032000Y-112275000D03*
D31*
X198532000Y-112275000D03*
%TD*%
D23*
%TO.C,Q7*%
X169637500Y-93850000D03*
X169637500Y-95750000D03*
X171512500Y-94800000D03*
%TD*%
D16*
%TO.C,R35*%
X190762500Y-92300000D03*
X192587500Y-92300000D03*
%TD*%
D32*
%TO.C,H3*%
X223320000Y-72336000D03*
%TD*%
D14*
%TO.C,R45*%
X207800000Y-94402500D03*
X207800000Y-95597500D03*
%TD*%
D28*
%TO.C,C9*%
X101925000Y-96625000D03*
X101925000Y-95075000D03*
%TD*%
D60*
%TO.C,C7*%
X98575000Y-98375000D03*
X98575000Y-101325000D03*
%TD*%
D15*
%TO.C,D5*%
X118350000Y-83862500D03*
X116450000Y-83862500D03*
X117400000Y-85737500D03*
%TD*%
D41*
%TO.C,D3*%
X93550000Y-89662500D03*
X95450000Y-89662500D03*
X94500000Y-87787500D03*
%TD*%
D52*
%TO.C,R10*%
X127875000Y-107287500D03*
X127875000Y-109112500D03*
%TD*%
D61*
%TO.C,F1*%
X91855000Y-72200000D03*
X86945000Y-72200000D03*
%TD*%
D15*
%TO.C,D4*%
X117310000Y-100222500D03*
X115410000Y-100222500D03*
X116360000Y-102097500D03*
%TD*%
D10*
%TO.C,J9*%
X138330000Y-74830000D03*
D11*
X141830000Y-74830000D03*
%TD*%
D18*
%TO.C,D9*%
X165500000Y-100565000D03*
X165500000Y-102615000D03*
%TD*%
D62*
%TO.C,Y1*%
X118275000Y-108800000D03*
X119275000Y-108800000D03*
D63*
X118775000Y-114400000D03*
%TD*%
D16*
%TO.C,R21*%
X169062500Y-92225000D03*
X170887500Y-92225000D03*
%TD*%
D14*
%TO.C,R32*%
X187700000Y-101302500D03*
X187700000Y-102497500D03*
%TD*%
D64*
%TO.C,C18*%
X165230000Y-108562500D03*
X165230000Y-106837500D03*
%TD*%
D30*
%TO.C,J18*%
X214032000Y-112275000D03*
D31*
X216532000Y-112275000D03*
%TD*%
D29*
%TO.C,R50*%
X217625000Y-95912500D03*
X217625000Y-94087500D03*
%TD*%
D52*
%TO.C,R4*%
X103525000Y-94887500D03*
X103525000Y-96712500D03*
%TD*%
D14*
%TO.C,R41*%
X205500000Y-96652500D03*
X205500000Y-97847500D03*
%TD*%
D41*
%TO.C,Q20*%
X223050000Y-85675000D03*
X224950000Y-85675000D03*
X224000000Y-83800000D03*
%TD*%
D23*
%TO.C,Q1*%
X100737500Y-82225000D03*
X100737500Y-84125000D03*
X102612500Y-83175000D03*
%TD*%
D14*
%TO.C,R42*%
X205500000Y-94402500D03*
X205500000Y-95597500D03*
%TD*%
D31*
%TO.C,J11*%
X171532000Y-112275000D03*
D30*
X169032000Y-112275000D03*
%TD*%
D23*
%TO.C,Q17*%
X213687500Y-94050000D03*
X213687500Y-95950000D03*
X215562500Y-95000000D03*
%TD*%
D52*
%TO.C,R13*%
X138050000Y-90412500D03*
X138050000Y-92237500D03*
%TD*%
D43*
%TO.C,Q6*%
X172680000Y-98200000D03*
D44*
X170400000Y-104500000D03*
D43*
X168120000Y-98200000D03*
%TD*%
D16*
%TO.C,R5*%
X121187500Y-88000000D03*
X123012500Y-88000000D03*
%TD*%
D24*
%TO.C,K5*%
X195048500Y-88348000D03*
D25*
X195048500Y-78188000D03*
X195048500Y-70568000D03*
D26*
X187428500Y-88348000D03*
%TD*%
D16*
%TO.C,R52*%
X220987500Y-92400000D03*
X222812500Y-92400000D03*
%TD*%
D60*
%TO.C,C5*%
X96075000Y-98375000D03*
X96075000Y-101325000D03*
%TD*%
D52*
%TO.C,R11*%
X136475000Y-90412500D03*
X136475000Y-92237500D03*
%TD*%
D16*
%TO.C,R26*%
X182487500Y-87800000D03*
X184312500Y-87800000D03*
%TD*%
D33*
%TO.C,J8*%
X131225000Y-106625000D03*
D34*
X133225000Y-106625000D03*
X135225000Y-106625000D03*
%TD*%
D19*
%TO.C,J2*%
X87577500Y-98260000D03*
D20*
X87577500Y-103340000D03*
%TD*%
D29*
%TO.C,R48*%
X211625000Y-95912500D03*
X211625000Y-94087500D03*
%TD*%
D41*
%TO.C,Q3*%
X121050000Y-85737500D03*
X122950000Y-85737500D03*
X122000000Y-83862500D03*
%TD*%
D65*
%TO.C,U4*%
X157525000Y-108955000D03*
X157525000Y-107685000D03*
X157525000Y-106415000D03*
X157525000Y-105145000D03*
X157525000Y-103875000D03*
X157525000Y-102605000D03*
X157525000Y-101335000D03*
X157525000Y-100065000D03*
X157525000Y-98795000D03*
X157525000Y-97525000D03*
X157525000Y-96255000D03*
X157525000Y-94985000D03*
X157525000Y-93715000D03*
X157525000Y-92445000D03*
D66*
X154740000Y-91445000D03*
X153470000Y-91445000D03*
X152200000Y-91445000D03*
X150930000Y-91445000D03*
X149660000Y-91445000D03*
X148390000Y-91445000D03*
X147120000Y-91445000D03*
X145850000Y-91445000D03*
X144580000Y-91445000D03*
X143310000Y-91445000D03*
D65*
X140525000Y-92445000D03*
X140525000Y-93715000D03*
X140525000Y-94985000D03*
X140525000Y-96255000D03*
X140525000Y-97525000D03*
X140525000Y-98795000D03*
X140525000Y-100065000D03*
X140525000Y-101335000D03*
X140525000Y-102605000D03*
X140525000Y-103875000D03*
X140525000Y-105145000D03*
X140525000Y-106415000D03*
X140525000Y-107685000D03*
X140525000Y-108955000D03*
D67*
X150025000Y-101455000D03*
%TD*%
D52*
%TO.C,R1*%
X91500000Y-90087500D03*
X91500000Y-91912500D03*
%TD*%
D15*
%TO.C,D11*%
X179950000Y-83862500D03*
X178050000Y-83862500D03*
X179000000Y-85737500D03*
%TD*%
D12*
%TO.C,TP3*%
X98525000Y-114200000D03*
%TD*%
D41*
%TO.C,Q15*%
X202650000Y-85737500D03*
X204550000Y-85737500D03*
X203600000Y-83862500D03*
%TD*%
D30*
%TO.C,J14*%
X187032000Y-112275000D03*
D31*
X189532000Y-112275000D03*
%TD*%
D43*
%TO.C,Q16*%
X216305000Y-98200000D03*
D44*
X214025000Y-104500000D03*
D43*
X211745000Y-98200000D03*
%TD*%
D52*
%TO.C,R8*%
X130200000Y-94537500D03*
X130200000Y-96362500D03*
%TD*%
D22*
%TO.C,C13*%
X102225000Y-100250000D03*
X100675000Y-100250000D03*
%TD*%
D68*
%TO.C,C8*%
X118287500Y-106675000D03*
X120012500Y-106675000D03*
%TD*%
D42*
%TO.C,FB2*%
X160230000Y-107572500D03*
X160230000Y-109147500D03*
%TD*%
D69*
%TO.C,J5*%
X127625000Y-98985000D03*
X126355000Y-101525000D03*
X125085000Y-98985000D03*
X123815000Y-101525000D03*
X122545000Y-98985000D03*
X121275000Y-101525000D03*
D70*
X119875000Y-99725000D03*
%TD*%
D41*
%TO.C,Q4*%
X141250000Y-85737500D03*
X143150000Y-85737500D03*
X142200000Y-83862500D03*
%TD*%
D28*
%TO.C,C6*%
X98575000Y-105000000D03*
X98575000Y-103450000D03*
%TD*%
D29*
%TO.C,R18*%
X162310000Y-103020000D03*
X162310000Y-101195000D03*
%TD*%
D60*
%TO.C,C3*%
X92400000Y-100125000D03*
X92400000Y-103075000D03*
%TD*%
M02*
