%TF.GenerationSoftware,KiCad,Pcbnew,(6.0.7)*%
%TF.CreationDate,2023-04-19T22:26:34+02:00*%
%TF.ProjectId,mainboard,6d61696e-626f-4617-9264-2e6b69636164,rev?*%
%TF.SameCoordinates,Original*%
%TF.FileFunction,Drillmap*%
%TF.FilePolarity,Positive*%
%FSLAX45Y45*%
G04 Gerber Fmt 4.5, Leading zero omitted, Abs format (unit mm)*
G04 Created by KiCad (PCBNEW (6.0.7)) date 2023-04-19 22:26:34*
%MOMM*%
%LPD*%
G01*
G04 APERTURE LIST*
%ADD10C,0.100000*%
%ADD11C,0.200000*%
G04 APERTURE END LIST*
D10*
X16560000Y-7980000D02*
G75*
G03*
X16560000Y-8080000I0J-50000D01*
G01*
X7696200Y-6858000D02*
X22707600Y-6858000D01*
X22707600Y-6858000D02*
X22707600Y-11675400D01*
X22707600Y-11675400D02*
X7696200Y-11675400D01*
X7696200Y-11675400D02*
X7696200Y-6858000D01*
X19170000Y-8080000D02*
G75*
G03*
X19170000Y-7980000I0J50000D01*
G01*
X9830000Y-7980000D02*
G75*
G03*
X9830000Y-8080000I0J-50000D01*
G01*
X9830000Y-7980000D02*
X10550000Y-7980000D01*
X16560000Y-7980000D02*
X17280000Y-7980000D01*
X9130000Y-8610000D02*
X9649741Y-8079602D01*
X19772000Y-7129000D02*
G75*
G03*
X19672000Y-7129000I-50000J0D01*
G01*
X8310000Y-8790000D02*
X9030000Y-8790000D01*
X15630000Y-7980000D02*
X16350000Y-7980000D01*
X13680000Y-7980000D02*
G75*
G03*
X13680000Y-8080000I0J-50000D01*
G01*
X19660000Y-8080000D02*
G75*
G03*
X19660000Y-7980000I0J50000D01*
G01*
X19400000Y-8080000D02*
X19660000Y-8080000D01*
X18450000Y-8080000D02*
X19170000Y-8080000D01*
X12470000Y-8080000D02*
G75*
G03*
X12470000Y-7980000I0J50000D01*
G01*
X9200000Y-8690000D02*
X9719741Y-8159602D01*
X10800000Y-8080000D02*
X11520000Y-8080000D01*
X8310000Y-8690000D02*
G75*
G03*
X8310000Y-8790000I0J-50000D01*
G01*
X10800000Y-7980000D02*
G75*
G03*
X10800000Y-8080000I0J-50000D01*
G01*
X15630000Y-8080000D02*
X16350000Y-8080000D01*
X13680000Y-8080000D02*
X14400000Y-8080000D01*
X17500000Y-7980000D02*
X18220000Y-7980000D01*
X19400000Y-7980000D02*
G75*
G03*
X19400000Y-8080000I0J-50000D01*
G01*
X17500000Y-8080000D02*
X18220000Y-8080000D01*
X9129999Y-8609998D02*
G75*
G03*
X9200000Y-8690000I30051J-44332D01*
G01*
X17500000Y-7980000D02*
G75*
G03*
X17500000Y-8080000I0J-50000D01*
G01*
X11750000Y-7980000D02*
G75*
G03*
X11750000Y-8080000I0J-50000D01*
G01*
X9719740Y-8159600D02*
G75*
G03*
X9649741Y-8079602I-30050J44330D01*
G01*
X14660000Y-7980000D02*
G75*
G03*
X14660000Y-8080000I0J-50000D01*
G01*
X12710000Y-7980000D02*
G75*
G03*
X12710000Y-8080000I0J-50000D01*
G01*
X14660000Y-7980000D02*
X15380000Y-7980000D01*
X11520000Y-8080000D02*
G75*
G03*
X11520000Y-7980000I0J50000D01*
G01*
X18450000Y-7980000D02*
X19170000Y-7980000D01*
X16560000Y-8080000D02*
X17280000Y-8080000D01*
X19772000Y-7849000D02*
X19772000Y-7129000D01*
X9830000Y-8080000D02*
X10550000Y-8080000D01*
X19672000Y-7849000D02*
X19672000Y-7129000D01*
X14660000Y-8080000D02*
X15380000Y-8080000D01*
X11750000Y-8080000D02*
X12470000Y-8080000D01*
X10800000Y-7980000D02*
X11520000Y-7980000D01*
X19400000Y-7980000D02*
X19660000Y-7980000D01*
X11750000Y-7980000D02*
X12470000Y-7980000D01*
X18220000Y-8080000D02*
G75*
G03*
X18220000Y-7980000I0J50000D01*
G01*
X8310000Y-8690000D02*
X9030000Y-8690000D01*
X9030000Y-8790000D02*
G75*
G03*
X9030000Y-8690000I0J50000D01*
G01*
X17280000Y-8080000D02*
G75*
G03*
X17280000Y-7980000I0J50000D01*
G01*
X16350000Y-8080000D02*
G75*
G03*
X16350000Y-7980000I0J50000D01*
G01*
X15630000Y-7980000D02*
G75*
G03*
X15630000Y-8080000I0J-50000D01*
G01*
X19672000Y-7849000D02*
G75*
G03*
X19772000Y-7849000I50000J0D01*
G01*
X12710000Y-8080000D02*
X13430000Y-8080000D01*
X14400000Y-8080000D02*
G75*
G03*
X14400000Y-7980000I0J50000D01*
G01*
X13680000Y-7980000D02*
X14400000Y-7980000D01*
X13430000Y-8080000D02*
G75*
G03*
X13430000Y-7980000I0J50000D01*
G01*
X12710000Y-7980000D02*
X13430000Y-7980000D01*
X10550000Y-8080000D02*
G75*
G03*
X10550000Y-7980000I0J50000D01*
G01*
X15380000Y-8080000D02*
G75*
G03*
X15380000Y-7980000I0J50000D01*
G01*
X18450000Y-7980000D02*
G75*
G03*
X18450000Y-8080000I0J-50000D01*
G01*
D11*
X7948819Y-11990876D02*
X7948819Y-11790876D01*
X7996438Y-11790876D01*
X8025009Y-11800400D01*
X8044057Y-11819448D01*
X8053581Y-11838495D01*
X8063105Y-11876590D01*
X8063105Y-11905162D01*
X8053581Y-11943257D01*
X8044057Y-11962305D01*
X8025009Y-11981352D01*
X7996438Y-11990876D01*
X7948819Y-11990876D01*
X8148819Y-11990876D02*
X8148819Y-11857543D01*
X8148819Y-11895638D02*
X8158343Y-11876590D01*
X8167867Y-11867067D01*
X8186914Y-11857543D01*
X8205962Y-11857543D01*
X8272628Y-11990876D02*
X8272628Y-11857543D01*
X8272628Y-11790876D02*
X8263105Y-11800400D01*
X8272628Y-11809924D01*
X8282152Y-11800400D01*
X8272628Y-11790876D01*
X8272628Y-11809924D01*
X8396438Y-11990876D02*
X8377390Y-11981352D01*
X8367867Y-11962305D01*
X8367867Y-11790876D01*
X8501200Y-11990876D02*
X8482152Y-11981352D01*
X8472629Y-11962305D01*
X8472629Y-11790876D01*
X8729771Y-11990876D02*
X8729771Y-11790876D01*
X8796438Y-11933733D01*
X8863105Y-11790876D01*
X8863105Y-11990876D01*
X9044057Y-11990876D02*
X9044057Y-11886114D01*
X9034533Y-11867067D01*
X9015486Y-11857543D01*
X8977390Y-11857543D01*
X8958343Y-11867067D01*
X9044057Y-11981352D02*
X9025010Y-11990876D01*
X8977390Y-11990876D01*
X8958343Y-11981352D01*
X8948819Y-11962305D01*
X8948819Y-11943257D01*
X8958343Y-11924209D01*
X8977390Y-11914686D01*
X9025010Y-11914686D01*
X9044057Y-11905162D01*
X9139295Y-11857543D02*
X9139295Y-12057543D01*
X9139295Y-11867067D02*
X9158343Y-11857543D01*
X9196438Y-11857543D01*
X9215486Y-11867067D01*
X9225010Y-11876590D01*
X9234533Y-11895638D01*
X9234533Y-11952781D01*
X9225010Y-11971828D01*
X9215486Y-11981352D01*
X9196438Y-11990876D01*
X9158343Y-11990876D01*
X9139295Y-11981352D01*
X9320248Y-11971828D02*
X9329771Y-11981352D01*
X9320248Y-11990876D01*
X9310724Y-11981352D01*
X9320248Y-11971828D01*
X9320248Y-11990876D01*
X9320248Y-11867067D02*
X9329771Y-11876590D01*
X9320248Y-11886114D01*
X9310724Y-11876590D01*
X9320248Y-11867067D01*
X9320248Y-11886114D01*
M02*
